# RoadToF1 authored geometry. Centimetres, Z up.
v 10500.000 6250.000 630.000
v 10500.000 7750.000 630.000
v 10500.000 6250.000 600.000
v 10500.000 7750.000 600.000
v -8100.000 7750.000 630.000
v -8100.000 6250.000 630.000
v -8100.000 7750.000 600.000
v -8100.000 6250.000 600.000
v -8100.000 7750.000 630.000
v 10500.000 7750.000 630.000
v -8100.000 6250.000 630.000
v 10500.000 6250.000 630.000
v -8100.000 6250.000 600.000
v 10500.000 6250.000 600.000
v -8100.000 7750.000 600.000
v 10500.000 7750.000 600.000
v -8100.000 6250.000 630.000
v 10500.000 6250.000 630.000
v -8100.000 6250.000 600.000
v 10500.000 6250.000 600.000
v 10500.000 7750.000 630.000
v -8100.000 7750.000 630.000
v 10500.000 7750.000 600.000
v -8100.000 7750.000 600.000
vt 0.00000 1.00000
vt 1.00000 1.00000
vt 0.00000 0.00000
vt 1.00000 0.00000
vt 0.00000 1.00000
vt 1.00000 1.00000
vt 0.00000 0.00000
vt 1.00000 0.00000
vt 0.00000 1.00000
vt 1.00000 1.00000
vt 0.00000 0.00000
vt 1.00000 0.00000
vt 0.00000 1.00000
vt 1.00000 1.00000
vt 0.00000 0.00000
vt 1.00000 0.00000
vt 0.00000 1.00000
vt 1.00000 1.00000
vt 0.00000 0.00000
vt 1.00000 0.00000
vt 0.00000 1.00000
vt 1.00000 1.00000
vt 0.00000 0.00000
vt 1.00000 0.00000
f 1/1 3/3 2/2
f 3/3 4/4 2/2
f 5/5 7/7 6/6
f 7/7 8/8 6/6
f 9/9 11/11 10/10
f 11/11 12/12 10/10
f 13/13 15/15 14/14
f 15/15 16/16 14/14
f 17/17 19/19 18/18
f 19/19 20/20 18/18
f 21/21 23/23 22/22
f 23/23 24/24 22/22
v -7010.000 6340.000 385.000
v -7010.000 6350.000 385.000
v -7010.000 6340.000 15.000
v -7010.000 6350.000 15.000
v -7590.000 6350.000 385.000
v -7590.000 6340.000 385.000
v -7590.000 6350.000 15.000
v -7590.000 6340.000 15.000
v -7590.000 6350.000 385.000
v -7010.000 6350.000 385.000
v -7590.000 6340.000 385.000
v -7010.000 6340.000 385.000
v -7590.000 6340.000 15.000
v -7010.000 6340.000 15.000
v -7590.000 6350.000 15.000
v -7010.000 6350.000 15.000
v -7590.000 6340.000 385.000
v -7010.000 6340.000 385.000
v -7590.000 6340.000 15.000
v -7010.000 6340.000 15.000
v -7010.000 6350.000 385.000
v -7590.000 6350.000 385.000
v -7010.000 6350.000 15.000
v -7590.000 6350.000 15.000
vt 0.00000 1.00000
vt 1.00000 1.00000
vt 0.00000 0.00000
vt 1.00000 0.00000
vt 0.00000 1.00000
vt 1.00000 1.00000
vt 0.00000 0.00000
vt 1.00000 0.00000
vt 0.00000 1.00000
vt 1.00000 1.00000
vt 0.00000 0.00000
vt 1.00000 0.00000
vt 0.00000 1.00000
vt 1.00000 1.00000
vt 0.00000 0.00000
vt 1.00000 0.00000
vt 0.00000 1.00000
vt 1.00000 1.00000
vt 0.00000 0.00000
vt 1.00000 0.00000
vt 0.00000 1.00000
vt 1.00000 1.00000
vt 0.00000 0.00000
vt 1.00000 0.00000
f 25/25 27/27 26/26
f 27/27 28/28 26/26
f 29/29 31/31 30/30
f 31/31 32/32 30/30
f 33/33 35/35 34/34
f 35/35 36/36 34/34
f 37/37 39/39 38/38
f 39/39 40/40 38/38
f 41/41 43/43 42/42
f 43/43 44/44 42/42
f 45/45 47/47 46/46
f 47/47 48/48 46/46
v -6210.000 6340.000 385.000
v -6210.000 6350.000 385.000
v -6210.000 6340.000 15.000
v -6210.000 6350.000 15.000
v -6790.000 6350.000 385.000
v -6790.000 6340.000 385.000
v -6790.000 6350.000 15.000
v -6790.000 6340.000 15.000
v -6790.000 6350.000 385.000
v -6210.000 6350.000 385.000
v -6790.000 6340.000 385.000
v -6210.000 6340.000 385.000
v -6790.000 6340.000 15.000
v -6210.000 6340.000 15.000
v -6790.000 6350.000 15.000
v -6210.000 6350.000 15.000
v -6790.000 6340.000 385.000
v -6210.000 6340.000 385.000
v -6790.000 6340.000 15.000
v -6210.000 6340.000 15.000
v -6210.000 6350.000 385.000
v -6790.000 6350.000 385.000
v -6210.000 6350.000 15.000
v -6790.000 6350.000 15.000
vt 0.00000 1.00000
vt 1.00000 1.00000
vt 0.00000 0.00000
vt 1.00000 0.00000
vt 0.00000 1.00000
vt 1.00000 1.00000
vt 0.00000 0.00000
vt 1.00000 0.00000
vt 0.00000 1.00000
vt 1.00000 1.00000
vt 0.00000 0.00000
vt 1.00000 0.00000
vt 0.00000 1.00000
vt 1.00000 1.00000
vt 0.00000 0.00000
vt 1.00000 0.00000
vt 0.00000 1.00000
vt 1.00000 1.00000
vt 0.00000 0.00000
vt 1.00000 0.00000
vt 0.00000 1.00000
vt 1.00000 1.00000
vt 0.00000 0.00000
vt 1.00000 0.00000
f 49/49 51/51 50/50
f 51/51 52/52 50/50
f 53/53 55/55 54/54
f 55/55 56/56 54/54
f 57/57 59/59 58/58
f 59/59 60/60 58/58
f 61/61 63/63 62/62
f 63/63 64/64 62/62
f 65/65 67/67 66/66
f 67/67 68/68 66/66
f 69/69 71/71 70/70
f 71/71 72/72 70/70
v -5410.000 6340.000 385.000
v -5410.000 6350.000 385.000
v -5410.000 6340.000 15.000
v -5410.000 6350.000 15.000
v -5990.000 6350.000 385.000
v -5990.000 6340.000 385.000
v -5990.000 6350.000 15.000
v -5990.000 6340.000 15.000
v -5990.000 6350.000 385.000
v -5410.000 6350.000 385.000
v -5990.000 6340.000 385.000
v -5410.000 6340.000 385.000
v -5990.000 6340.000 15.000
v -5410.000 6340.000 15.000
v -5990.000 6350.000 15.000
v -5410.000 6350.000 15.000
v -5990.000 6340.000 385.000
v -5410.000 6340.000 385.000
v -5990.000 6340.000 15.000
v -5410.000 6340.000 15.000
v -5410.000 6350.000 385.000
v -5990.000 6350.000 385.000
v -5410.000 6350.000 15.000
v -5990.000 6350.000 15.000
vt 0.00000 1.00000
vt 1.00000 1.00000
vt 0.00000 0.00000
vt 1.00000 0.00000
vt 0.00000 1.00000
vt 1.00000 1.00000
vt 0.00000 0.00000
vt 1.00000 0.00000
vt 0.00000 1.00000
vt 1.00000 1.00000
vt 0.00000 0.00000
vt 1.00000 0.00000
vt 0.00000 1.00000
vt 1.00000 1.00000
vt 0.00000 0.00000
vt 1.00000 0.00000
vt 0.00000 1.00000
vt 1.00000 1.00000
vt 0.00000 0.00000
vt 1.00000 0.00000
vt 0.00000 1.00000
vt 1.00000 1.00000
vt 0.00000 0.00000
vt 1.00000 0.00000
f 73/73 75/75 74/74
f 75/75 76/76 74/74
f 77/77 79/79 78/78
f 79/79 80/80 78/78
f 81/81 83/83 82/82
f 83/83 84/84 82/82
f 85/85 87/87 86/86
f 87/87 88/88 86/86
f 89/89 91/91 90/90
f 91/91 92/92 90/90
f 93/93 95/95 94/94
f 95/95 96/96 94/94
v -4610.000 6340.000 385.000
v -4610.000 6350.000 385.000
v -4610.000 6340.000 15.000
v -4610.000 6350.000 15.000
v -5190.000 6350.000 385.000
v -5190.000 6340.000 385.000
v -5190.000 6350.000 15.000
v -5190.000 6340.000 15.000
v -5190.000 6350.000 385.000
v -4610.000 6350.000 385.000
v -5190.000 6340.000 385.000
v -4610.000 6340.000 385.000
v -5190.000 6340.000 15.000
v -4610.000 6340.000 15.000
v -5190.000 6350.000 15.000
v -4610.000 6350.000 15.000
v -5190.000 6340.000 385.000
v -4610.000 6340.000 385.000
v -5190.000 6340.000 15.000
v -4610.000 6340.000 15.000
v -4610.000 6350.000 385.000
v -5190.000 6350.000 385.000
v -4610.000 6350.000 15.000
v -5190.000 6350.000 15.000
vt 0.00000 1.00000
vt 1.00000 1.00000
vt 0.00000 0.00000
vt 1.00000 0.00000
vt 0.00000 1.00000
vt 1.00000 1.00000
vt 0.00000 0.00000
vt 1.00000 0.00000
vt 0.00000 1.00000
vt 1.00000 1.00000
vt 0.00000 0.00000
vt 1.00000 0.00000
vt 0.00000 1.00000
vt 1.00000 1.00000
vt 0.00000 0.00000
vt 1.00000 0.00000
vt 0.00000 1.00000
vt 1.00000 1.00000
vt 0.00000 0.00000
vt 1.00000 0.00000
vt 0.00000 1.00000
vt 1.00000 1.00000
vt 0.00000 0.00000
vt 1.00000 0.00000
f 97/97 99/99 98/98
f 99/99 100/100 98/98
f 101/101 103/103 102/102
f 103/103 104/104 102/102
f 105/105 107/107 106/106
f 107/107 108/108 106/106
f 109/109 111/111 110/110
f 111/111 112/112 110/110
f 113/113 115/115 114/114
f 115/115 116/116 114/114
f 117/117 119/119 118/118
f 119/119 120/120 118/118
v -3810.000 6340.000 385.000
v -3810.000 6350.000 385.000
v -3810.000 6340.000 15.000
v -3810.000 6350.000 15.000
v -4390.000 6350.000 385.000
v -4390.000 6340.000 385.000
v -4390.000 6350.000 15.000
v -4390.000 6340.000 15.000
v -4390.000 6350.000 385.000
v -3810.000 6350.000 385.000
v -4390.000 6340.000 385.000
v -3810.000 6340.000 385.000
v -4390.000 6340.000 15.000
v -3810.000 6340.000 15.000
v -4390.000 6350.000 15.000
v -3810.000 6350.000 15.000
v -4390.000 6340.000 385.000
v -3810.000 6340.000 385.000
v -4390.000 6340.000 15.000
v -3810.000 6340.000 15.000
v -3810.000 6350.000 385.000
v -4390.000 6350.000 385.000
v -3810.000 6350.000 15.000
v -4390.000 6350.000 15.000
vt 0.00000 1.00000
vt 1.00000 1.00000
vt 0.00000 0.00000
vt 1.00000 0.00000
vt 0.00000 1.00000
vt 1.00000 1.00000
vt 0.00000 0.00000
vt 1.00000 0.00000
vt 0.00000 1.00000
vt 1.00000 1.00000
vt 0.00000 0.00000
vt 1.00000 0.00000
vt 0.00000 1.00000
vt 1.00000 1.00000
vt 0.00000 0.00000
vt 1.00000 0.00000
vt 0.00000 1.00000
vt 1.00000 1.00000
vt 0.00000 0.00000
vt 1.00000 0.00000
vt 0.00000 1.00000
vt 1.00000 1.00000
vt 0.00000 0.00000
vt 1.00000 0.00000
f 121/121 123/123 122/122
f 123/123 124/124 122/122
f 125/125 127/127 126/126
f 127/127 128/128 126/126
f 129/129 131/131 130/130
f 131/131 132/132 130/130
f 133/133 135/135 134/134
f 135/135 136/136 134/134
f 137/137 139/139 138/138
f 139/139 140/140 138/138
f 141/141 143/143 142/142
f 143/143 144/144 142/142
v -3010.000 6340.000 385.000
v -3010.000 6350.000 385.000
v -3010.000 6340.000 15.000
v -3010.000 6350.000 15.000
v -3590.000 6350.000 385.000
v -3590.000 6340.000 385.000
v -3590.000 6350.000 15.000
v -3590.000 6340.000 15.000
v -3590.000 6350.000 385.000
v -3010.000 6350.000 385.000
v -3590.000 6340.000 385.000
v -3010.000 6340.000 385.000
v -3590.000 6340.000 15.000
v -3010.000 6340.000 15.000
v -3590.000 6350.000 15.000
v -3010.000 6350.000 15.000
v -3590.000 6340.000 385.000
v -3010.000 6340.000 385.000
v -3590.000 6340.000 15.000
v -3010.000 6340.000 15.000
v -3010.000 6350.000 385.000
v -3590.000 6350.000 385.000
v -3010.000 6350.000 15.000
v -3590.000 6350.000 15.000
vt 0.00000 1.00000
vt 1.00000 1.00000
vt 0.00000 0.00000
vt 1.00000 0.00000
vt 0.00000 1.00000
vt 1.00000 1.00000
vt 0.00000 0.00000
vt 1.00000 0.00000
vt 0.00000 1.00000
vt 1.00000 1.00000
vt 0.00000 0.00000
vt 1.00000 0.00000
vt 0.00000 1.00000
vt 1.00000 1.00000
vt 0.00000 0.00000
vt 1.00000 0.00000
vt 0.00000 1.00000
vt 1.00000 1.00000
vt 0.00000 0.00000
vt 1.00000 0.00000
vt 0.00000 1.00000
vt 1.00000 1.00000
vt 0.00000 0.00000
vt 1.00000 0.00000
f 145/145 147/147 146/146
f 147/147 148/148 146/146
f 149/149 151/151 150/150
f 151/151 152/152 150/150
f 153/153 155/155 154/154
f 155/155 156/156 154/154
f 157/157 159/159 158/158
f 159/159 160/160 158/158
f 161/161 163/163 162/162
f 163/163 164/164 162/162
f 165/165 167/167 166/166
f 167/167 168/168 166/166
v -2210.000 6340.000 385.000
v -2210.000 6350.000 385.000
v -2210.000 6340.000 15.000
v -2210.000 6350.000 15.000
v -2790.000 6350.000 385.000
v -2790.000 6340.000 385.000
v -2790.000 6350.000 15.000
v -2790.000 6340.000 15.000
v -2790.000 6350.000 385.000
v -2210.000 6350.000 385.000
v -2790.000 6340.000 385.000
v -2210.000 6340.000 385.000
v -2790.000 6340.000 15.000
v -2210.000 6340.000 15.000
v -2790.000 6350.000 15.000
v -2210.000 6350.000 15.000
v -2790.000 6340.000 385.000
v -2210.000 6340.000 385.000
v -2790.000 6340.000 15.000
v -2210.000 6340.000 15.000
v -2210.000 6350.000 385.000
v -2790.000 6350.000 385.000
v -2210.000 6350.000 15.000
v -2790.000 6350.000 15.000
vt 0.00000 1.00000
vt 1.00000 1.00000
vt 0.00000 0.00000
vt 1.00000 0.00000
vt 0.00000 1.00000
vt 1.00000 1.00000
vt 0.00000 0.00000
vt 1.00000 0.00000
vt 0.00000 1.00000
vt 1.00000 1.00000
vt 0.00000 0.00000
vt 1.00000 0.00000
vt 0.00000 1.00000
vt 1.00000 1.00000
vt 0.00000 0.00000
vt 1.00000 0.00000
vt 0.00000 1.00000
vt 1.00000 1.00000
vt 0.00000 0.00000
vt 1.00000 0.00000
vt 0.00000 1.00000
vt 1.00000 1.00000
vt 0.00000 0.00000
vt 1.00000 0.00000
f 169/169 171/171 170/170
f 171/171 172/172 170/170
f 173/173 175/175 174/174
f 175/175 176/176 174/174
f 177/177 179/179 178/178
f 179/179 180/180 178/178
f 181/181 183/183 182/182
f 183/183 184/184 182/182
f 185/185 187/187 186/186
f 187/187 188/188 186/186
f 189/189 191/191 190/190
f 191/191 192/192 190/190
v -1410.000 6340.000 385.000
v -1410.000 6350.000 385.000
v -1410.000 6340.000 15.000
v -1410.000 6350.000 15.000
v -1990.000 6350.000 385.000
v -1990.000 6340.000 385.000
v -1990.000 6350.000 15.000
v -1990.000 6340.000 15.000
v -1990.000 6350.000 385.000
v -1410.000 6350.000 385.000
v -1990.000 6340.000 385.000
v -1410.000 6340.000 385.000
v -1990.000 6340.000 15.000
v -1410.000 6340.000 15.000
v -1990.000 6350.000 15.000
v -1410.000 6350.000 15.000
v -1990.000 6340.000 385.000
v -1410.000 6340.000 385.000
v -1990.000 6340.000 15.000
v -1410.000 6340.000 15.000
v -1410.000 6350.000 385.000
v -1990.000 6350.000 385.000
v -1410.000 6350.000 15.000
v -1990.000 6350.000 15.000
vt 0.00000 1.00000
vt 1.00000 1.00000
vt 0.00000 0.00000
vt 1.00000 0.00000
vt 0.00000 1.00000
vt 1.00000 1.00000
vt 0.00000 0.00000
vt 1.00000 0.00000
vt 0.00000 1.00000
vt 1.00000 1.00000
vt 0.00000 0.00000
vt 1.00000 0.00000
vt 0.00000 1.00000
vt 1.00000 1.00000
vt 0.00000 0.00000
vt 1.00000 0.00000
vt 0.00000 1.00000
vt 1.00000 1.00000
vt 0.00000 0.00000
vt 1.00000 0.00000
vt 0.00000 1.00000
vt 1.00000 1.00000
vt 0.00000 0.00000
vt 1.00000 0.00000
f 193/193 195/195 194/194
f 195/195 196/196 194/194
f 197/197 199/199 198/198
f 199/199 200/200 198/198
f 201/201 203/203 202/202
f 203/203 204/204 202/202
f 205/205 207/207 206/206
f 207/207 208/208 206/206
f 209/209 211/211 210/210
f 211/211 212/212 210/210
f 213/213 215/215 214/214
f 215/215 216/216 214/214
v -610.000 6340.000 385.000
v -610.000 6350.000 385.000
v -610.000 6340.000 15.000
v -610.000 6350.000 15.000
v -1190.000 6350.000 385.000
v -1190.000 6340.000 385.000
v -1190.000 6350.000 15.000
v -1190.000 6340.000 15.000
v -1190.000 6350.000 385.000
v -610.000 6350.000 385.000
v -1190.000 6340.000 385.000
v -610.000 6340.000 385.000
v -1190.000 6340.000 15.000
v -610.000 6340.000 15.000
v -1190.000 6350.000 15.000
v -610.000 6350.000 15.000
v -1190.000 6340.000 385.000
v -610.000 6340.000 385.000
v -1190.000 6340.000 15.000
v -610.000 6340.000 15.000
v -610.000 6350.000 385.000
v -1190.000 6350.000 385.000
v -610.000 6350.000 15.000
v -1190.000 6350.000 15.000
vt 0.00000 1.00000
vt 1.00000 1.00000
vt 0.00000 0.00000
vt 1.00000 0.00000
vt 0.00000 1.00000
vt 1.00000 1.00000
vt 0.00000 0.00000
vt 1.00000 0.00000
vt 0.00000 1.00000
vt 1.00000 1.00000
vt 0.00000 0.00000
vt 1.00000 0.00000
vt 0.00000 1.00000
vt 1.00000 1.00000
vt 0.00000 0.00000
vt 1.00000 0.00000
vt 0.00000 1.00000
vt 1.00000 1.00000
vt 0.00000 0.00000
vt 1.00000 0.00000
vt 0.00000 1.00000
vt 1.00000 1.00000
vt 0.00000 0.00000
vt 1.00000 0.00000
f 217/217 219/219 218/218
f 219/219 220/220 218/218
f 221/221 223/223 222/222
f 223/223 224/224 222/222
f 225/225 227/227 226/226
f 227/227 228/228 226/226
f 229/229 231/231 230/230
f 231/231 232/232 230/230
f 233/233 235/235 234/234
f 235/235 236/236 234/234
f 237/237 239/239 238/238
f 239/239 240/240 238/238
v 190.000 6340.000 385.000
v 190.000 6350.000 385.000
v 190.000 6340.000 15.000
v 190.000 6350.000 15.000
v -390.000 6350.000 385.000
v -390.000 6340.000 385.000
v -390.000 6350.000 15.000
v -390.000 6340.000 15.000
v -390.000 6350.000 385.000
v 190.000 6350.000 385.000
v -390.000 6340.000 385.000
v 190.000 6340.000 385.000
v -390.000 6340.000 15.000
v 190.000 6340.000 15.000
v -390.000 6350.000 15.000
v 190.000 6350.000 15.000
v -390.000 6340.000 385.000
v 190.000 6340.000 385.000
v -390.000 6340.000 15.000
v 190.000 6340.000 15.000
v 190.000 6350.000 385.000
v -390.000 6350.000 385.000
v 190.000 6350.000 15.000
v -390.000 6350.000 15.000
vt 0.00000 1.00000
vt 1.00000 1.00000
vt 0.00000 0.00000
vt 1.00000 0.00000
vt 0.00000 1.00000
vt 1.00000 1.00000
vt 0.00000 0.00000
vt 1.00000 0.00000
vt 0.00000 1.00000
vt 1.00000 1.00000
vt 0.00000 0.00000
vt 1.00000 0.00000
vt 0.00000 1.00000
vt 1.00000 1.00000
vt 0.00000 0.00000
vt 1.00000 0.00000
vt 0.00000 1.00000
vt 1.00000 1.00000
vt 0.00000 0.00000
vt 1.00000 0.00000
vt 0.00000 1.00000
vt 1.00000 1.00000
vt 0.00000 0.00000
vt 1.00000 0.00000
f 241/241 243/243 242/242
f 243/243 244/244 242/242
f 245/245 247/247 246/246
f 247/247 248/248 246/246
f 249/249 251/251 250/250
f 251/251 252/252 250/250
f 253/253 255/255 254/254
f 255/255 256/256 254/254
f 257/257 259/259 258/258
f 259/259 260/260 258/258
f 261/261 263/263 262/262
f 263/263 264/264 262/262
v 990.000 6340.000 385.000
v 990.000 6350.000 385.000
v 990.000 6340.000 15.000
v 990.000 6350.000 15.000
v 410.000 6350.000 385.000
v 410.000 6340.000 385.000
v 410.000 6350.000 15.000
v 410.000 6340.000 15.000
v 410.000 6350.000 385.000
v 990.000 6350.000 385.000
v 410.000 6340.000 385.000
v 990.000 6340.000 385.000
v 410.000 6340.000 15.000
v 990.000 6340.000 15.000
v 410.000 6350.000 15.000
v 990.000 6350.000 15.000
v 410.000 6340.000 385.000
v 990.000 6340.000 385.000
v 410.000 6340.000 15.000
v 990.000 6340.000 15.000
v 990.000 6350.000 385.000
v 410.000 6350.000 385.000
v 990.000 6350.000 15.000
v 410.000 6350.000 15.000
vt 0.00000 1.00000
vt 1.00000 1.00000
vt 0.00000 0.00000
vt 1.00000 0.00000
vt 0.00000 1.00000
vt 1.00000 1.00000
vt 0.00000 0.00000
vt 1.00000 0.00000
vt 0.00000 1.00000
vt 1.00000 1.00000
vt 0.00000 0.00000
vt 1.00000 0.00000
vt 0.00000 1.00000
vt 1.00000 1.00000
vt 0.00000 0.00000
vt 1.00000 0.00000
vt 0.00000 1.00000
vt 1.00000 1.00000
vt 0.00000 0.00000
vt 1.00000 0.00000
vt 0.00000 1.00000
vt 1.00000 1.00000
vt 0.00000 0.00000
vt 1.00000 0.00000
f 265/265 267/267 266/266
f 267/267 268/268 266/266
f 269/269 271/271 270/270
f 271/271 272/272 270/270
f 273/273 275/275 274/274
f 275/275 276/276 274/274
f 277/277 279/279 278/278
f 279/279 280/280 278/278
f 281/281 283/283 282/282
f 283/283 284/284 282/282
f 285/285 287/287 286/286
f 287/287 288/288 286/286
v 1790.000 6340.000 385.000
v 1790.000 6350.000 385.000
v 1790.000 6340.000 15.000
v 1790.000 6350.000 15.000
v 1210.000 6350.000 385.000
v 1210.000 6340.000 385.000
v 1210.000 6350.000 15.000
v 1210.000 6340.000 15.000
v 1210.000 6350.000 385.000
v 1790.000 6350.000 385.000
v 1210.000 6340.000 385.000
v 1790.000 6340.000 385.000
v 1210.000 6340.000 15.000
v 1790.000 6340.000 15.000
v 1210.000 6350.000 15.000
v 1790.000 6350.000 15.000
v 1210.000 6340.000 385.000
v 1790.000 6340.000 385.000
v 1210.000 6340.000 15.000
v 1790.000 6340.000 15.000
v 1790.000 6350.000 385.000
v 1210.000 6350.000 385.000
v 1790.000 6350.000 15.000
v 1210.000 6350.000 15.000
vt 0.00000 1.00000
vt 1.00000 1.00000
vt 0.00000 0.00000
vt 1.00000 0.00000
vt 0.00000 1.00000
vt 1.00000 1.00000
vt 0.00000 0.00000
vt 1.00000 0.00000
vt 0.00000 1.00000
vt 1.00000 1.00000
vt 0.00000 0.00000
vt 1.00000 0.00000
vt 0.00000 1.00000
vt 1.00000 1.00000
vt 0.00000 0.00000
vt 1.00000 0.00000
vt 0.00000 1.00000
vt 1.00000 1.00000
vt 0.00000 0.00000
vt 1.00000 0.00000
vt 0.00000 1.00000
vt 1.00000 1.00000
vt 0.00000 0.00000
vt 1.00000 0.00000
f 289/289 291/291 290/290
f 291/291 292/292 290/290
f 293/293 295/295 294/294
f 295/295 296/296 294/294
f 297/297 299/299 298/298
f 299/299 300/300 298/298
f 301/301 303/303 302/302
f 303/303 304/304 302/302
f 305/305 307/307 306/306
f 307/307 308/308 306/306
f 309/309 311/311 310/310
f 311/311 312/312 310/310
v 2590.000 6340.000 385.000
v 2590.000 6350.000 385.000
v 2590.000 6340.000 15.000
v 2590.000 6350.000 15.000
v 2010.000 6350.000 385.000
v 2010.000 6340.000 385.000
v 2010.000 6350.000 15.000
v 2010.000 6340.000 15.000
v 2010.000 6350.000 385.000
v 2590.000 6350.000 385.000
v 2010.000 6340.000 385.000
v 2590.000 6340.000 385.000
v 2010.000 6340.000 15.000
v 2590.000 6340.000 15.000
v 2010.000 6350.000 15.000
v 2590.000 6350.000 15.000
v 2010.000 6340.000 385.000
v 2590.000 6340.000 385.000
v 2010.000 6340.000 15.000
v 2590.000 6340.000 15.000
v 2590.000 6350.000 385.000
v 2010.000 6350.000 385.000
v 2590.000 6350.000 15.000
v 2010.000 6350.000 15.000
vt 0.00000 1.00000
vt 1.00000 1.00000
vt 0.00000 0.00000
vt 1.00000 0.00000
vt 0.00000 1.00000
vt 1.00000 1.00000
vt 0.00000 0.00000
vt 1.00000 0.00000
vt 0.00000 1.00000
vt 1.00000 1.00000
vt 0.00000 0.00000
vt 1.00000 0.00000
vt 0.00000 1.00000
vt 1.00000 1.00000
vt 0.00000 0.00000
vt 1.00000 0.00000
vt 0.00000 1.00000
vt 1.00000 1.00000
vt 0.00000 0.00000
vt 1.00000 0.00000
vt 0.00000 1.00000
vt 1.00000 1.00000
vt 0.00000 0.00000
vt 1.00000 0.00000
f 313/313 315/315 314/314
f 315/315 316/316 314/314
f 317/317 319/319 318/318
f 319/319 320/320 318/318
f 321/321 323/323 322/322
f 323/323 324/324 322/322
f 325/325 327/327 326/326
f 327/327 328/328 326/326
f 329/329 331/331 330/330
f 331/331 332/332 330/330
f 333/333 335/335 334/334
f 335/335 336/336 334/334
v 3390.000 6340.000 385.000
v 3390.000 6350.000 385.000
v 3390.000 6340.000 15.000
v 3390.000 6350.000 15.000
v 2810.000 6350.000 385.000
v 2810.000 6340.000 385.000
v 2810.000 6350.000 15.000
v 2810.000 6340.000 15.000
v 2810.000 6350.000 385.000
v 3390.000 6350.000 385.000
v 2810.000 6340.000 385.000
v 3390.000 6340.000 385.000
v 2810.000 6340.000 15.000
v 3390.000 6340.000 15.000
v 2810.000 6350.000 15.000
v 3390.000 6350.000 15.000
v 2810.000 6340.000 385.000
v 3390.000 6340.000 385.000
v 2810.000 6340.000 15.000
v 3390.000 6340.000 15.000
v 3390.000 6350.000 385.000
v 2810.000 6350.000 385.000
v 3390.000 6350.000 15.000
v 2810.000 6350.000 15.000
vt 0.00000 1.00000
vt 1.00000 1.00000
vt 0.00000 0.00000
vt 1.00000 0.00000
vt 0.00000 1.00000
vt 1.00000 1.00000
vt 0.00000 0.00000
vt 1.00000 0.00000
vt 0.00000 1.00000
vt 1.00000 1.00000
vt 0.00000 0.00000
vt 1.00000 0.00000
vt 0.00000 1.00000
vt 1.00000 1.00000
vt 0.00000 0.00000
vt 1.00000 0.00000
vt 0.00000 1.00000
vt 1.00000 1.00000
vt 0.00000 0.00000
vt 1.00000 0.00000
vt 0.00000 1.00000
vt 1.00000 1.00000
vt 0.00000 0.00000
vt 1.00000 0.00000
f 337/337 339/339 338/338
f 339/339 340/340 338/338
f 341/341 343/343 342/342
f 343/343 344/344 342/342
f 345/345 347/347 346/346
f 347/347 348/348 346/346
f 349/349 351/351 350/350
f 351/351 352/352 350/350
f 353/353 355/355 354/354
f 355/355 356/356 354/354
f 357/357 359/359 358/358
f 359/359 360/360 358/358
v 4190.000 6340.000 385.000
v 4190.000 6350.000 385.000
v 4190.000 6340.000 15.000
v 4190.000 6350.000 15.000
v 3610.000 6350.000 385.000
v 3610.000 6340.000 385.000
v 3610.000 6350.000 15.000
v 3610.000 6340.000 15.000
v 3610.000 6350.000 385.000
v 4190.000 6350.000 385.000
v 3610.000 6340.000 385.000
v 4190.000 6340.000 385.000
v 3610.000 6340.000 15.000
v 4190.000 6340.000 15.000
v 3610.000 6350.000 15.000
v 4190.000 6350.000 15.000
v 3610.000 6340.000 385.000
v 4190.000 6340.000 385.000
v 3610.000 6340.000 15.000
v 4190.000 6340.000 15.000
v 4190.000 6350.000 385.000
v 3610.000 6350.000 385.000
v 4190.000 6350.000 15.000
v 3610.000 6350.000 15.000
vt 0.00000 1.00000
vt 1.00000 1.00000
vt 0.00000 0.00000
vt 1.00000 0.00000
vt 0.00000 1.00000
vt 1.00000 1.00000
vt 0.00000 0.00000
vt 1.00000 0.00000
vt 0.00000 1.00000
vt 1.00000 1.00000
vt 0.00000 0.00000
vt 1.00000 0.00000
vt 0.00000 1.00000
vt 1.00000 1.00000
vt 0.00000 0.00000
vt 1.00000 0.00000
vt 0.00000 1.00000
vt 1.00000 1.00000
vt 0.00000 0.00000
vt 1.00000 0.00000
vt 0.00000 1.00000
vt 1.00000 1.00000
vt 0.00000 0.00000
vt 1.00000 0.00000
f 361/361 363/363 362/362
f 363/363 364/364 362/362
f 365/365 367/367 366/366
f 367/367 368/368 366/366
f 369/369 371/371 370/370
f 371/371 372/372 370/370
f 373/373 375/375 374/374
f 375/375 376/376 374/374
f 377/377 379/379 378/378
f 379/379 380/380 378/378
f 381/381 383/383 382/382
f 383/383 384/384 382/382
v 4990.000 6340.000 385.000
v 4990.000 6350.000 385.000
v 4990.000 6340.000 15.000
v 4990.000 6350.000 15.000
v 4410.000 6350.000 385.000
v 4410.000 6340.000 385.000
v 4410.000 6350.000 15.000
v 4410.000 6340.000 15.000
v 4410.000 6350.000 385.000
v 4990.000 6350.000 385.000
v 4410.000 6340.000 385.000
v 4990.000 6340.000 385.000
v 4410.000 6340.000 15.000
v 4990.000 6340.000 15.000
v 4410.000 6350.000 15.000
v 4990.000 6350.000 15.000
v 4410.000 6340.000 385.000
v 4990.000 6340.000 385.000
v 4410.000 6340.000 15.000
v 4990.000 6340.000 15.000
v 4990.000 6350.000 385.000
v 4410.000 6350.000 385.000
v 4990.000 6350.000 15.000
v 4410.000 6350.000 15.000
vt 0.00000 1.00000
vt 1.00000 1.00000
vt 0.00000 0.00000
vt 1.00000 0.00000
vt 0.00000 1.00000
vt 1.00000 1.00000
vt 0.00000 0.00000
vt 1.00000 0.00000
vt 0.00000 1.00000
vt 1.00000 1.00000
vt 0.00000 0.00000
vt 1.00000 0.00000
vt 0.00000 1.00000
vt 1.00000 1.00000
vt 0.00000 0.00000
vt 1.00000 0.00000
vt 0.00000 1.00000
vt 1.00000 1.00000
vt 0.00000 0.00000
vt 1.00000 0.00000
vt 0.00000 1.00000
vt 1.00000 1.00000
vt 0.00000 0.00000
vt 1.00000 0.00000
f 385/385 387/387 386/386
f 387/387 388/388 386/386
f 389/389 391/391 390/390
f 391/391 392/392 390/390
f 393/393 395/395 394/394
f 395/395 396/396 394/394
f 397/397 399/399 398/398
f 399/399 400/400 398/398
f 401/401 403/403 402/402
f 403/403 404/404 402/402
f 405/405 407/407 406/406
f 407/407 408/408 406/406
v 5790.000 6340.000 385.000
v 5790.000 6350.000 385.000
v 5790.000 6340.000 15.000
v 5790.000 6350.000 15.000
v 5210.000 6350.000 385.000
v 5210.000 6340.000 385.000
v 5210.000 6350.000 15.000
v 5210.000 6340.000 15.000
v 5210.000 6350.000 385.000
v 5790.000 6350.000 385.000
v 5210.000 6340.000 385.000
v 5790.000 6340.000 385.000
v 5210.000 6340.000 15.000
v 5790.000 6340.000 15.000
v 5210.000 6350.000 15.000
v 5790.000 6350.000 15.000
v 5210.000 6340.000 385.000
v 5790.000 6340.000 385.000
v 5210.000 6340.000 15.000
v 5790.000 6340.000 15.000
v 5790.000 6350.000 385.000
v 5210.000 6350.000 385.000
v 5790.000 6350.000 15.000
v 5210.000 6350.000 15.000
vt 0.00000 1.00000
vt 1.00000 1.00000
vt 0.00000 0.00000
vt 1.00000 0.00000
vt 0.00000 1.00000
vt 1.00000 1.00000
vt 0.00000 0.00000
vt 1.00000 0.00000
vt 0.00000 1.00000
vt 1.00000 1.00000
vt 0.00000 0.00000
vt 1.00000 0.00000
vt 0.00000 1.00000
vt 1.00000 1.00000
vt 0.00000 0.00000
vt 1.00000 0.00000
vt 0.00000 1.00000
vt 1.00000 1.00000
vt 0.00000 0.00000
vt 1.00000 0.00000
vt 0.00000 1.00000
vt 1.00000 1.00000
vt 0.00000 0.00000
vt 1.00000 0.00000
f 409/409 411/411 410/410
f 411/411 412/412 410/410
f 413/413 415/415 414/414
f 415/415 416/416 414/414
f 417/417 419/419 418/418
f 419/419 420/420 418/418
f 421/421 423/423 422/422
f 423/423 424/424 422/422
f 425/425 427/427 426/426
f 427/427 428/428 426/426
f 429/429 431/431 430/430
f 431/431 432/432 430/430
v 6590.000 6340.000 385.000
v 6590.000 6350.000 385.000
v 6590.000 6340.000 15.000
v 6590.000 6350.000 15.000
v 6010.000 6350.000 385.000
v 6010.000 6340.000 385.000
v 6010.000 6350.000 15.000
v 6010.000 6340.000 15.000
v 6010.000 6350.000 385.000
v 6590.000 6350.000 385.000
v 6010.000 6340.000 385.000
v 6590.000 6340.000 385.000
v 6010.000 6340.000 15.000
v 6590.000 6340.000 15.000
v 6010.000 6350.000 15.000
v 6590.000 6350.000 15.000
v 6010.000 6340.000 385.000
v 6590.000 6340.000 385.000
v 6010.000 6340.000 15.000
v 6590.000 6340.000 15.000
v 6590.000 6350.000 385.000
v 6010.000 6350.000 385.000
v 6590.000 6350.000 15.000
v 6010.000 6350.000 15.000
vt 0.00000 1.00000
vt 1.00000 1.00000
vt 0.00000 0.00000
vt 1.00000 0.00000
vt 0.00000 1.00000
vt 1.00000 1.00000
vt 0.00000 0.00000
vt 1.00000 0.00000
vt 0.00000 1.00000
vt 1.00000 1.00000
vt 0.00000 0.00000
vt 1.00000 0.00000
vt 0.00000 1.00000
vt 1.00000 1.00000
vt 0.00000 0.00000
vt 1.00000 0.00000
vt 0.00000 1.00000
vt 1.00000 1.00000
vt 0.00000 0.00000
vt 1.00000 0.00000
vt 0.00000 1.00000
vt 1.00000 1.00000
vt 0.00000 0.00000
vt 1.00000 0.00000
f 433/433 435/435 434/434
f 435/435 436/436 434/434
f 437/437 439/439 438/438
f 439/439 440/440 438/438
f 441/441 443/443 442/442
f 443/443 444/444 442/442
f 445/445 447/447 446/446
f 447/447 448/448 446/446
f 449/449 451/451 450/450
f 451/451 452/452 450/450
f 453/453 455/455 454/454
f 455/455 456/456 454/454
v 7390.000 6340.000 385.000
v 7390.000 6350.000 385.000
v 7390.000 6340.000 15.000
v 7390.000 6350.000 15.000
v 6810.000 6350.000 385.000
v 6810.000 6340.000 385.000
v 6810.000 6350.000 15.000
v 6810.000 6340.000 15.000
v 6810.000 6350.000 385.000
v 7390.000 6350.000 385.000
v 6810.000 6340.000 385.000
v 7390.000 6340.000 385.000
v 6810.000 6340.000 15.000
v 7390.000 6340.000 15.000
v 6810.000 6350.000 15.000
v 7390.000 6350.000 15.000
v 6810.000 6340.000 385.000
v 7390.000 6340.000 385.000
v 6810.000 6340.000 15.000
v 7390.000 6340.000 15.000
v 7390.000 6350.000 385.000
v 6810.000 6350.000 385.000
v 7390.000 6350.000 15.000
v 6810.000 6350.000 15.000
vt 0.00000 1.00000
vt 1.00000 1.00000
vt 0.00000 0.00000
vt 1.00000 0.00000
vt 0.00000 1.00000
vt 1.00000 1.00000
vt 0.00000 0.00000
vt 1.00000 0.00000
vt 0.00000 1.00000
vt 1.00000 1.00000
vt 0.00000 0.00000
vt 1.00000 0.00000
vt 0.00000 1.00000
vt 1.00000 1.00000
vt 0.00000 0.00000
vt 1.00000 0.00000
vt 0.00000 1.00000
vt 1.00000 1.00000
vt 0.00000 0.00000
vt 1.00000 0.00000
vt 0.00000 1.00000
vt 1.00000 1.00000
vt 0.00000 0.00000
vt 1.00000 0.00000
f 457/457 459/459 458/458
f 459/459 460/460 458/458
f 461/461 463/463 462/462
f 463/463 464/464 462/462
f 465/465 467/467 466/466
f 467/467 468/468 466/466
f 469/469 471/471 470/470
f 471/471 472/472 470/470
f 473/473 475/475 474/474
f 475/475 476/476 474/474
f 477/477 479/479 478/478
f 479/479 480/480 478/478
v 8190.000 6340.000 385.000
v 8190.000 6350.000 385.000
v 8190.000 6340.000 15.000
v 8190.000 6350.000 15.000
v 7610.000 6350.000 385.000
v 7610.000 6340.000 385.000
v 7610.000 6350.000 15.000
v 7610.000 6340.000 15.000
v 7610.000 6350.000 385.000
v 8190.000 6350.000 385.000
v 7610.000 6340.000 385.000
v 8190.000 6340.000 385.000
v 7610.000 6340.000 15.000
v 8190.000 6340.000 15.000
v 7610.000 6350.000 15.000
v 8190.000 6350.000 15.000
v 7610.000 6340.000 385.000
v 8190.000 6340.000 385.000
v 7610.000 6340.000 15.000
v 8190.000 6340.000 15.000
v 8190.000 6350.000 385.000
v 7610.000 6350.000 385.000
v 8190.000 6350.000 15.000
v 7610.000 6350.000 15.000
vt 0.00000 1.00000
vt 1.00000 1.00000
vt 0.00000 0.00000
vt 1.00000 0.00000
vt 0.00000 1.00000
vt 1.00000 1.00000
vt 0.00000 0.00000
vt 1.00000 0.00000
vt 0.00000 1.00000
vt 1.00000 1.00000
vt 0.00000 0.00000
vt 1.00000 0.00000
vt 0.00000 1.00000
vt 1.00000 1.00000
vt 0.00000 0.00000
vt 1.00000 0.00000
vt 0.00000 1.00000
vt 1.00000 1.00000
vt 0.00000 0.00000
vt 1.00000 0.00000
vt 0.00000 1.00000
vt 1.00000 1.00000
vt 0.00000 0.00000
vt 1.00000 0.00000
f 481/481 483/483 482/482
f 483/483 484/484 482/482
f 485/485 487/487 486/486
f 487/487 488/488 486/486
f 489/489 491/491 490/490
f 491/491 492/492 490/490
f 493/493 495/495 494/494
f 495/495 496/496 494/494
f 497/497 499/499 498/498
f 499/499 500/500 498/498
f 501/501 503/503 502/502
f 503/503 504/504 502/502
v 8990.000 6340.000 385.000
v 8990.000 6350.000 385.000
v 8990.000 6340.000 15.000
v 8990.000 6350.000 15.000
v 8410.000 6350.000 385.000
v 8410.000 6340.000 385.000
v 8410.000 6350.000 15.000
v 8410.000 6340.000 15.000
v 8410.000 6350.000 385.000
v 8990.000 6350.000 385.000
v 8410.000 6340.000 385.000
v 8990.000 6340.000 385.000
v 8410.000 6340.000 15.000
v 8990.000 6340.000 15.000
v 8410.000 6350.000 15.000
v 8990.000 6350.000 15.000
v 8410.000 6340.000 385.000
v 8990.000 6340.000 385.000
v 8410.000 6340.000 15.000
v 8990.000 6340.000 15.000
v 8990.000 6350.000 385.000
v 8410.000 6350.000 385.000
v 8990.000 6350.000 15.000
v 8410.000 6350.000 15.000
vt 0.00000 1.00000
vt 1.00000 1.00000
vt 0.00000 0.00000
vt 1.00000 0.00000
vt 0.00000 1.00000
vt 1.00000 1.00000
vt 0.00000 0.00000
vt 1.00000 0.00000
vt 0.00000 1.00000
vt 1.00000 1.00000
vt 0.00000 0.00000
vt 1.00000 0.00000
vt 0.00000 1.00000
vt 1.00000 1.00000
vt 0.00000 0.00000
vt 1.00000 0.00000
vt 0.00000 1.00000
vt 1.00000 1.00000
vt 0.00000 0.00000
vt 1.00000 0.00000
vt 0.00000 1.00000
vt 1.00000 1.00000
vt 0.00000 0.00000
vt 1.00000 0.00000
f 505/505 507/507 506/506
f 507/507 508/508 506/506
f 509/509 511/511 510/510
f 511/511 512/512 510/510
f 513/513 515/515 514/514
f 515/515 516/516 514/514
f 517/517 519/519 518/518
f 519/519 520/520 518/518
f 521/521 523/523 522/522
f 523/523 524/524 522/522
f 525/525 527/527 526/526
f 527/527 528/528 526/526
v 9790.000 6340.000 385.000
v 9790.000 6350.000 385.000
v 9790.000 6340.000 15.000
v 9790.000 6350.000 15.000
v 9210.000 6350.000 385.000
v 9210.000 6340.000 385.000
v 9210.000 6350.000 15.000
v 9210.000 6340.000 15.000
v 9210.000 6350.000 385.000
v 9790.000 6350.000 385.000
v 9210.000 6340.000 385.000
v 9790.000 6340.000 385.000
v 9210.000 6340.000 15.000
v 9790.000 6340.000 15.000
v 9210.000 6350.000 15.000
v 9790.000 6350.000 15.000
v 9210.000 6340.000 385.000
v 9790.000 6340.000 385.000
v 9210.000 6340.000 15.000
v 9790.000 6340.000 15.000
v 9790.000 6350.000 385.000
v 9210.000 6350.000 385.000
v 9790.000 6350.000 15.000
v 9210.000 6350.000 15.000
vt 0.00000 1.00000
vt 1.00000 1.00000
vt 0.00000 0.00000
vt 1.00000 0.00000
vt 0.00000 1.00000
vt 1.00000 1.00000
vt 0.00000 0.00000
vt 1.00000 0.00000
vt 0.00000 1.00000
vt 1.00000 1.00000
vt 0.00000 0.00000
vt 1.00000 0.00000
vt 0.00000 1.00000
vt 1.00000 1.00000
vt 0.00000 0.00000
vt 1.00000 0.00000
vt 0.00000 1.00000
vt 1.00000 1.00000
vt 0.00000 0.00000
vt 1.00000 0.00000
vt 0.00000 1.00000
vt 1.00000 1.00000
vt 0.00000 0.00000
vt 1.00000 0.00000
f 529/529 531/531 530/530
f 531/531 532/532 530/530
f 533/533 535/535 534/534
f 535/535 536/536 534/534
f 537/537 539/539 538/538
f 539/539 540/540 538/538
f 541/541 543/543 542/542
f 543/543 544/544 542/542
f 545/545 547/547 546/546
f 547/547 548/548 546/546
f 549/549 551/551 550/550
f 551/551 552/552 550/550
v 5700.000 7650.000 682.500
v 5700.000 8750.000 682.500
v 5700.000 7650.000 657.500
v 5700.000 8750.000 657.500
v -5700.000 8750.000 682.500
v -5700.000 7650.000 682.500
v -5700.000 8750.000 657.500
v -5700.000 7650.000 657.500
v -5700.000 8750.000 682.500
v 5700.000 8750.000 682.500
v -5700.000 7650.000 682.500
v 5700.000 7650.000 682.500
v -5700.000 7650.000 657.500
v 5700.000 7650.000 657.500
v -5700.000 8750.000 657.500
v 5700.000 8750.000 657.500
v -5700.000 7650.000 682.500
v 5700.000 7650.000 682.500
v -5700.000 7650.000 657.500
v 5700.000 7650.000 657.500
v 5700.000 8750.000 682.500
v -5700.000 8750.000 682.500
v 5700.000 8750.000 657.500
v -5700.000 8750.000 657.500
vt 0.00000 1.00000
vt 1.00000 1.00000
vt 0.00000 0.00000
vt 1.00000 0.00000
vt 0.00000 1.00000
vt 1.00000 1.00000
vt 0.00000 0.00000
vt 1.00000 0.00000
vt 0.00000 1.00000
vt 1.00000 1.00000
vt 0.00000 0.00000
vt 1.00000 0.00000
vt 0.00000 1.00000
vt 1.00000 1.00000
vt 0.00000 0.00000
vt 1.00000 0.00000
vt 0.00000 1.00000
vt 1.00000 1.00000
vt 0.00000 0.00000
vt 1.00000 0.00000
vt 0.00000 1.00000
vt 1.00000 1.00000
vt 0.00000 0.00000
vt 1.00000 0.00000
f 553/553 555/555 554/554
f 555/555 556/556 554/554
f 557/557 559/559 558/558
f 559/559 560/560 558/558
f 561/561 563/563 562/562
f 563/563 564/564 562/562
f 565/565 567/567 566/566
f 567/567 568/568 566/566
f 569/569 571/571 570/570
f 571/571 572/572 570/570
f 573/573 575/575 574/574
f 575/575 576/576 574/574
v -5500.000 5782.000 600.000
v -5493.112 5783.370 600.000
v -5487.272 5787.272 600.000
v -5483.370 5793.112 600.000
v -5482.000 5800.000 600.000
v -5483.370 5806.888 600.000
v -5487.272 5812.728 600.000
v -5493.112 5816.630 600.000
v -5500.000 5818.000 600.000
v -5506.888 5816.630 600.000
v -5512.728 5812.728 600.000
v -5516.630 5806.888 600.000
v -5518.000 5800.000 600.000
v -5516.630 5793.112 600.000
v -5512.728 5787.272 600.000
v -5506.888 5783.370 600.000
v -5500.000 5782.000 600.000
v -5500.000 5782.000 0.000
v -5493.112 5783.370 0.000
v -5487.272 5787.272 0.000
v -5483.370 5793.112 0.000
v -5482.000 5800.000 0.000
v -5483.370 5806.888 0.000
v -5487.272 5812.728 0.000
v -5493.112 5816.630 0.000
v -5500.000 5818.000 0.000
v -5506.888 5816.630 0.000
v -5512.728 5812.728 0.000
v -5516.630 5806.888 0.000
v -5518.000 5800.000 0.000
v -5516.630 5793.112 0.000
v -5512.728 5787.272 0.000
v -5506.888 5783.370 0.000
v -5500.000 5782.000 0.000
v -5500.000 5800.000 600.000
v -5500.000 5800.000 600.000
v -5500.000 5800.000 600.000
v -5500.000 5800.000 600.000
v -5500.000 5800.000 600.000
v -5500.000 5800.000 600.000
v -5500.000 5800.000 600.000
v -5500.000 5800.000 600.000
v -5500.000 5800.000 600.000
v -5500.000 5800.000 600.000
v -5500.000 5800.000 600.000
v -5500.000 5800.000 600.000
v -5500.000 5800.000 600.000
v -5500.000 5800.000 600.000
v -5500.000 5800.000 600.000
v -5500.000 5800.000 600.000
v -5500.000 5782.000 600.000
v -5493.112 5783.370 600.000
v -5487.272 5787.272 600.000
v -5483.370 5793.112 600.000
v -5482.000 5800.000 600.000
v -5483.370 5806.888 600.000
v -5487.272 5812.728 600.000
v -5493.112 5816.630 600.000
v -5500.000 5818.000 600.000
v -5506.888 5816.630 600.000
v -5512.728 5812.728 600.000
v -5516.630 5806.888 600.000
v -5518.000 5800.000 600.000
v -5516.630 5793.112 600.000
v -5512.728 5787.272 600.000
v -5506.888 5783.370 600.000
v -5500.000 5782.000 600.000
v -5500.000 5800.000 0.000
v -5500.000 5800.000 0.000
v -5500.000 5800.000 0.000
v -5500.000 5800.000 0.000
v -5500.000 5800.000 0.000
v -5500.000 5800.000 0.000
v -5500.000 5800.000 0.000
v -5500.000 5800.000 0.000
v -5500.000 5800.000 0.000
v -5500.000 5800.000 0.000
v -5500.000 5800.000 0.000
v -5500.000 5800.000 0.000
v -5500.000 5800.000 0.000
v -5500.000 5800.000 0.000
v -5500.000 5800.000 0.000
v -5500.000 5800.000 0.000
v -5500.000 5782.000 0.000
v -5493.112 5783.370 0.000
v -5487.272 5787.272 0.000
v -5483.370 5793.112 0.000
v -5482.000 5800.000 0.000
v -5483.370 5806.888 0.000
v -5487.272 5812.728 0.000
v -5493.112 5816.630 0.000
v -5500.000 5818.000 0.000
v -5506.888 5816.630 0.000
v -5512.728 5812.728 0.000
v -5516.630 5806.888 0.000
v -5518.000 5800.000 0.000
v -5516.630 5793.112 0.000
v -5512.728 5787.272 0.000
v -5506.888 5783.370 0.000
v -5500.000 5782.000 0.000
vt 0.00000 1.00000
vt 0.06250 1.00000
vt 0.12500 1.00000
vt 0.18750 1.00000
vt 0.25000 1.00000
vt 0.31250 1.00000
vt 0.37500 1.00000
vt 0.43750 1.00000
vt 0.50000 1.00000
vt 0.56250 1.00000
vt 0.62500 1.00000
vt 0.68750 1.00000
vt 0.75000 1.00000
vt 0.81250 1.00000
vt 0.87500 1.00000
vt 0.93750 1.00000
vt 1.00000 1.00000
vt 0.00000 0.00000
vt 0.06250 0.00000
vt 0.12500 0.00000
vt 0.18750 0.00000
vt 0.25000 0.00000
vt 0.31250 0.00000
vt 0.37500 0.00000
vt 0.43750 0.00000
vt 0.50000 0.00000
vt 0.56250 0.00000
vt 0.62500 0.00000
vt 0.68750 0.00000
vt 0.75000 0.00000
vt 0.81250 0.00000
vt 0.87500 0.00000
vt 0.93750 0.00000
vt 1.00000 0.00000
vt 0.50000 0.50000
vt 0.50000 0.50000
vt 0.50000 0.50000
vt 0.50000 0.50000
vt 0.50000 0.50000
vt 0.50000 0.50000
vt 0.50000 0.50000
vt 0.50000 0.50000
vt 0.50000 0.50000
vt 0.50000 0.50000
vt 0.50000 0.50000
vt 0.50000 0.50000
vt 0.50000 0.50000
vt 0.50000 0.50000
vt 0.50000 0.50000
vt 0.50000 0.50000
vt 1.00000 0.50000
vt 0.96194 0.69134
vt 0.85355 0.85355
vt 0.69134 0.96194
vt 0.50000 1.00000
vt 0.30866 0.96194
vt 0.14645 0.85355
vt 0.03806 0.69134
vt 0.00000 0.50000
vt 0.03806 0.30866
vt 0.14645 0.14645
vt 0.30866 0.03806
vt 0.50000 0.00000
vt 0.69134 0.03806
vt 0.85355 0.14645
vt 0.96194 0.30866
vt 1.00000 0.50000
vt 0.50000 0.50000
vt 0.50000 0.50000
vt 0.50000 0.50000
vt 0.50000 0.50000
vt 0.50000 0.50000
vt 0.50000 0.50000
vt 0.50000 0.50000
vt 0.50000 0.50000
vt 0.50000 0.50000
vt 0.50000 0.50000
vt 0.50000 0.50000
vt 0.50000 0.50000
vt 0.50000 0.50000
vt 0.50000 0.50000
vt 0.50000 0.50000
vt 0.50000 0.50000
vt 1.00000 0.50000
vt 0.96194 0.30866
vt 0.85355 0.14645
vt 0.69134 0.03806
vt 0.50000 0.00000
vt 0.30866 0.03806
vt 0.14645 0.14645
vt 0.03806 0.30866
vt 0.00000 0.50000
vt 0.03806 0.69134
vt 0.14645 0.85355
vt 0.30866 0.96194
vt 0.50000 1.00000
vt 0.69134 0.96194
vt 0.85355 0.85355
vt 0.96194 0.69134
vt 1.00000 0.50000
f 577/577 594/594 578/578
f 594/594 595/595 578/578
f 578/578 595/595 579/579
f 595/595 596/596 579/579
f 579/579 596/596 580/580
f 596/596 597/597 580/580
f 580/580 597/597 581/581
f 597/597 598/598 581/581
f 581/581 598/598 582/582
f 598/598 599/599 582/582
f 582/582 599/599 583/583
f 599/599 600/600 583/583
f 583/583 600/600 584/584
f 600/600 601/601 584/584
f 584/584 601/601 585/585
f 601/601 602/602 585/585
f 585/585 602/602 586/586
f 602/602 603/603 586/586
f 586/586 603/603 587/587
f 603/603 604/604 587/587
f 587/587 604/604 588/588
f 604/604 605/605 588/588
f 588/588 605/605 589/589
f 605/605 606/606 589/589
f 589/589 606/606 590/590
f 606/606 607/607 590/590
f 590/590 607/607 591/591
f 607/607 608/608 591/591
f 591/591 608/608 592/592
f 608/608 609/609 592/592
f 592/592 609/609 593/593
f 609/609 610/610 593/593
f 627/627 628/628 611/611
f 628/628 629/629 612/612
f 629/629 630/630 613/613
f 630/630 631/631 614/614
f 631/631 632/632 615/615
f 632/632 633/633 616/616
f 633/633 634/634 617/617
f 634/634 635/635 618/618
f 635/635 636/636 619/619
f 636/636 637/637 620/620
f 637/637 638/638 621/621
f 638/638 639/639 622/622
f 639/639 640/640 623/623
f 640/640 641/641 624/624
f 641/641 642/642 625/625
f 642/642 643/643 626/626
f 661/661 660/660 644/644
f 662/662 661/661 645/645
f 663/663 662/662 646/646
f 664/664 663/663 647/647
f 665/665 664/664 648/648
f 666/666 665/665 649/649
f 667/667 666/666 650/650
f 668/668 667/667 651/651
f 669/669 668/668 652/652
f 670/670 669/669 653/653
f 671/671 670/670 654/654
f 672/672 671/671 655/655
f 673/673 672/672 656/656
f 674/674 673/673 657/657
f 675/675 674/674 658/658
f 676/676 675/675 659/659
v -5500.000 4582.000 600.000
v -5493.112 4583.370 600.000
v -5487.272 4587.272 600.000
v -5483.370 4593.112 600.000
v -5482.000 4600.000 600.000
v -5483.370 4606.888 600.000
v -5487.272 4612.728 600.000
v -5493.112 4616.630 600.000
v -5500.000 4618.000 600.000
v -5506.888 4616.630 600.000
v -5512.728 4612.728 600.000
v -5516.630 4606.888 600.000
v -5518.000 4600.000 600.000
v -5516.630 4593.112 600.000
v -5512.728 4587.272 600.000
v -5506.888 4583.370 600.000
v -5500.000 4582.000 600.000
v -5500.000 4582.000 0.000
v -5493.112 4583.370 0.000
v -5487.272 4587.272 0.000
v -5483.370 4593.112 0.000
v -5482.000 4600.000 0.000
v -5483.370 4606.888 0.000
v -5487.272 4612.728 0.000
v -5493.112 4616.630 0.000
v -5500.000 4618.000 0.000
v -5506.888 4616.630 0.000
v -5512.728 4612.728 0.000
v -5516.630 4606.888 0.000
v -5518.000 4600.000 0.000
v -5516.630 4593.112 0.000
v -5512.728 4587.272 0.000
v -5506.888 4583.370 0.000
v -5500.000 4582.000 0.000
v -5500.000 4600.000 600.000
v -5500.000 4600.000 600.000
v -5500.000 4600.000 600.000
v -5500.000 4600.000 600.000
v -5500.000 4600.000 600.000
v -5500.000 4600.000 600.000
v -5500.000 4600.000 600.000
v -5500.000 4600.000 600.000
v -5500.000 4600.000 600.000
v -5500.000 4600.000 600.000
v -5500.000 4600.000 600.000
v -5500.000 4600.000 600.000
v -5500.000 4600.000 600.000
v -5500.000 4600.000 600.000
v -5500.000 4600.000 600.000
v -5500.000 4600.000 600.000
v -5500.000 4582.000 600.000
v -5493.112 4583.370 600.000
v -5487.272 4587.272 600.000
v -5483.370 4593.112 600.000
v -5482.000 4600.000 600.000
v -5483.370 4606.888 600.000
v -5487.272 4612.728 600.000
v -5493.112 4616.630 600.000
v -5500.000 4618.000 600.000
v -5506.888 4616.630 600.000
v -5512.728 4612.728 600.000
v -5516.630 4606.888 600.000
v -5518.000 4600.000 600.000
v -5516.630 4593.112 600.000
v -5512.728 4587.272 600.000
v -5506.888 4583.370 600.000
v -5500.000 4582.000 600.000
v -5500.000 4600.000 0.000
v -5500.000 4600.000 0.000
v -5500.000 4600.000 0.000
v -5500.000 4600.000 0.000
v -5500.000 4600.000 0.000
v -5500.000 4600.000 0.000
v -5500.000 4600.000 0.000
v -5500.000 4600.000 0.000
v -5500.000 4600.000 0.000
v -5500.000 4600.000 0.000
v -5500.000 4600.000 0.000
v -5500.000 4600.000 0.000
v -5500.000 4600.000 0.000
v -5500.000 4600.000 0.000
v -5500.000 4600.000 0.000
v -5500.000 4600.000 0.000
v -5500.000 4582.000 0.000
v -5493.112 4583.370 0.000
v -5487.272 4587.272 0.000
v -5483.370 4593.112 0.000
v -5482.000 4600.000 0.000
v -5483.370 4606.888 0.000
v -5487.272 4612.728 0.000
v -5493.112 4616.630 0.000
v -5500.000 4618.000 0.000
v -5506.888 4616.630 0.000
v -5512.728 4612.728 0.000
v -5516.630 4606.888 0.000
v -5518.000 4600.000 0.000
v -5516.630 4593.112 0.000
v -5512.728 4587.272 0.000
v -5506.888 4583.370 0.000
v -5500.000 4582.000 0.000
vt 0.00000 1.00000
vt 0.06250 1.00000
vt 0.12500 1.00000
vt 0.18750 1.00000
vt 0.25000 1.00000
vt 0.31250 1.00000
vt 0.37500 1.00000
vt 0.43750 1.00000
vt 0.50000 1.00000
vt 0.56250 1.00000
vt 0.62500 1.00000
vt 0.68750 1.00000
vt 0.75000 1.00000
vt 0.81250 1.00000
vt 0.87500 1.00000
vt 0.93750 1.00000
vt 1.00000 1.00000
vt 0.00000 0.00000
vt 0.06250 0.00000
vt 0.12500 0.00000
vt 0.18750 0.00000
vt 0.25000 0.00000
vt 0.31250 0.00000
vt 0.37500 0.00000
vt 0.43750 0.00000
vt 0.50000 0.00000
vt 0.56250 0.00000
vt 0.62500 0.00000
vt 0.68750 0.00000
vt 0.75000 0.00000
vt 0.81250 0.00000
vt 0.87500 0.00000
vt 0.93750 0.00000
vt 1.00000 0.00000
vt 0.50000 0.50000
vt 0.50000 0.50000
vt 0.50000 0.50000
vt 0.50000 0.50000
vt 0.50000 0.50000
vt 0.50000 0.50000
vt 0.50000 0.50000
vt 0.50000 0.50000
vt 0.50000 0.50000
vt 0.50000 0.50000
vt 0.50000 0.50000
vt 0.50000 0.50000
vt 0.50000 0.50000
vt 0.50000 0.50000
vt 0.50000 0.50000
vt 0.50000 0.50000
vt 1.00000 0.50000
vt 0.96194 0.69134
vt 0.85355 0.85355
vt 0.69134 0.96194
vt 0.50000 1.00000
vt 0.30866 0.96194
vt 0.14645 0.85355
vt 0.03806 0.69134
vt 0.00000 0.50000
vt 0.03806 0.30866
vt 0.14645 0.14645
vt 0.30866 0.03806
vt 0.50000 0.00000
vt 0.69134 0.03806
vt 0.85355 0.14645
vt 0.96194 0.30866
vt 1.00000 0.50000
vt 0.50000 0.50000
vt 0.50000 0.50000
vt 0.50000 0.50000
vt 0.50000 0.50000
vt 0.50000 0.50000
vt 0.50000 0.50000
vt 0.50000 0.50000
vt 0.50000 0.50000
vt 0.50000 0.50000
vt 0.50000 0.50000
vt 0.50000 0.50000
vt 0.50000 0.50000
vt 0.50000 0.50000
vt 0.50000 0.50000
vt 0.50000 0.50000
vt 0.50000 0.50000
vt 1.00000 0.50000
vt 0.96194 0.30866
vt 0.85355 0.14645
vt 0.69134 0.03806
vt 0.50000 0.00000
vt 0.30866 0.03806
vt 0.14645 0.14645
vt 0.03806 0.30866
vt 0.00000 0.50000
vt 0.03806 0.69134
vt 0.14645 0.85355
vt 0.30866 0.96194
vt 0.50000 1.00000
vt 0.69134 0.96194
vt 0.85355 0.85355
vt 0.96194 0.69134
vt 1.00000 0.50000
f 677/677 694/694 678/678
f 694/694 695/695 678/678
f 678/678 695/695 679/679
f 695/695 696/696 679/679
f 679/679 696/696 680/680
f 696/696 697/697 680/680
f 680/680 697/697 681/681
f 697/697 698/698 681/681
f 681/681 698/698 682/682
f 698/698 699/699 682/682
f 682/682 699/699 683/683
f 699/699 700/700 683/683
f 683/683 700/700 684/684
f 700/700 701/701 684/684
f 684/684 701/701 685/685
f 701/701 702/702 685/685
f 685/685 702/702 686/686
f 702/702 703/703 686/686
f 686/686 703/703 687/687
f 703/703 704/704 687/687
f 687/687 704/704 688/688
f 704/704 705/705 688/688
f 688/688 705/705 689/689
f 705/705 706/706 689/689
f 689/689 706/706 690/690
f 706/706 707/707 690/690
f 690/690 707/707 691/691
f 707/707 708/708 691/691
f 691/691 708/708 692/692
f 708/708 709/709 692/692
f 692/692 709/709 693/693
f 709/709 710/710 693/693
f 727/727 728/728 711/711
f 728/728 729/729 712/712
f 729/729 730/730 713/713
f 730/730 731/731 714/714
f 731/731 732/732 715/715
f 732/732 733/733 716/716
f 733/733 734/734 717/717
f 734/734 735/735 718/718
f 735/735 736/736 719/719
f 736/736 737/737 720/720
f 737/737 738/738 721/721
f 738/738 739/739 722/722
f 739/739 740/740 723/723
f 740/740 741/741 724/724
f 741/741 742/742 725/725
f 742/742 743/743 726/726
f 761/761 760/760 744/744
f 762/762 761/761 745/745
f 763/763 762/762 746/746
f 764/764 763/763 747/747
f 765/765 764/764 748/748
f 766/766 765/765 749/749
f 767/767 766/766 750/750
f 768/768 767/767 751/751
f 769/769 768/768 752/752
f 770/770 769/769 753/753
f 771/771 770/770 754/754
f 772/772 771/771 755/755
f 773/773 772/772 756/756
f 774/774 773/773 757/757
f 775/775 774/774 758/758
f 776/776 775/775 759/759