# RoadToF1 authored geometry. Centimetres, Z up.
v -5400.000 8584.000 670.000
v -5393.877 8585.218 670.000
v -5388.686 8588.686 670.000
v -5385.218 8593.877 670.000
v -5384.000 8600.000 670.000
v -5385.218 8606.123 670.000
v -5388.686 8611.314 670.000
v -5393.877 8614.782 670.000
v -5400.000 8616.000 670.000
v -5406.123 8614.782 670.000
v -5411.314 8611.314 670.000
v -5414.782 8606.123 670.000
v -5416.000 8600.000 670.000
v -5414.782 8593.877 670.000
v -5411.314 8588.686 670.000
v -5406.123 8585.218 670.000
v -5400.000 8584.000 670.000
v -5400.000 8584.000 0.000
v -5393.877 8585.218 0.000
v -5388.686 8588.686 0.000
v -5385.218 8593.877 0.000
v -5384.000 8600.000 0.000
v -5385.218 8606.123 0.000
v -5388.686 8611.314 0.000
v -5393.877 8614.782 0.000
v -5400.000 8616.000 0.000
v -5406.123 8614.782 0.000
v -5411.314 8611.314 0.000
v -5414.782 8606.123 0.000
v -5416.000 8600.000 0.000
v -5414.782 8593.877 0.000
v -5411.314 8588.686 0.000
v -5406.123 8585.218 0.000
v -5400.000 8584.000 0.000
v -5400.000 8600.000 670.000
v -5400.000 8600.000 670.000
v -5400.000 8600.000 670.000
v -5400.000 8600.000 670.000
v -5400.000 8600.000 670.000
v -5400.000 8600.000 670.000
v -5400.000 8600.000 670.000
v -5400.000 8600.000 670.000
v -5400.000 8600.000 670.000
v -5400.000 8600.000 670.000
v -5400.000 8600.000 670.000
v -5400.000 8600.000 670.000
v -5400.000 8600.000 670.000
v -5400.000 8600.000 670.000
v -5400.000 8600.000 670.000
v -5400.000 8600.000 670.000
v -5400.000 8584.000 670.000
v -5393.877 8585.218 670.000
v -5388.686 8588.686 670.000
v -5385.218 8593.877 670.000
v -5384.000 8600.000 670.000
v -5385.218 8606.123 670.000
v -5388.686 8611.314 670.000
v -5393.877 8614.782 670.000
v -5400.000 8616.000 670.000
v -5406.123 8614.782 670.000
v -5411.314 8611.314 670.000
v -5414.782 8606.123 670.000
v -5416.000 8600.000 670.000
v -5414.782 8593.877 670.000
v -5411.314 8588.686 670.000
v -5406.123 8585.218 670.000
v -5400.000 8584.000 670.000
v -5400.000 8600.000 0.000
v -5400.000 8600.000 0.000
v -5400.000 8600.000 0.000
v -5400.000 8600.000 0.000
v -5400.000 8600.000 0.000
v -5400.000 8600.000 0.000
v -5400.000 8600.000 0.000
v -5400.000 8600.000 0.000
v -5400.000 8600.000 0.000
v -5400.000 8600.000 0.000
v -5400.000 8600.000 0.000
v -5400.000 8600.000 0.000
v -5400.000 8600.000 0.000
v -5400.000 8600.000 0.000
v -5400.000 8600.000 0.000
v -5400.000 8600.000 0.000
v -5400.000 8584.000 0.000
v -5393.877 8585.218 0.000
v -5388.686 8588.686 0.000
v -5385.218 8593.877 0.000
v -5384.000 8600.000 0.000
v -5385.218 8606.123 0.000
v -5388.686 8611.314 0.000
v -5393.877 8614.782 0.000
v -5400.000 8616.000 0.000
v -5406.123 8614.782 0.000
v -5411.314 8611.314 0.000
v -5414.782 8606.123 0.000
v -5416.000 8600.000 0.000
v -5414.782 8593.877 0.000
v -5411.314 8588.686 0.000
v -5406.123 8585.218 0.000
v -5400.000 8584.000 0.000
vt 0.00000 1.00000
vt 0.06250 1.00000
vt 0.12500 1.00000
vt 0.18750 1.00000
vt 0.25000 1.00000
vt 0.31250 1.00000
vt 0.37500 1.00000
vt 0.43750 1.00000
vt 0.50000 1.00000
vt 0.56250 1.00000
vt 0.62500 1.00000
vt 0.68750 1.00000
vt 0.75000 1.00000
vt 0.81250 1.00000
vt 0.87500 1.00000
vt 0.93750 1.00000
vt 1.00000 1.00000
vt 0.00000 0.00000
vt 0.06250 0.00000
vt 0.12500 0.00000
vt 0.18750 0.00000
vt 0.25000 0.00000
vt 0.31250 0.00000
vt 0.37500 0.00000
vt 0.43750 0.00000
vt 0.50000 0.00000
vt 0.56250 0.00000
vt 0.62500 0.00000
vt 0.68750 0.00000
vt 0.75000 0.00000
vt 0.81250 0.00000
vt 0.87500 0.00000
vt 0.93750 0.00000
vt 1.00000 0.00000
vt 0.50000 0.50000
vt 0.50000 0.50000
vt 0.50000 0.50000
vt 0.50000 0.50000
vt 0.50000 0.50000
vt 0.50000 0.50000
vt 0.50000 0.50000
vt 0.50000 0.50000
vt 0.50000 0.50000
vt 0.50000 0.50000
vt 0.50000 0.50000
vt 0.50000 0.50000
vt 0.50000 0.50000
vt 0.50000 0.50000
vt 0.50000 0.50000
vt 0.50000 0.50000
vt 1.00000 0.50000
vt 0.96194 0.69134
vt 0.85355 0.85355
vt 0.69134 0.96194
vt 0.50000 1.00000
vt 0.30866 0.96194
vt 0.14645 0.85355
vt 0.03806 0.69134
vt 0.00000 0.50000
vt 0.03806 0.30866
vt 0.14645 0.14645
vt 0.30866 0.03806
vt 0.50000 0.00000
vt 0.69134 0.03806
vt 0.85355 0.14645
vt 0.96194 0.30866
vt 1.00000 0.50000
vt 0.50000 0.50000
vt 0.50000 0.50000
vt 0.50000 0.50000
vt 0.50000 0.50000
vt 0.50000 0.50000
vt 0.50000 0.50000
vt 0.50000 0.50000
vt 0.50000 0.50000
vt 0.50000 0.50000
vt 0.50000 0.50000
vt 0.50000 0.50000
vt 0.50000 0.50000
vt 0.50000 0.50000
vt 0.50000 0.50000
vt 0.50000 0.50000
vt 0.50000 0.50000
vt 1.00000 0.50000
vt 0.96194 0.30866
vt 0.85355 0.14645
vt 0.69134 0.03806
vt 0.50000 0.00000
vt 0.30866 0.03806
vt 0.14645 0.14645
vt 0.03806 0.30866
vt 0.00000 0.50000
vt 0.03806 0.69134
vt 0.14645 0.85355
vt 0.30866 0.96194
vt 0.50000 1.00000
vt 0.69134 0.96194
vt 0.85355 0.85355
vt 0.96194 0.69134
vt 1.00000 0.50000
f 1/1 18/18 2/2
f 18/18 19/19 2/2
f 2/2 19/19 3/3
f 19/19 20/20 3/3
f 3/3 20/20 4/4
f 20/20 21/21 4/4
f 4/4 21/21 5/5
f 21/21 22/22 5/5
f 5/5 22/22 6/6
f 22/22 23/23 6/6
f 6/6 23/23 7/7
f 23/23 24/24 7/7
f 7/7 24/24 8/8
f 24/24 25/25 8/8
f 8/8 25/25 9/9
f 25/25 26/26 9/9
f 9/9 26/26 10/10
f 26/26 27/27 10/10
f 10/10 27/27 11/11
f 27/27 28/28 11/11
f 11/11 28/28 12/12
f 28/28 29/29 12/12
f 12/12 29/29 13/13
f 29/29 30/30 13/13
f 13/13 30/30 14/14
f 30/30 31/31 14/14
f 14/14 31/31 15/15
f 31/31 32/32 15/15
f 15/15 32/32 16/16
f 32/32 33/33 16/16
f 16/16 33/33 17/17
f 33/33 34/34 17/17
f 51/51 52/52 35/35
f 52/52 53/53 36/36
f 53/53 54/54 37/37
f 54/54 55/55 38/38
f 55/55 56/56 39/39
f 56/56 57/57 40/40
f 57/57 58/58 41/41
f 58/58 59/59 42/42
f 59/59 60/60 43/43
f 60/60 61/61 44/44
f 61/61 62/62 45/45
f 62/62 63/63 46/46
f 63/63 64/64 47/47
f 64/64 65/65 48/48
f 65/65 66/66 49/49
f 66/66 67/67 50/50
f 85/85 84/84 68/68
f 86/86 85/85 69/69
f 87/87 86/86 70/70
f 88/88 87/87 71/71
f 89/89 88/88 72/72
f 90/90 89/89 73/73
f 91/91 90/90 74/74
f 92/92 91/91 75/75
f 93/93 92/92 76/76
f 94/94 93/93 77/77
f 95/95 94/94 78/78
f 96/96 95/95 79/79
f 97/97 96/96 80/80
f 98/98 97/97 81/81
f 99/99 98/98 82/82
f 100/100 99/99 83/83
v -2700.000 8584.000 670.000
v -2693.877 8585.218 670.000
v -2688.686 8588.686 670.000
v -2685.218 8593.877 670.000
v -2684.000 8600.000 670.000
v -2685.218 8606.123 670.000
v -2688.686 8611.314 670.000
v -2693.877 8614.782 670.000
v -2700.000 8616.000 670.000
v -2706.123 8614.782 670.000
v -2711.314 8611.314 670.000
v -2714.782 8606.123 670.000
v -2716.000 8600.000 670.000
v -2714.782 8593.877 670.000
v -2711.314 8588.686 670.000
v -2706.123 8585.218 670.000
v -2700.000 8584.000 670.000
v -2700.000 8584.000 0.000
v -2693.877 8585.218 0.000
v -2688.686 8588.686 0.000
v -2685.218 8593.877 0.000
v -2684.000 8600.000 0.000
v -2685.218 8606.123 0.000
v -2688.686 8611.314 0.000
v -2693.877 8614.782 0.000
v -2700.000 8616.000 0.000
v -2706.123 8614.782 0.000
v -2711.314 8611.314 0.000
v -2714.782 8606.123 0.000
v -2716.000 8600.000 0.000
v -2714.782 8593.877 0.000
v -2711.314 8588.686 0.000
v -2706.123 8585.218 0.000
v -2700.000 8584.000 0.000
v -2700.000 8600.000 670.000
v -2700.000 8600.000 670.000
v -2700.000 8600.000 670.000
v -2700.000 8600.000 670.000
v -2700.000 8600.000 670.000
v -2700.000 8600.000 670.000
v -2700.000 8600.000 670.000
v -2700.000 8600.000 670.000
v -2700.000 8600.000 670.000
v -2700.000 8600.000 670.000
v -2700.000 8600.000 670.000
v -2700.000 8600.000 670.000
v -2700.000 8600.000 670.000
v -2700.000 8600.000 670.000
v -2700.000 8600.000 670.000
v -2700.000 8600.000 670.000
v -2700.000 8584.000 670.000
v -2693.877 8585.218 670.000
v -2688.686 8588.686 670.000
v -2685.218 8593.877 670.000
v -2684.000 8600.000 670.000
v -2685.218 8606.123 670.000
v -2688.686 8611.314 670.000
v -2693.877 8614.782 670.000
v -2700.000 8616.000 670.000
v -2706.123 8614.782 670.000
v -2711.314 8611.314 670.000
v -2714.782 8606.123 670.000
v -2716.000 8600.000 670.000
v -2714.782 8593.877 670.000
v -2711.314 8588.686 670.000
v -2706.123 8585.218 670.000
v -2700.000 8584.000 670.000
v -2700.000 8600.000 0.000
v -2700.000 8600.000 0.000
v -2700.000 8600.000 0.000
v -2700.000 8600.000 0.000
v -2700.000 8600.000 0.000
v -2700.000 8600.000 0.000
v -2700.000 8600.000 0.000
v -2700.000 8600.000 0.000
v -2700.000 8600.000 0.000
v -2700.000 8600.000 0.000
v -2700.000 8600.000 0.000
v -2700.000 8600.000 0.000
v -2700.000 8600.000 0.000
v -2700.000 8600.000 0.000
v -2700.000 8600.000 0.000
v -2700.000 8600.000 0.000
v -2700.000 8584.000 0.000
v -2693.877 8585.218 0.000
v -2688.686 8588.686 0.000
v -2685.218 8593.877 0.000
v -2684.000 8600.000 0.000
v -2685.218 8606.123 0.000
v -2688.686 8611.314 0.000
v -2693.877 8614.782 0.000
v -2700.000 8616.000 0.000
v -2706.123 8614.782 0.000
v -2711.314 8611.314 0.000
v -2714.782 8606.123 0.000
v -2716.000 8600.000 0.000
v -2714.782 8593.877 0.000
v -2711.314 8588.686 0.000
v -2706.123 8585.218 0.000
v -2700.000 8584.000 0.000
vt 0.00000 1.00000
vt 0.06250 1.00000
vt 0.12500 1.00000
vt 0.18750 1.00000
vt 0.25000 1.00000
vt 0.31250 1.00000
vt 0.37500 1.00000
vt 0.43750 1.00000
vt 0.50000 1.00000
vt 0.56250 1.00000
vt 0.62500 1.00000
vt 0.68750 1.00000
vt 0.75000 1.00000
vt 0.81250 1.00000
vt 0.87500 1.00000
vt 0.93750 1.00000
vt 1.00000 1.00000
vt 0.00000 0.00000
vt 0.06250 0.00000
vt 0.12500 0.00000
vt 0.18750 0.00000
vt 0.25000 0.00000
vt 0.31250 0.00000
vt 0.37500 0.00000
vt 0.43750 0.00000
vt 0.50000 0.00000
vt 0.56250 0.00000
vt 0.62500 0.00000
vt 0.68750 0.00000
vt 0.75000 0.00000
vt 0.81250 0.00000
vt 0.87500 0.00000
vt 0.93750 0.00000
vt 1.00000 0.00000
vt 0.50000 0.50000
vt 0.50000 0.50000
vt 0.50000 0.50000
vt 0.50000 0.50000
vt 0.50000 0.50000
vt 0.50000 0.50000
vt 0.50000 0.50000
vt 0.50000 0.50000
vt 0.50000 0.50000
vt 0.50000 0.50000
vt 0.50000 0.50000
vt 0.50000 0.50000
vt 0.50000 0.50000
vt 0.50000 0.50000
vt 0.50000 0.50000
vt 0.50000 0.50000
vt 1.00000 0.50000
vt 0.96194 0.69134
vt 0.85355 0.85355
vt 0.69134 0.96194
vt 0.50000 1.00000
vt 0.30866 0.96194
vt 0.14645 0.85355
vt 0.03806 0.69134
vt 0.00000 0.50000
vt 0.03806 0.30866
vt 0.14645 0.14645
vt 0.30866 0.03806
vt 0.50000 0.00000
vt 0.69134 0.03806
vt 0.85355 0.14645
vt 0.96194 0.30866
vt 1.00000 0.50000
vt 0.50000 0.50000
vt 0.50000 0.50000
vt 0.50000 0.50000
vt 0.50000 0.50000
vt 0.50000 0.50000
vt 0.50000 0.50000
vt 0.50000 0.50000
vt 0.50000 0.50000
vt 0.50000 0.50000
vt 0.50000 0.50000
vt 0.50000 0.50000
vt 0.50000 0.50000
vt 0.50000 0.50000
vt 0.50000 0.50000
vt 0.50000 0.50000
vt 0.50000 0.50000
vt 1.00000 0.50000
vt 0.96194 0.30866
vt 0.85355 0.14645
vt 0.69134 0.03806
vt 0.50000 0.00000
vt 0.30866 0.03806
vt 0.14645 0.14645
vt 0.03806 0.30866
vt 0.00000 0.50000
vt 0.03806 0.69134
vt 0.14645 0.85355
vt 0.30866 0.96194
vt 0.50000 1.00000
vt 0.69134 0.96194
vt 0.85355 0.85355
vt 0.96194 0.69134
vt 1.00000 0.50000
f 101/101 118/118 102/102
f 118/118 119/119 102/102
f 102/102 119/119 103/103
f 119/119 120/120 103/103
f 103/103 120/120 104/104
f 120/120 121/121 104/104
f 104/104 121/121 105/105
f 121/121 122/122 105/105
f 105/105 122/122 106/106
f 122/122 123/123 106/106
f 106/106 123/123 107/107
f 123/123 124/124 107/107
f 107/107 124/124 108/108
f 124/124 125/125 108/108
f 108/108 125/125 109/109
f 125/125 126/126 109/109
f 109/109 126/126 110/110
f 126/126 127/127 110/110
f 110/110 127/127 111/111
f 127/127 128/128 111/111
f 111/111 128/128 112/112
f 128/128 129/129 112/112
f 112/112 129/129 113/113
f 129/129 130/130 113/113
f 113/113 130/130 114/114
f 130/130 131/131 114/114
f 114/114 131/131 115/115
f 131/131 132/132 115/115
f 115/115 132/132 116/116
f 132/132 133/133 116/116
f 116/116 133/133 117/117
f 133/133 134/134 117/117
f 151/151 152/152 135/135
f 152/152 153/153 136/136
f 153/153 154/154 137/137
f 154/154 155/155 138/138
f 155/155 156/156 139/139
f 156/156 157/157 140/140
f 157/157 158/158 141/141
f 158/158 159/159 142/142
f 159/159 160/160 143/143
f 160/160 161/161 144/144
f 161/161 162/162 145/145
f 162/162 163/163 146/146
f 163/163 164/164 147/147
f 164/164 165/165 148/148
f 165/165 166/166 149/149
f 166/166 167/167 150/150
f 185/185 184/184 168/168
f 186/186 185/185 169/169
f 187/187 186/186 170/170
f 188/188 187/187 171/171
f 189/189 188/188 172/172
f 190/190 189/189 173/173
f 191/191 190/190 174/174
f 192/192 191/191 175/175
f 193/193 192/192 176/176
f 194/194 193/193 177/177
f 195/195 194/194 178/178
f 196/196 195/195 179/179
f 197/197 196/196 180/180
f 198/198 197/197 181/181
f 199/199 198/198 182/182
f 200/200 199/199 183/183
v 0.000 8584.000 670.000
v 6.123 8585.218 670.000
v 11.314 8588.686 670.000
v 14.782 8593.877 670.000
v 16.000 8600.000 670.000
v 14.782 8606.123 670.000
v 11.314 8611.314 670.000
v 6.123 8614.782 670.000
v 0.000 8616.000 670.000
v -6.123 8614.782 670.000
v -11.314 8611.314 670.000
v -14.782 8606.123 670.000
v -16.000 8600.000 670.000
v -14.782 8593.877 670.000
v -11.314 8588.686 670.000
v -6.123 8585.218 670.000
v -0.000 8584.000 670.000
v 0.000 8584.000 0.000
v 6.123 8585.218 0.000
v 11.314 8588.686 0.000
v 14.782 8593.877 0.000
v 16.000 8600.000 0.000
v 14.782 8606.123 0.000
v 11.314 8611.314 0.000
v 6.123 8614.782 0.000
v 0.000 8616.000 0.000
v -6.123 8614.782 0.000
v -11.314 8611.314 0.000
v -14.782 8606.123 0.000
v -16.000 8600.000 0.000
v -14.782 8593.877 0.000
v -11.314 8588.686 0.000
v -6.123 8585.218 0.000
v -0.000 8584.000 0.000
v 0.000 8600.000 670.000
v 0.000 8600.000 670.000
v 0.000 8600.000 670.000
v 0.000 8600.000 670.000
v 0.000 8600.000 670.000
v 0.000 8600.000 670.000
v 0.000 8600.000 670.000
v 0.000 8600.000 670.000
v 0.000 8600.000 670.000
v 0.000 8600.000 670.000
v 0.000 8600.000 670.000
v 0.000 8600.000 670.000
v 0.000 8600.000 670.000
v 0.000 8600.000 670.000
v 0.000 8600.000 670.000
v 0.000 8600.000 670.000
v 0.000 8584.000 670.000
v 6.123 8585.218 670.000
v 11.314 8588.686 670.000
v 14.782 8593.877 670.000
v 16.000 8600.000 670.000
v 14.782 8606.123 670.000
v 11.314 8611.314 670.000
v 6.123 8614.782 670.000
v 0.000 8616.000 670.000
v -6.123 8614.782 670.000
v -11.314 8611.314 670.000
v -14.782 8606.123 670.000
v -16.000 8600.000 670.000
v -14.782 8593.877 670.000
v -11.314 8588.686 670.000
v -6.123 8585.218 670.000
v -0.000 8584.000 670.000
v 0.000 8600.000 0.000
v 0.000 8600.000 0.000
v 0.000 8600.000 0.000
v 0.000 8600.000 0.000
v 0.000 8600.000 0.000
v 0.000 8600.000 0.000
v 0.000 8600.000 0.000
v 0.000 8600.000 0.000
v 0.000 8600.000 0.000
v 0.000 8600.000 0.000
v 0.000 8600.000 0.000
v 0.000 8600.000 0.000
v 0.000 8600.000 0.000
v 0.000 8600.000 0.000
v 0.000 8600.000 0.000
v 0.000 8600.000 0.000
v 0.000 8584.000 0.000
v 6.123 8585.218 0.000
v 11.314 8588.686 0.000
v 14.782 8593.877 0.000
v 16.000 8600.000 0.000
v 14.782 8606.123 0.000
v 11.314 8611.314 0.000
v 6.123 8614.782 0.000
v 0.000 8616.000 0.000
v -6.123 8614.782 0.000
v -11.314 8611.314 0.000
v -14.782 8606.123 0.000
v -16.000 8600.000 0.000
v -14.782 8593.877 0.000
v -11.314 8588.686 0.000
v -6.123 8585.218 0.000
v -0.000 8584.000 0.000
vt 0.00000 1.00000
vt 0.06250 1.00000
vt 0.12500 1.00000
vt 0.18750 1.00000
vt 0.25000 1.00000
vt 0.31250 1.00000
vt 0.37500 1.00000
vt 0.43750 1.00000
vt 0.50000 1.00000
vt 0.56250 1.00000
vt 0.62500 1.00000
vt 0.68750 1.00000
vt 0.75000 1.00000
vt 0.81250 1.00000
vt 0.87500 1.00000
vt 0.93750 1.00000
vt 1.00000 1.00000
vt 0.00000 0.00000
vt 0.06250 0.00000
vt 0.12500 0.00000
vt 0.18750 0.00000
vt 0.25000 0.00000
vt 0.31250 0.00000
vt 0.37500 0.00000
vt 0.43750 0.00000
vt 0.50000 0.00000
vt 0.56250 0.00000
vt 0.62500 0.00000
vt 0.68750 0.00000
vt 0.75000 0.00000
vt 0.81250 0.00000
vt 0.87500 0.00000
vt 0.93750 0.00000
vt 1.00000 0.00000
vt 0.50000 0.50000
vt 0.50000 0.50000
vt 0.50000 0.50000
vt 0.50000 0.50000
vt 0.50000 0.50000
vt 0.50000 0.50000
vt 0.50000 0.50000
vt 0.50000 0.50000
vt 0.50000 0.50000
vt 0.50000 0.50000
vt 0.50000 0.50000
vt 0.50000 0.50000
vt 0.50000 0.50000
vt 0.50000 0.50000
vt 0.50000 0.50000
vt 0.50000 0.50000
vt 1.00000 0.50000
vt 0.96194 0.69134
vt 0.85355 0.85355
vt 0.69134 0.96194
vt 0.50000 1.00000
vt 0.30866 0.96194
vt 0.14645 0.85355
vt 0.03806 0.69134
vt 0.00000 0.50000
vt 0.03806 0.30866
vt 0.14645 0.14645
vt 0.30866 0.03806
vt 0.50000 0.00000
vt 0.69134 0.03806
vt 0.85355 0.14645
vt 0.96194 0.30866
vt 1.00000 0.50000
vt 0.50000 0.50000
vt 0.50000 0.50000
vt 0.50000 0.50000
vt 0.50000 0.50000
vt 0.50000 0.50000
vt 0.50000 0.50000
vt 0.50000 0.50000
vt 0.50000 0.50000
vt 0.50000 0.50000
vt 0.50000 0.50000
vt 0.50000 0.50000
vt 0.50000 0.50000
vt 0.50000 0.50000
vt 0.50000 0.50000
vt 0.50000 0.50000
vt 0.50000 0.50000
vt 1.00000 0.50000
vt 0.96194 0.30866
vt 0.85355 0.14645
vt 0.69134 0.03806
vt 0.50000 0.00000
vt 0.30866 0.03806
vt 0.14645 0.14645
vt 0.03806 0.30866
vt 0.00000 0.50000
vt 0.03806 0.69134
vt 0.14645 0.85355
vt 0.30866 0.96194
vt 0.50000 1.00000
vt 0.69134 0.96194
vt 0.85355 0.85355
vt 0.96194 0.69134
vt 1.00000 0.50000
f 201/201 218/218 202/202
f 218/218 219/219 202/202
f 202/202 219/219 203/203
f 219/219 220/220 203/203
f 203/203 220/220 204/204
f 220/220 221/221 204/204
f 204/204 221/221 205/205
f 221/221 222/222 205/205
f 205/205 222/222 206/206
f 222/222 223/223 206/206
f 206/206 223/223 207/207
f 223/223 224/224 207/207
f 207/207 224/224 208/208
f 224/224 225/225 208/208
f 208/208 225/225 209/209
f 225/225 226/226 209/209
f 209/209 226/226 210/210
f 226/226 227/227 210/210
f 210/210 227/227 211/211
f 227/227 228/228 211/211
f 211/211 228/228 212/212
f 228/228 229/229 212/212
f 212/212 229/229 213/213
f 229/229 230/230 213/213
f 213/213 230/230 214/214
f 230/230 231/231 214/214
f 214/214 231/231 215/215
f 231/231 232/232 215/215
f 215/215 232/232 216/216
f 232/232 233/233 216/216
f 216/216 233/233 217/217
f 233/233 234/234 217/217
f 251/251 252/252 235/235
f 252/252 253/253 236/236
f 253/253 254/254 237/237
f 254/254 255/255 238/238
f 255/255 256/256 239/239
f 256/256 257/257 240/240
f 257/257 258/258 241/241
f 258/258 259/259 242/242
f 259/259 260/260 243/243
f 260/260 261/261 244/244
f 261/261 262/262 245/245
f 262/262 263/263 246/246
f 263/263 264/264 247/247
f 264/264 265/265 248/248
f 265/265 266/266 249/249
f 266/266 267/267 250/250
f 285/285 284/284 268/268
f 286/286 285/285 269/269
f 287/287 286/286 270/270
f 288/288 287/287 271/271
f 289/289 288/288 272/272
f 290/290 289/289 273/273
f 291/291 290/290 274/274
f 292/292 291/291 275/275
f 293/293 292/292 276/276
f 294/294 293/293 277/277
f 295/295 294/294 278/278
f 296/296 295/295 279/279
f 297/297 296/296 280/280
f 298/298 297/297 281/281
f 299/299 298/298 282/282
f 300/300 299/299 283/283
v 2700.000 8584.000 670.000
v 2706.123 8585.218 670.000
v 2711.314 8588.686 670.000
v 2714.782 8593.877 670.000
v 2716.000 8600.000 670.000
v 2714.782 8606.123 670.000
v 2711.314 8611.314 670.000
v 2706.123 8614.782 670.000
v 2700.000 8616.000 670.000
v 2693.877 8614.782 670.000
v 2688.686 8611.314 670.000
v 2685.218 8606.123 670.000
v 2684.000 8600.000 670.000
v 2685.218 8593.877 670.000
v 2688.686 8588.686 670.000
v 2693.877 8585.218 670.000
v 2700.000 8584.000 670.000
v 2700.000 8584.000 0.000
v 2706.123 8585.218 0.000
v 2711.314 8588.686 0.000
v 2714.782 8593.877 0.000
v 2716.000 8600.000 0.000
v 2714.782 8606.123 0.000
v 2711.314 8611.314 0.000
v 2706.123 8614.782 0.000
v 2700.000 8616.000 0.000
v 2693.877 8614.782 0.000
v 2688.686 8611.314 0.000
v 2685.218 8606.123 0.000
v 2684.000 8600.000 0.000
v 2685.218 8593.877 0.000
v 2688.686 8588.686 0.000
v 2693.877 8585.218 0.000
v 2700.000 8584.000 0.000
v 2700.000 8600.000 670.000
v 2700.000 8600.000 670.000
v 2700.000 8600.000 670.000
v 2700.000 8600.000 670.000
v 2700.000 8600.000 670.000
v 2700.000 8600.000 670.000
v 2700.000 8600.000 670.000
v 2700.000 8600.000 670.000
v 2700.000 8600.000 670.000
v 2700.000 8600.000 670.000
v 2700.000 8600.000 670.000
v 2700.000 8600.000 670.000
v 2700.000 8600.000 670.000
v 2700.000 8600.000 670.000
v 2700.000 8600.000 670.000
v 2700.000 8600.000 670.000
v 2700.000 8584.000 670.000
v 2706.123 8585.218 670.000
v 2711.314 8588.686 670.000
v 2714.782 8593.877 670.000
v 2716.000 8600.000 670.000
v 2714.782 8606.123 670.000
v 2711.314 8611.314 670.000
v 2706.123 8614.782 670.000
v 2700.000 8616.000 670.000
v 2693.877 8614.782 670.000
v 2688.686 8611.314 670.000
v 2685.218 8606.123 670.000
v 2684.000 8600.000 670.000
v 2685.218 8593.877 670.000
v 2688.686 8588.686 670.000
v 2693.877 8585.218 670.000
v 2700.000 8584.000 670.000
v 2700.000 8600.000 0.000
v 2700.000 8600.000 0.000
v 2700.000 8600.000 0.000
v 2700.000 8600.000 0.000
v 2700.000 8600.000 0.000
v 2700.000 8600.000 0.000
v 2700.000 8600.000 0.000
v 2700.000 8600.000 0.000
v 2700.000 8600.000 0.000
v 2700.000 8600.000 0.000
v 2700.000 8600.000 0.000
v 2700.000 8600.000 0.000
v 2700.000 8600.000 0.000
v 2700.000 8600.000 0.000
v 2700.000 8600.000 0.000
v 2700.000 8600.000 0.000
v 2700.000 8584.000 0.000
v 2706.123 8585.218 0.000
v 2711.314 8588.686 0.000
v 2714.782 8593.877 0.000
v 2716.000 8600.000 0.000
v 2714.782 8606.123 0.000
v 2711.314 8611.314 0.000
v 2706.123 8614.782 0.000
v 2700.000 8616.000 0.000
v 2693.877 8614.782 0.000
v 2688.686 8611.314 0.000
v 2685.218 8606.123 0.000
v 2684.000 8600.000 0.000
v 2685.218 8593.877 0.000
v 2688.686 8588.686 0.000
v 2693.877 8585.218 0.000
v 2700.000 8584.000 0.000
vt 0.00000 1.00000
vt 0.06250 1.00000
vt 0.12500 1.00000
vt 0.18750 1.00000
vt 0.25000 1.00000
vt 0.31250 1.00000
vt 0.37500 1.00000
vt 0.43750 1.00000
vt 0.50000 1.00000
vt 0.56250 1.00000
vt 0.62500 1.00000
vt 0.68750 1.00000
vt 0.75000 1.00000
vt 0.81250 1.00000
vt 0.87500 1.00000
vt 0.93750 1.00000
vt 1.00000 1.00000
vt 0.00000 0.00000
vt 0.06250 0.00000
vt 0.12500 0.00000
vt 0.18750 0.00000
vt 0.25000 0.00000
vt 0.31250 0.00000
vt 0.37500 0.00000
vt 0.43750 0.00000
vt 0.50000 0.00000
vt 0.56250 0.00000
vt 0.62500 0.00000
vt 0.68750 0.00000
vt 0.75000 0.00000
vt 0.81250 0.00000
vt 0.87500 0.00000
vt 0.93750 0.00000
vt 1.00000 0.00000
vt 0.50000 0.50000
vt 0.50000 0.50000
vt 0.50000 0.50000
vt 0.50000 0.50000
vt 0.50000 0.50000
vt 0.50000 0.50000
vt 0.50000 0.50000
vt 0.50000 0.50000
vt 0.50000 0.50000
vt 0.50000 0.50000
vt 0.50000 0.50000
vt 0.50000 0.50000
vt 0.50000 0.50000
vt 0.50000 0.50000
vt 0.50000 0.50000
vt 0.50000 0.50000
vt 1.00000 0.50000
vt 0.96194 0.69134
vt 0.85355 0.85355
vt 0.69134 0.96194
vt 0.50000 1.00000
vt 0.30866 0.96194
vt 0.14645 0.85355
vt 0.03806 0.69134
vt 0.00000 0.50000
vt 0.03806 0.30866
vt 0.14645 0.14645
vt 0.30866 0.03806
vt 0.50000 0.00000
vt 0.69134 0.03806
vt 0.85355 0.14645
vt 0.96194 0.30866
vt 1.00000 0.50000
vt 0.50000 0.50000
vt 0.50000 0.50000
vt 0.50000 0.50000
vt 0.50000 0.50000
vt 0.50000 0.50000
vt 0.50000 0.50000
vt 0.50000 0.50000
vt 0.50000 0.50000
vt 0.50000 0.50000
vt 0.50000 0.50000
vt 0.50000 0.50000
vt 0.50000 0.50000
vt 0.50000 0.50000
vt 0.50000 0.50000
vt 0.50000 0.50000
vt 0.50000 0.50000
vt 1.00000 0.50000
vt 0.96194 0.30866
vt 0.85355 0.14645
vt 0.69134 0.03806
vt 0.50000 0.00000
vt 0.30866 0.03806
vt 0.14645 0.14645
vt 0.03806 0.30866
vt 0.00000 0.50000
vt 0.03806 0.69134
vt 0.14645 0.85355
vt 0.30866 0.96194
vt 0.50000 1.00000
vt 0.69134 0.96194
vt 0.85355 0.85355
vt 0.96194 0.69134
vt 1.00000 0.50000
f 301/301 318/318 302/302
f 318/318 319/319 302/302
f 302/302 319/319 303/303
f 319/319 320/320 303/303
f 303/303 320/320 304/304
f 320/320 321/321 304/304
f 304/304 321/321 305/305
f 321/321 322/322 305/305
f 305/305 322/322 306/306
f 322/322 323/323 306/306
f 306/306 323/323 307/307
f 323/323 324/324 307/307
f 307/307 324/324 308/308
f 324/324 325/325 308/308
f 308/308 325/325 309/309
f 325/325 326/326 309/309
f 309/309 326/326 310/310
f 326/326 327/327 310/310
f 310/310 327/327 311/311
f 327/327 328/328 311/311
f 311/311 328/328 312/312
f 328/328 329/329 312/312
f 312/312 329/329 313/313
f 329/329 330/330 313/313
f 313/313 330/330 314/314
f 330/330 331/331 314/314
f 314/314 331/331 315/315
f 331/331 332/332 315/315
f 315/315 332/332 316/316
f 332/332 333/333 316/316
f 316/316 333/333 317/317
f 333/333 334/334 317/317
f 351/351 352/352 335/335
f 352/352 353/353 336/336
f 353/353 354/354 337/337
f 354/354 355/355 338/338
f 355/355 356/356 339/339
f 356/356 357/357 340/340
f 357/357 358/358 341/341
f 358/358 359/359 342/342
f 359/359 360/360 343/343
f 360/360 361/361 344/344
f 361/361 362/362 345/345
f 362/362 363/363 346/346
f 363/363 364/364 347/347
f 364/364 365/365 348/348
f 365/365 366/366 349/349
f 366/366 367/367 350/350
f 385/385 384/384 368/368
f 386/386 385/385 369/369
f 387/387 386/386 370/370
f 388/388 387/387 371/371
f 389/389 388/388 372/372
f 390/390 389/389 373/373
f 391/391 390/390 374/374
f 392/392 391/391 375/375
f 393/393 392/392 376/376
f 394/394 393/393 377/377
f 395/395 394/394 378/378
f 396/396 395/395 379/379
f 397/397 396/396 380/380
f 398/398 397/397 381/381
f 399/399 398/398 382/382
f 400/400 399/399 383/383
v 5400.000 8584.000 670.000
v 5406.123 8585.218 670.000
v 5411.314 8588.686 670.000
v 5414.782 8593.877 670.000
v 5416.000 8600.000 670.000
v 5414.782 8606.123 670.000
v 5411.314 8611.314 670.000
v 5406.123 8614.782 670.000
v 5400.000 8616.000 670.000
v 5393.877 8614.782 670.000
v 5388.686 8611.314 670.000
v 5385.218 8606.123 670.000
v 5384.000 8600.000 670.000
v 5385.218 8593.877 670.000
v 5388.686 8588.686 670.000
v 5393.877 8585.218 670.000
v 5400.000 8584.000 670.000
v 5400.000 8584.000 0.000
v 5406.123 8585.218 0.000
v 5411.314 8588.686 0.000
v 5414.782 8593.877 0.000
v 5416.000 8600.000 0.000
v 5414.782 8606.123 0.000
v 5411.314 8611.314 0.000
v 5406.123 8614.782 0.000
v 5400.000 8616.000 0.000
v 5393.877 8614.782 0.000
v 5388.686 8611.314 0.000
v 5385.218 8606.123 0.000
v 5384.000 8600.000 0.000
v 5385.218 8593.877 0.000
v 5388.686 8588.686 0.000
v 5393.877 8585.218 0.000
v 5400.000 8584.000 0.000
v 5400.000 8600.000 670.000
v 5400.000 8600.000 670.000
v 5400.000 8600.000 670.000
v 5400.000 8600.000 670.000
v 5400.000 8600.000 670.000
v 5400.000 8600.000 670.000
v 5400.000 8600.000 670.000
v 5400.000 8600.000 670.000
v 5400.000 8600.000 670.000
v 5400.000 8600.000 670.000
v 5400.000 8600.000 670.000
v 5400.000 8600.000 670.000
v 5400.000 8600.000 670.000
v 5400.000 8600.000 670.000
v 5400.000 8600.000 670.000
v 5400.000 8600.000 670.000
v 5400.000 8584.000 670.000
v 5406.123 8585.218 670.000
v 5411.314 8588.686 670.000
v 5414.782 8593.877 670.000
v 5416.000 8600.000 670.000
v 5414.782 8606.123 670.000
v 5411.314 8611.314 670.000
v 5406.123 8614.782 670.000
v 5400.000 8616.000 670.000
v 5393.877 8614.782 670.000
v 5388.686 8611.314 670.000
v 5385.218 8606.123 670.000
v 5384.000 8600.000 670.000
v 5385.218 8593.877 670.000
v 5388.686 8588.686 670.000
v 5393.877 8585.218 670.000
v 5400.000 8584.000 670.000
v 5400.000 8600.000 0.000
v 5400.000 8600.000 0.000
v 5400.000 8600.000 0.000
v 5400.000 8600.000 0.000
v 5400.000 8600.000 0.000
v 5400.000 8600.000 0.000
v 5400.000 8600.000 0.000
v 5400.000 8600.000 0.000
v 5400.000 8600.000 0.000
v 5400.000 8600.000 0.000
v 5400.000 8600.000 0.000
v 5400.000 8600.000 0.000
v 5400.000 8600.000 0.000
v 5400.000 8600.000 0.000
v 5400.000 8600.000 0.000
v 5400.000 8600.000 0.000
v 5400.000 8584.000 0.000
v 5406.123 8585.218 0.000
v 5411.314 8588.686 0.000
v 5414.782 8593.877 0.000
v 5416.000 8600.000 0.000
v 5414.782 8606.123 0.000
v 5411.314 8611.314 0.000
v 5406.123 8614.782 0.000
v 5400.000 8616.000 0.000
v 5393.877 8614.782 0.000
v 5388.686 8611.314 0.000
v 5385.218 8606.123 0.000
v 5384.000 8600.000 0.000
v 5385.218 8593.877 0.000
v 5388.686 8588.686 0.000
v 5393.877 8585.218 0.000
v 5400.000 8584.000 0.000
vt 0.00000 1.00000
vt 0.06250 1.00000
vt 0.12500 1.00000
vt 0.18750 1.00000
vt 0.25000 1.00000
vt 0.31250 1.00000
vt 0.37500 1.00000
vt 0.43750 1.00000
vt 0.50000 1.00000
vt 0.56250 1.00000
vt 0.62500 1.00000
vt 0.68750 1.00000
vt 0.75000 1.00000
vt 0.81250 1.00000
vt 0.87500 1.00000
vt 0.93750 1.00000
vt 1.00000 1.00000
vt 0.00000 0.00000
vt 0.06250 0.00000
vt 0.12500 0.00000
vt 0.18750 0.00000
vt 0.25000 0.00000
vt 0.31250 0.00000
vt 0.37500 0.00000
vt 0.43750 0.00000
vt 0.50000 0.00000
vt 0.56250 0.00000
vt 0.62500 0.00000
vt 0.68750 0.00000
vt 0.75000 0.00000
vt 0.81250 0.00000
vt 0.87500 0.00000
vt 0.93750 0.00000
vt 1.00000 0.00000
vt 0.50000 0.50000
vt 0.50000 0.50000
vt 0.50000 0.50000
vt 0.50000 0.50000
vt 0.50000 0.50000
vt 0.50000 0.50000
vt 0.50000 0.50000
vt 0.50000 0.50000
vt 0.50000 0.50000
vt 0.50000 0.50000
vt 0.50000 0.50000
vt 0.50000 0.50000
vt 0.50000 0.50000
vt 0.50000 0.50000
vt 0.50000 0.50000
vt 0.50000 0.50000
vt 1.00000 0.50000
vt 0.96194 0.69134
vt 0.85355 0.85355
vt 0.69134 0.96194
vt 0.50000 1.00000
vt 0.30866 0.96194
vt 0.14645 0.85355
vt 0.03806 0.69134
vt 0.00000 0.50000
vt 0.03806 0.30866
vt 0.14645 0.14645
vt 0.30866 0.03806
vt 0.50000 0.00000
vt 0.69134 0.03806
vt 0.85355 0.14645
vt 0.96194 0.30866
vt 1.00000 0.50000
vt 0.50000 0.50000
vt 0.50000 0.50000
vt 0.50000 0.50000
vt 0.50000 0.50000
vt 0.50000 0.50000
vt 0.50000 0.50000
vt 0.50000 0.50000
vt 0.50000 0.50000
vt 0.50000 0.50000
vt 0.50000 0.50000
vt 0.50000 0.50000
vt 0.50000 0.50000
vt 0.50000 0.50000
vt 0.50000 0.50000
vt 0.50000 0.50000
vt 0.50000 0.50000
vt 1.00000 0.50000
vt 0.96194 0.30866
vt 0.85355 0.14645
vt 0.69134 0.03806
vt 0.50000 0.00000
vt 0.30866 0.03806
vt 0.14645 0.14645
vt 0.03806 0.30866
vt 0.00000 0.50000
vt 0.03806 0.69134
vt 0.14645 0.85355
vt 0.30866 0.96194
vt 0.50000 1.00000
vt 0.69134 0.96194
vt 0.85355 0.85355
vt 0.96194 0.69134
vt 1.00000 0.50000
f 401/401 418/418 402/402
f 418/418 419/419 402/402
f 402/402 419/419 403/403
f 419/419 420/420 403/403
f 403/403 420/420 404/404
f 420/420 421/421 404/404
f 404/404 421/421 405/405
f 421/421 422/422 405/405
f 405/405 422/422 406/406
f 422/422 423/423 406/406
f 406/406 423/423 407/407
f 423/423 424/424 407/407
f 407/407 424/424 408/408
f 424/424 425/425 408/408
f 408/408 425/425 409/409
f 425/425 426/426 409/409
f 409/409 426/426 410/410
f 426/426 427/427 410/410
f 410/410 427/427 411/411
f 427/427 428/428 411/411
f 411/411 428/428 412/412
f 428/428 429/429 412/412
f 412/412 429/429 413/413
f 429/429 430/430 413/413
f 413/413 430/430 414/414
f 430/430 431/431 414/414
f 414/414 431/431 415/415
f 431/431 432/432 415/415
f 415/415 432/432 416/416
f 432/432 433/433 416/416
f 416/416 433/433 417/417
f 433/433 434/434 417/417
f 451/451 452/452 435/435
f 452/452 453/453 436/436
f 453/453 454/454 437/437
f 454/454 455/455 438/438
f 455/455 456/456 439/439
f 456/456 457/457 440/440
f 457/457 458/458 441/441
f 458/458 459/459 442/442
f 459/459 460/460 443/443
f 460/460 461/461 444/444
f 461/461 462/462 445/445
f 462/462 463/463 446/446
f 463/463 464/464 447/447
f 464/464 465/465 448/448
f 465/465 466/466 449/449
f 466/466 467/467 450/450
f 485/485 484/484 468/468
f 486/486 485/485 469/469
f 487/487 486/486 470/470
f 488/488 487/487 471/471
f 489/489 488/488 472/472
f 490/490 489/489 473/473
f 491/491 490/490 474/474
f 492/492 491/491 475/475
f 493/493 492/492 476/476
f 494/494 493/493 477/477
f 495/495 494/494 478/478
f 496/496 495/495 479/479
f 497/497 496/496 480/480
f 498/498 497/497 481/481
f 499/499 498/498 482/482
f 500/500 499/499 483/483