# RoadToF1 authored geometry. Centimetres, Z up.
v -6324.972 5664.047 3.050
v -6325.131 5739.046 3.050
v -6324.972 5664.047 2.950
v -6325.131 5739.046 2.950
v -6385.131 5738.919 3.050
v -6384.971 5663.919 3.050
v -6385.131 5738.919 2.950
v -6384.971 5663.919 2.950
v -6385.131 5738.919 3.050
v -6325.131 5739.046 3.050
v -6384.971 5663.919 3.050
v -6324.972 5664.047 3.050
v -6384.971 5663.919 2.950
v -6324.972 5664.047 2.950
v -6385.131 5738.919 2.950
v -6325.131 5739.046 2.950
v -6384.971 5663.919 3.050
v -6324.972 5664.047 3.050
v -6384.971 5663.919 2.950
v -6324.972 5664.047 2.950
v -6325.131 5739.046 3.050
v -6385.131 5738.919 3.050
v -6325.131 5739.046 2.950
v -6385.131 5738.919 2.950
vt 0.00000 1.00000
vt 1.00000 1.00000
vt 0.00000 0.00000
vt 1.00000 0.00000
vt 0.00000 1.00000
vt 1.00000 1.00000
vt 0.00000 0.00000
vt 1.00000 0.00000
vt 0.00000 1.00000
vt 1.00000 1.00000
vt 0.00000 0.00000
vt 1.00000 0.00000
vt 0.00000 1.00000
vt 1.00000 1.00000
vt 0.00000 0.00000
vt 1.00000 0.00000
vt 0.00000 1.00000
vt 1.00000 1.00000
vt 0.00000 0.00000
vt 1.00000 0.00000
vt 0.00000 1.00000
vt 1.00000 1.00000
vt 0.00000 0.00000
vt 1.00000 0.00000
f 1/1 3/3 2/2
f 3/3 4/4 2/2
f 5/5 7/7 6/6
f 7/7 8/8 6/6
f 9/9 11/11 10/10
f 11/11 12/12 10/10
f 13/13 15/15 14/14
f 15/15 16/16 14/14
f 17/17 19/19 18/18
f 19/19 20/20 18/18
f 21/21 23/23 22/22
f 23/23 24/24 22/22
v -6324.653 5514.047 3.050
v -6324.812 5589.047 3.050
v -6324.653 5514.047 2.950
v -6324.812 5589.047 2.950
v -6384.812 5588.919 3.050
v -6384.653 5513.920 3.050
v -6384.812 5588.919 2.950
v -6384.653 5513.920 2.950
v -6384.812 5588.919 3.050
v -6324.812 5589.047 3.050
v -6384.653 5513.920 3.050
v -6324.653 5514.047 3.050
v -6384.653 5513.920 2.950
v -6324.653 5514.047 2.950
v -6384.812 5588.919 2.950
v -6324.812 5589.047 2.950
v -6384.653 5513.920 3.050
v -6324.653 5514.047 3.050
v -6384.653 5513.920 2.950
v -6324.653 5514.047 2.950
v -6324.812 5589.047 3.050
v -6384.812 5588.919 3.050
v -6324.812 5589.047 2.950
v -6384.812 5588.919 2.950
vt 0.00000 1.00000
vt 1.00000 1.00000
vt 0.00000 0.00000
vt 1.00000 0.00000
vt 0.00000 1.00000
vt 1.00000 1.00000
vt 0.00000 0.00000
vt 1.00000 0.00000
vt 0.00000 1.00000
vt 1.00000 1.00000
vt 0.00000 0.00000
vt 1.00000 0.00000
vt 0.00000 1.00000
vt 1.00000 1.00000
vt 0.00000 0.00000
vt 1.00000 0.00000
vt 0.00000 1.00000
vt 1.00000 1.00000
vt 0.00000 0.00000
vt 1.00000 0.00000
vt 0.00000 1.00000
vt 1.00000 1.00000
vt 0.00000 0.00000
vt 1.00000 0.00000
f 25/25 27/27 26/26
f 27/27 28/28 26/26
f 29/29 31/31 30/30
f 31/31 32/32 30/30
f 33/33 35/35 34/34
f 35/35 36/36 34/34
f 37/37 39/39 38/38
f 39/39 40/40 38/38
f 41/41 43/43 42/42
f 43/43 44/44 42/42
f 45/45 47/47 46/46
f 47/47 48/48 46/46
v -6324.335 5364.047 3.050
v -6324.494 5439.047 3.050
v -6324.335 5364.047 2.950
v -6324.494 5439.047 2.950
v -6384.494 5438.920 3.050
v -6384.335 5363.920 3.050
v -6384.494 5438.920 2.950
v -6384.335 5363.920 2.950
v -6384.494 5438.920 3.050
v -6324.494 5439.047 3.050
v -6384.335 5363.920 3.050
v -6324.335 5364.047 3.050
v -6384.335 5363.920 2.950
v -6324.335 5364.047 2.950
v -6384.494 5438.920 2.950
v -6324.494 5439.047 2.950
v -6384.335 5363.920 3.050
v -6324.335 5364.047 3.050
v -6384.335 5363.920 2.950
v -6324.335 5364.047 2.950
v -6324.494 5439.047 3.050
v -6384.494 5438.920 3.050
v -6324.494 5439.047 2.950
v -6384.494 5438.920 2.950
vt 0.00000 1.00000
vt 1.00000 1.00000
vt 0.00000 0.00000
vt 1.00000 0.00000
vt 0.00000 1.00000
vt 1.00000 1.00000
vt 0.00000 0.00000
vt 1.00000 0.00000
vt 0.00000 1.00000
vt 1.00000 1.00000
vt 0.00000 0.00000
vt 1.00000 0.00000
vt 0.00000 1.00000
vt 1.00000 1.00000
vt 0.00000 0.00000
vt 1.00000 0.00000
vt 0.00000 1.00000
vt 1.00000 1.00000
vt 0.00000 0.00000
vt 1.00000 0.00000
vt 0.00000 1.00000
vt 1.00000 1.00000
vt 0.00000 0.00000
vt 1.00000 0.00000
f 49/49 51/51 50/50
f 51/51 52/52 50/50
f 53/53 55/55 54/54
f 55/55 56/56 54/54
f 57/57 59/59 58/58
f 59/59 60/60 58/58
f 61/61 63/63 62/62
f 63/63 64/64 62/62
f 65/65 67/67 66/66
f 67/67 68/68 66/66
f 69/69 71/71 70/70
f 71/71 72/72 70/70
v -6324.016 5214.048 3.050
v -6324.176 5289.047 3.050
v -6324.016 5214.048 2.950
v -6324.176 5289.047 2.950
v -6384.175 5288.920 3.050
v -6384.016 5213.920 3.050
v -6384.175 5288.920 2.950
v -6384.016 5213.920 2.950
v -6384.175 5288.920 3.050
v -6324.176 5289.047 3.050
v -6384.016 5213.920 3.050
v -6324.016 5214.048 3.050
v -6384.016 5213.920 2.950
v -6324.016 5214.048 2.950
v -6384.175 5288.920 2.950
v -6324.176 5289.047 2.950
v -6384.016 5213.920 3.050
v -6324.016 5214.048 3.050
v -6384.016 5213.920 2.950
v -6324.016 5214.048 2.950
v -6324.176 5289.047 3.050
v -6384.175 5288.920 3.050
v -6324.176 5289.047 2.950
v -6384.175 5288.920 2.950
vt 0.00000 1.00000
vt 1.00000 1.00000
vt 0.00000 0.00000
vt 1.00000 0.00000
vt 0.00000 1.00000
vt 1.00000 1.00000
vt 0.00000 0.00000
vt 1.00000 0.00000
vt 0.00000 1.00000
vt 1.00000 1.00000
vt 0.00000 0.00000
vt 1.00000 0.00000
vt 0.00000 1.00000
vt 1.00000 1.00000
vt 0.00000 0.00000
vt 1.00000 0.00000
vt 0.00000 1.00000
vt 1.00000 1.00000
vt 0.00000 0.00000
vt 1.00000 0.00000
vt 0.00000 1.00000
vt 1.00000 1.00000
vt 0.00000 0.00000
vt 1.00000 0.00000
f 73/73 75/75 74/74
f 75/75 76/76 74/74
f 77/77 79/79 78/78
f 79/79 80/80 78/78
f 81/81 83/83 82/82
f 83/83 84/84 82/82
f 85/85 87/87 86/86
f 87/87 88/88 86/86
f 89/89 91/91 90/90
f 91/91 92/92 90/90
f 93/93 95/95 94/94
f 95/95 96/96 94/94
v -6323.698 5064.048 3.050
v -6323.857 5139.048 3.050
v -6323.698 5064.048 2.950
v -6323.857 5139.048 2.950
v -6383.857 5138.920 3.050
v -6383.698 5063.921 3.050
v -6383.857 5138.920 2.950
v -6383.698 5063.921 2.950
v -6383.857 5138.920 3.050
v -6323.857 5139.048 3.050
v -6383.698 5063.921 3.050
v -6323.698 5064.048 3.050
v -6383.698 5063.921 2.950
v -6323.698 5064.048 2.950
v -6383.857 5138.920 2.950
v -6323.857 5139.048 2.950
v -6383.698 5063.921 3.050
v -6323.698 5064.048 3.050
v -6383.698 5063.921 2.950
v -6323.698 5064.048 2.950
v -6323.857 5139.048 3.050
v -6383.857 5138.920 3.050
v -6323.857 5139.048 2.950
v -6383.857 5138.920 2.950
vt 0.00000 1.00000
vt 1.00000 1.00000
vt 0.00000 0.00000
vt 1.00000 0.00000
vt 0.00000 1.00000
vt 1.00000 1.00000
vt 0.00000 0.00000
vt 1.00000 0.00000
vt 0.00000 1.00000
vt 1.00000 1.00000
vt 0.00000 0.00000
vt 1.00000 0.00000
vt 0.00000 1.00000
vt 1.00000 1.00000
vt 0.00000 0.00000
vt 1.00000 0.00000
vt 0.00000 1.00000
vt 1.00000 1.00000
vt 0.00000 0.00000
vt 1.00000 0.00000
vt 0.00000 1.00000
vt 1.00000 1.00000
vt 0.00000 0.00000
vt 1.00000 0.00000
f 97/97 99/99 98/98
f 99/99 100/100 98/98
f 101/101 103/103 102/102
f 103/103 104/104 102/102
f 105/105 107/107 106/106
f 107/107 108/108 106/106
f 109/109 111/111 110/110
f 111/111 112/112 110/110
f 113/113 115/115 114/114
f 115/115 116/116 114/114
f 117/117 119/119 118/118
f 119/119 120/120 118/118
v -6323.380 4914.048 3.050
v -6323.539 4989.048 3.050
v -6323.380 4914.048 2.950
v -6323.539 4989.048 2.950
v -6383.539 4988.921 3.050
v -6383.380 4913.921 3.050
v -6383.539 4988.921 2.950
v -6383.380 4913.921 2.950
v -6383.539 4988.921 3.050
v -6323.539 4989.048 3.050
v -6383.380 4913.921 3.050
v -6323.380 4914.048 3.050
v -6383.380 4913.921 2.950
v -6323.380 4914.048 2.950
v -6383.539 4988.921 2.950
v -6323.539 4989.048 2.950
v -6383.380 4913.921 3.050
v -6323.380 4914.048 3.050
v -6383.380 4913.921 2.950
v -6323.380 4914.048 2.950
v -6323.539 4989.048 3.050
v -6383.539 4988.921 3.050
v -6323.539 4989.048 2.950
v -6383.539 4988.921 2.950
vt 0.00000 1.00000
vt 1.00000 1.00000
vt 0.00000 0.00000
vt 1.00000 0.00000
vt 0.00000 1.00000
vt 1.00000 1.00000
vt 0.00000 0.00000
vt 1.00000 0.00000
vt 0.00000 1.00000
vt 1.00000 1.00000
vt 0.00000 0.00000
vt 1.00000 0.00000
vt 0.00000 1.00000
vt 1.00000 1.00000
vt 0.00000 0.00000
vt 1.00000 0.00000
vt 0.00000 1.00000
vt 1.00000 1.00000
vt 0.00000 0.00000
vt 1.00000 0.00000
vt 0.00000 1.00000
vt 1.00000 1.00000
vt 0.00000 0.00000
vt 1.00000 0.00000
f 121/121 123/123 122/122
f 123/123 124/124 122/122
f 125/125 127/127 126/126
f 127/127 128/128 126/126
f 129/129 131/131 130/130
f 131/131 132/132 130/130
f 133/133 135/135 134/134
f 135/135 136/136 134/134
f 137/137 139/139 138/138
f 139/139 140/140 138/138
f 141/141 143/143 142/142
f 143/143 144/144 142/142
v -6264.812 5589.174 3.050
v -6264.972 5664.174 3.050
v -6264.812 5589.174 2.950
v -6264.972 5664.174 2.950
v -6324.972 5664.047 3.050
v -6324.812 5589.047 3.050
v -6324.972 5664.047 2.950
v -6324.812 5589.047 2.950
v -6324.972 5664.047 3.050
v -6264.972 5664.174 3.050
v -6324.812 5589.047 3.050
v -6264.812 5589.174 3.050
v -6324.812 5589.047 2.950
v -6264.812 5589.174 2.950
v -6324.972 5664.047 2.950
v -6264.972 5664.174 2.950
v -6324.812 5589.047 3.050
v -6264.812 5589.174 3.050
v -6324.812 5589.047 2.950
v -6264.812 5589.174 2.950
v -6264.972 5664.174 3.050
v -6324.972 5664.047 3.050
v -6264.972 5664.174 2.950
v -6324.972 5664.047 2.950
vt 0.00000 1.00000
vt 1.00000 1.00000
vt 0.00000 0.00000
vt 1.00000 0.00000
vt 0.00000 1.00000
vt 1.00000 1.00000
vt 0.00000 0.00000
vt 1.00000 0.00000
vt 0.00000 1.00000
vt 1.00000 1.00000
vt 0.00000 0.00000
vt 1.00000 0.00000
vt 0.00000 1.00000
vt 1.00000 1.00000
vt 0.00000 0.00000
vt 1.00000 0.00000
vt 0.00000 1.00000
vt 1.00000 1.00000
vt 0.00000 0.00000
vt 1.00000 0.00000
vt 0.00000 1.00000
vt 1.00000 1.00000
vt 0.00000 0.00000
vt 1.00000 0.00000
f 145/145 147/147 146/146
f 147/147 148/148 146/146
f 149/149 151/151 150/150
f 151/151 152/152 150/150
f 153/153 155/155 154/154
f 155/155 156/156 154/154
f 157/157 159/159 158/158
f 159/159 160/160 158/158
f 161/161 163/163 162/162
f 163/163 164/164 162/162
f 165/165 167/167 166/166
f 167/167 168/168 166/166
v -6264.494 5439.174 3.050
v -6264.653 5514.174 3.050
v -6264.494 5439.174 2.950
v -6264.653 5514.174 2.950
v -6324.653 5514.047 3.050
v -6324.494 5439.047 3.050
v -6324.653 5514.047 2.950
v -6324.494 5439.047 2.950
v -6324.653 5514.047 3.050
v -6264.653 5514.174 3.050
v -6324.494 5439.047 3.050
v -6264.494 5439.174 3.050
v -6324.494 5439.047 2.950
v -6264.494 5439.174 2.950
v -6324.653 5514.047 2.950
v -6264.653 5514.174 2.950
v -6324.494 5439.047 3.050
v -6264.494 5439.174 3.050
v -6324.494 5439.047 2.950
v -6264.494 5439.174 2.950
v -6264.653 5514.174 3.050
v -6324.653 5514.047 3.050
v -6264.653 5514.174 2.950
v -6324.653 5514.047 2.950
vt 0.00000 1.00000
vt 1.00000 1.00000
vt 0.00000 0.00000
vt 1.00000 0.00000
vt 0.00000 1.00000
vt 1.00000 1.00000
vt 0.00000 0.00000
vt 1.00000 0.00000
vt 0.00000 1.00000
vt 1.00000 1.00000
vt 0.00000 0.00000
vt 1.00000 0.00000
vt 0.00000 1.00000
vt 1.00000 1.00000
vt 0.00000 0.00000
vt 1.00000 0.00000
vt 0.00000 1.00000
vt 1.00000 1.00000
vt 0.00000 0.00000
vt 1.00000 0.00000
vt 0.00000 1.00000
vt 1.00000 1.00000
vt 0.00000 0.00000
vt 1.00000 0.00000
f 169/169 171/171 170/170
f 171/171 172/172 170/170
f 173/173 175/175 174/174
f 175/175 176/176 174/174
f 177/177 179/179 178/178
f 179/179 180/180 178/178
f 181/181 183/183 182/182
f 183/183 184/184 182/182
f 185/185 187/187 186/186
f 187/187 188/188 186/186
f 189/189 191/191 190/190
f 191/191 192/192 190/190
v -6264.176 5289.175 3.050
v -6264.335 5364.175 3.050
v -6264.176 5289.175 2.950
v -6264.335 5364.175 2.950
v -6324.335 5364.047 3.050
v -6324.176 5289.047 3.050
v -6324.335 5364.047 2.950
v -6324.176 5289.047 2.950
v -6324.335 5364.047 3.050
v -6264.335 5364.175 3.050
v -6324.176 5289.047 3.050
v -6264.176 5289.175 3.050
v -6324.176 5289.047 2.950
v -6264.176 5289.175 2.950
v -6324.335 5364.047 2.950
v -6264.335 5364.175 2.950
v -6324.176 5289.047 3.050
v -6264.176 5289.175 3.050
v -6324.176 5289.047 2.950
v -6264.176 5289.175 2.950
v -6264.335 5364.175 3.050
v -6324.335 5364.047 3.050
v -6264.335 5364.175 2.950
v -6324.335 5364.047 2.950
vt 0.00000 1.00000
vt 1.00000 1.00000
vt 0.00000 0.00000
vt 1.00000 0.00000
vt 0.00000 1.00000
vt 1.00000 1.00000
vt 0.00000 0.00000
vt 1.00000 0.00000
vt 0.00000 1.00000
vt 1.00000 1.00000
vt 0.00000 0.00000
vt 1.00000 0.00000
vt 0.00000 1.00000
vt 1.00000 1.00000
vt 0.00000 0.00000
vt 1.00000 0.00000
vt 0.00000 1.00000
vt 1.00000 1.00000
vt 0.00000 0.00000
vt 1.00000 0.00000
vt 0.00000 1.00000
vt 1.00000 1.00000
vt 0.00000 0.00000
vt 1.00000 0.00000
f 193/193 195/195 194/194
f 195/195 196/196 194/194
f 197/197 199/199 198/198
f 199/199 200/200 198/198
f 201/201 203/203 202/202
f 203/203 204/204 202/202
f 205/205 207/207 206/206
f 207/207 208/208 206/206
f 209/209 211/211 210/210
f 211/211 212/212 210/210
f 213/213 215/215 214/214
f 215/215 216/216 214/214
v -6263.857 5139.175 3.050
v -6264.017 5214.175 3.050
v -6263.857 5139.175 2.950
v -6264.017 5214.175 2.950
v -6324.016 5214.048 3.050
v -6323.857 5139.048 3.050
v -6324.016 5214.048 2.950
v -6323.857 5139.048 2.950
v -6324.016 5214.048 3.050
v -6264.017 5214.175 3.050
v -6323.857 5139.048 3.050
v -6263.857 5139.175 3.050
v -6323.857 5139.048 2.950
v -6263.857 5139.175 2.950
v -6324.016 5214.048 2.950
v -6264.017 5214.175 2.950
v -6323.857 5139.048 3.050
v -6263.857 5139.175 3.050
v -6323.857 5139.048 2.950
v -6263.857 5139.175 2.950
v -6264.017 5214.175 3.050
v -6324.016 5214.048 3.050
v -6264.017 5214.175 2.950
v -6324.016 5214.048 2.950
vt 0.00000 1.00000
vt 1.00000 1.00000
vt 0.00000 0.00000
vt 1.00000 0.00000
vt 0.00000 1.00000
vt 1.00000 1.00000
vt 0.00000 0.00000
vt 1.00000 0.00000
vt 0.00000 1.00000
vt 1.00000 1.00000
vt 0.00000 0.00000
vt 1.00000 0.00000
vt 0.00000 1.00000
vt 1.00000 1.00000
vt 0.00000 0.00000
vt 1.00000 0.00000
vt 0.00000 1.00000
vt 1.00000 1.00000
vt 0.00000 0.00000
vt 1.00000 0.00000
vt 0.00000 1.00000
vt 1.00000 1.00000
vt 0.00000 0.00000
vt 1.00000 0.00000
f 217/217 219/219 218/218
f 219/219 220/220 218/218
f 221/221 223/223 222/222
f 223/223 224/224 222/222
f 225/225 227/227 226/226
f 227/227 228/228 226/226
f 229/229 231/231 230/230
f 231/231 232/232 230/230
f 233/233 235/235 234/234
f 235/235 236/236 234/234
f 237/237 239/239 238/238
f 239/239 240/240 238/238
v -6263.539 4989.175 3.050
v -6263.698 5064.175 3.050
v -6263.539 4989.175 2.950
v -6263.698 5064.175 2.950
v -6323.698 5064.048 3.050
v -6323.539 4989.048 3.050
v -6323.698 5064.048 2.950
v -6323.539 4989.048 2.950
v -6323.698 5064.048 3.050
v -6263.698 5064.175 3.050
v -6323.539 4989.048 3.050
v -6263.539 4989.175 3.050
v -6323.539 4989.048 2.950
v -6263.539 4989.175 2.950
v -6323.698 5064.048 2.950
v -6263.698 5064.175 2.950
v -6323.539 4989.048 3.050
v -6263.539 4989.175 3.050
v -6323.539 4989.048 2.950
v -6263.539 4989.175 2.950
v -6263.698 5064.175 3.050
v -6323.698 5064.048 3.050
v -6263.698 5064.175 2.950
v -6323.698 5064.048 2.950
vt 0.00000 1.00000
vt 1.00000 1.00000
vt 0.00000 0.00000
vt 1.00000 0.00000
vt 0.00000 1.00000
vt 1.00000 1.00000
vt 0.00000 0.00000
vt 1.00000 0.00000
vt 0.00000 1.00000
vt 1.00000 1.00000
vt 0.00000 0.00000
vt 1.00000 0.00000
vt 0.00000 1.00000
vt 1.00000 1.00000
vt 0.00000 0.00000
vt 1.00000 0.00000
vt 0.00000 1.00000
vt 1.00000 1.00000
vt 0.00000 0.00000
vt 1.00000 0.00000
vt 0.00000 1.00000
vt 1.00000 1.00000
vt 0.00000 0.00000
vt 1.00000 0.00000
f 241/241 243/243 242/242
f 243/243 244/244 242/242
f 245/245 247/247 246/246
f 247/247 248/248 246/246
f 249/249 251/251 250/250
f 251/251 252/252 250/250
f 253/253 255/255 254/254
f 255/255 256/256 254/254
f 257/257 259/259 258/258
f 259/259 260/260 258/258
f 261/261 263/263 262/262
f 263/263 264/264 262/262
v -6263.221 4839.176 3.050
v -6263.380 4914.176 3.050
v -6263.221 4839.176 2.950
v -6263.380 4914.176 2.950
v -6323.380 4914.048 3.050
v -6323.221 4839.048 3.050
v -6323.380 4914.048 2.950
v -6323.221 4839.048 2.950
v -6323.380 4914.048 3.050
v -6263.380 4914.176 3.050
v -6323.221 4839.048 3.050
v -6263.221 4839.176 3.050
v -6323.221 4839.048 2.950
v -6263.221 4839.176 2.950
v -6323.380 4914.048 2.950
v -6263.380 4914.176 2.950
v -6323.221 4839.048 3.050
v -6263.221 4839.176 3.050
v -6323.221 4839.048 2.950
v -6263.221 4839.176 2.950
v -6263.380 4914.176 3.050
v -6323.380 4914.048 3.050
v -6263.380 4914.176 2.950
v -6323.380 4914.048 2.950
vt 0.00000 1.00000
vt 1.00000 1.00000
vt 0.00000 0.00000
vt 1.00000 0.00000
vt 0.00000 1.00000
vt 1.00000 1.00000
vt 0.00000 0.00000
vt 1.00000 0.00000
vt 0.00000 1.00000
vt 1.00000 1.00000
vt 0.00000 0.00000
vt 1.00000 0.00000
vt 0.00000 1.00000
vt 1.00000 1.00000
vt 0.00000 0.00000
vt 1.00000 0.00000
vt 0.00000 1.00000
vt 1.00000 1.00000
vt 0.00000 0.00000
vt 1.00000 0.00000
vt 0.00000 1.00000
vt 1.00000 1.00000
vt 0.00000 0.00000
vt 1.00000 0.00000
f 265/265 267/267 266/266
f 267/267 268/268 266/266
f 269/269 271/271 270/270
f 271/271 272/272 270/270
f 273/273 275/275 274/274
f 275/275 276/276 274/274
f 277/277 279/279 278/278
f 279/279 280/280 278/278
f 281/281 283/283 282/282
f 283/283 284/284 282/282
f 285/285 287/287 286/286
f 287/287 288/288 286/286