# RoadToF1 authored geometry. Centimetres, Z up.
v 12.469 -24.500 92.166
v 12.431 -23.427 92.166
v 12.315 -22.361 92.166
v 12.124 -21.307 92.166
v 11.859 -20.274 92.166
v 11.520 -19.267 92.166
v 11.110 -18.291 92.166
v 10.632 -17.354 92.166
v 10.088 -16.462 92.166
v 9.481 -15.618 92.166
v 8.817 -14.830 92.166
v 8.098 -14.101 92.166
v 7.329 -13.436 92.166
v 6.515 -12.840 92.166
v 5.661 -12.315 92.166
v 4.772 -11.865 92.166
v 3.853 -11.494 92.166
v 2.911 -11.202 92.166
v 1.951 -10.993 92.166
v 0.978 -10.867 92.166
v 0.000 -10.824 92.166
v -0.978 -10.867 92.166
v -1.951 -10.993 92.166
v -2.911 -11.202 92.166
v -3.853 -11.494 92.166
v -4.772 -11.865 92.166
v -5.661 -12.315 92.166
v -6.515 -12.840 92.166
v -7.329 -13.436 92.166
v -8.098 -14.101 92.166
v -8.817 -14.830 92.166
v -9.481 -15.618 92.166
v -10.088 -16.462 92.166
v -10.632 -17.354 92.166
v -11.110 -18.291 92.166
v -11.520 -19.267 92.166
v -11.859 -20.274 92.166
v -12.124 -21.307 92.166
v -12.315 -22.361 92.166
v -12.431 -23.427 92.166
v -12.469 -24.500 92.166
v 12.766 -24.500 91.528
v 12.726 -23.401 91.528
v 12.609 -22.310 91.528
v 12.413 -21.232 91.528
v 12.141 -20.173 91.528
v 11.794 -19.142 91.528
v 11.374 -18.144 91.528
v 10.885 -17.184 91.528
v 10.328 -16.270 91.528
v 9.707 -15.407 91.528
v 9.027 -14.600 91.528
v 8.291 -13.853 91.528
v 7.504 -13.173 91.528
v 6.670 -12.562 91.528
v 5.796 -12.025 91.528
v 4.885 -11.565 91.528
v 3.945 -11.184 91.528
v 2.980 -10.886 91.528
v 1.997 -10.671 91.528
v 1.002 -10.542 91.528
v 0.000 -10.499 91.528
v -1.002 -10.542 91.528
v -1.997 -10.671 91.528
v -2.980 -10.886 91.528
v -3.945 -11.184 91.528
v -4.885 -11.565 91.528
v -5.796 -12.025 91.528
v -6.670 -12.562 91.528
v -7.504 -13.173 91.528
v -8.291 -13.853 91.528
v -9.027 -14.600 91.528
v -9.707 -15.407 91.528
v -10.328 -16.270 91.528
v -10.885 -17.184 91.528
v -11.374 -18.144 91.528
v -11.794 -19.142 91.528
v -12.141 -20.173 91.528
v -12.413 -21.232 91.528
v -12.609 -22.310 91.528
v -12.726 -23.401 91.528
v -12.766 -24.500 91.528
v 13.036 -24.500 90.877
v 12.996 -23.378 90.877
v 12.876 -22.263 90.877
v 12.676 -21.162 90.877
v 12.398 -20.082 90.877
v 12.044 -19.028 90.877
v 11.616 -18.009 90.877
v 11.115 -17.029 90.877
v 10.547 -16.096 90.877
v 9.913 -15.214 90.877
v 9.218 -14.390 90.877
v 8.466 -13.628 90.877
v 7.663 -12.933 90.877
v 6.812 -12.309 90.877
v 5.918 -11.760 90.877
v 4.989 -11.290 90.877
v 4.028 -10.902 90.877
v 3.043 -10.597 90.877
v 2.039 -10.378 90.877
v 1.023 -10.246 90.877
v 0.000 -10.202 90.877
v -1.023 -10.246 90.877
v -2.039 -10.378 90.877
v -3.043 -10.597 90.877
v -4.028 -10.902 90.877
v -4.989 -11.290 90.877
v -5.918 -11.760 90.877
v -6.812 -12.309 90.877
v -7.663 -12.933 90.877
v -8.466 -13.628 90.877
v -9.218 -14.390 90.877
v -9.913 -15.214 90.877
v -10.547 -16.096 90.877
v -11.115 -17.029 90.877
v -11.616 -18.009 90.877
v -12.044 -19.028 90.877
v -12.398 -20.082 90.877
v -12.676 -21.162 90.877
v -12.876 -22.263 90.877
v -12.996 -23.378 90.877
v -13.036 -24.500 90.877
v 13.281 -24.500 90.212
v 13.240 -23.357 90.212
v 13.117 -22.221 90.212
v 12.914 -21.100 90.212
v 12.631 -19.999 90.212
v 12.270 -18.926 90.212
v 11.833 -17.887 90.212
v 11.324 -16.889 90.212
v 10.744 -15.938 90.212
v 10.099 -15.040 90.212
v 9.391 -14.200 90.212
v 8.625 -13.424 90.212
v 7.806 -12.716 90.212
v 6.939 -12.081 90.212
v 6.029 -11.522 90.212
v 5.082 -11.043 90.212
v 4.104 -10.647 90.212
v 3.100 -10.337 90.212
v 2.078 -10.114 90.212
v 1.042 -9.979 90.212
v 0.000 -9.934 90.212
v -1.042 -9.979 90.212
v -2.078 -10.114 90.212
v -3.100 -10.337 90.212
v -4.104 -10.647 90.212
v -5.082 -11.043 90.212
v -6.029 -11.522 90.212
v -6.939 -12.081 90.212
v -7.806 -12.716 90.212
v -8.625 -13.424 90.212
v -9.391 -14.200 90.212
v -10.099 -15.040 90.212
v -10.744 -15.938 90.212
v -11.324 -16.889 90.212
v -11.833 -17.887 90.212
v -12.270 -18.926 90.212
v -12.631 -19.999 90.212
v -12.914 -21.100 90.212
v -13.117 -22.221 90.212
v -13.240 -23.357 90.212
v -13.281 -24.500 90.212
v 13.498 -24.500 89.536
v 13.456 -23.339 89.536
v 13.331 -22.184 89.536
v 13.125 -21.044 89.536
v 12.837 -19.925 89.536
v 12.470 -18.835 89.536
v 12.026 -17.779 89.536
v 11.509 -16.765 89.536
v 10.920 -15.799 89.536
v 10.264 -14.886 89.536
v 9.544 -14.032 89.536
v 8.766 -13.243 89.536
v 7.934 -12.523 89.536
v 7.052 -11.878 89.536
v 6.128 -11.310 89.536
v 5.165 -10.823 89.536
v 4.171 -10.421 89.536
v 3.151 -10.105 89.536
v 2.111 -9.878 89.536
v 1.059 -9.742 89.536
v 0.000 -9.696 89.536
v -1.059 -9.742 89.536
v -2.111 -9.878 89.536
v -3.151 -10.105 89.536
v -4.171 -10.421 89.536
v -5.165 -10.823 89.536
v -6.128 -11.310 89.536
v -7.052 -11.878 89.536
v -7.934 -12.523 89.536
v -8.766 -13.243 89.536
v -9.544 -14.032 89.536
v -10.264 -14.886 89.536
v -10.920 -15.799 89.536
v -11.509 -16.765 89.536
v -12.026 -17.779 89.536
v -12.470 -18.835 89.536
v -12.837 -19.925 89.536
v -13.125 -21.044 89.536
v -13.331 -22.184 89.536
v -13.456 -23.339 89.536
v -13.498 -24.500 89.536
v 13.687 -24.500 88.849
v 13.645 -23.322 88.849
v 13.519 -22.152 88.849
v 13.309 -20.996 88.849
v 13.017 -19.861 88.849
v 12.645 -18.755 88.849
v 12.195 -17.685 88.849
v 11.670 -16.656 88.849
v 11.073 -15.676 88.849
v 10.408 -14.751 88.849
v 9.678 -13.885 88.849
v 8.889 -13.085 88.849
v 8.045 -12.355 88.849
v 7.152 -11.700 88.849
v 6.214 -11.124 88.849
v 5.238 -10.631 88.849
v 4.230 -10.223 88.849
v 3.195 -9.903 88.849
v 2.141 -9.673 88.849
v 1.074 -9.535 88.849
v 0.000 -9.488 88.849
v -1.074 -9.535 88.849
v -2.141 -9.673 88.849
v -3.195 -9.903 88.849
v -4.230 -10.223 88.849
v -5.238 -10.631 88.849
v -6.214 -11.124 88.849
v -7.152 -11.700 88.849
v -8.045 -12.355 88.849
v -8.889 -13.085 88.849
v -9.678 -13.885 88.849
v -10.408 -14.751 88.849
v -11.073 -15.676 88.849
v -11.670 -16.656 88.849
v -12.195 -17.685 88.849
v -12.645 -18.755 88.849
v -13.017 -19.861 88.849
v -13.309 -20.996 88.849
v -13.519 -22.152 88.849
v -13.645 -23.322 88.849
v -13.687 -24.500 88.849
v 13.849 -24.500 88.154
v 13.806 -23.308 88.154
v 13.678 -22.124 88.154
v 13.466 -20.954 88.154
v 13.171 -19.806 88.154
v 12.795 -18.687 88.154
v 12.339 -17.604 88.154
v 11.808 -16.564 88.154
v 11.204 -15.572 88.154
v 10.531 -14.636 88.154
v 9.793 -13.760 88.154
v 8.994 -12.950 88.154
v 8.140 -12.212 88.154
v 7.236 -11.549 88.154
v 6.287 -10.967 88.154
v 5.300 -10.467 88.154
v 4.280 -10.054 88.154
v 3.233 -9.731 88.154
v 2.166 -9.498 88.154
v 1.087 -9.358 88.154
v 0.000 -9.311 88.154
v -1.087 -9.358 88.154
v -2.166 -9.498 88.154
v -3.233 -9.731 88.154
v -4.280 -10.054 88.154
v -5.300 -10.467 88.154
v -6.287 -10.967 88.154
v -7.236 -11.549 88.154
v -8.140 -12.212 88.154
v -8.994 -12.950 88.154
v -9.793 -13.760 88.154
v -10.531 -14.636 88.154
v -11.204 -15.572 88.154
v -11.808 -16.564 88.154
v -12.339 -17.604 88.154
v -12.795 -18.687 88.154
v -13.171 -19.806 88.154
v -13.466 -20.954 88.154
v -13.678 -22.124 88.154
v -13.806 -23.308 88.154
v -13.849 -24.500 88.154
v 13.982 -24.500 87.451
v 13.939 -23.297 87.451
v 13.810 -22.101 87.451
v 13.596 -20.920 87.451
v 13.298 -19.761 87.451
v 12.918 -18.631 87.451
v 12.458 -17.538 87.451
v 11.922 -16.487 87.451
v 11.312 -15.486 87.451
v 10.632 -14.541 87.451
v 9.887 -13.656 87.451
v 9.081 -12.839 87.451
v 8.219 -12.093 87.451
v 7.306 -11.425 87.451
v 6.348 -10.836 87.451
v 5.351 -10.332 87.451
v 4.321 -9.915 87.451
v 3.264 -9.588 87.451
v 2.187 -9.354 87.451
v 1.097 -9.212 87.451
v 0.000 -9.165 87.451
v -1.097 -9.212 87.451
v -2.187 -9.354 87.451
v -3.264 -9.588 87.451
v -4.321 -9.915 87.451
v -5.351 -10.332 87.451
v -6.348 -10.836 87.451
v -7.306 -11.425 87.451
v -8.219 -12.093 87.451
v -9.081 -12.839 87.451
v -9.887 -13.656 87.451
v -10.632 -14.541 87.451
v -11.312 -15.486 87.451
v -11.922 -16.487 87.451
v -12.458 -17.538 87.451
v -12.918 -18.631 87.451
v -13.298 -19.761 87.451
v -13.596 -20.920 87.451
v -13.810 -22.101 87.451
v -13.939 -23.297 87.451
v -13.982 -24.500 87.451
v 14.087 -24.500 86.742
v 14.044 -23.288 86.742
v 13.914 -22.083 86.742
v 13.698 -20.893 86.742
v 13.398 -19.726 86.742
v 13.015 -18.587 86.742
v 12.552 -17.486 86.742
v 12.011 -16.427 86.742
v 11.397 -15.419 86.742
v 10.712 -14.466 86.742
v 9.961 -13.575 86.742
v 9.149 -12.751 86.742
v 8.280 -12.000 86.742
v 7.360 -11.326 86.742
v 6.395 -10.734 86.742
v 5.391 -10.226 86.742
v 4.353 -9.806 86.742
v 3.289 -9.477 86.742
v 2.204 -9.240 86.742
v 1.105 -9.097 86.742
v 0.000 -9.050 86.742
v -1.105 -9.097 86.742
v -2.204 -9.240 86.742
v -3.289 -9.477 86.742
v -4.353 -9.806 86.742
v -5.391 -10.226 86.742
v -6.395 -10.734 86.742
v -7.360 -11.326 86.742
v -8.280 -12.000 86.742
v -9.149 -12.751 86.742
v -9.961 -13.575 86.742
v -10.712 -14.466 86.742
v -11.397 -15.419 86.742
v -12.011 -16.427 86.742
v -12.552 -17.486 86.742
v -13.015 -18.587 86.742
v -13.398 -19.726 86.742
v -13.698 -20.893 86.742
v -13.914 -22.083 86.742
v -14.044 -23.288 86.742
v -14.087 -24.500 86.742
v 14.163 -24.500 86.029
v 14.120 -23.281 86.029
v 13.989 -22.070 86.029
v 13.772 -20.874 86.029
v 13.470 -19.700 86.029
v 13.085 -18.555 86.029
v 12.619 -17.448 86.029
v 12.076 -16.384 86.029
v 11.458 -15.369 86.029
v 10.770 -14.412 86.029
v 10.015 -13.516 86.029
v 9.198 -12.688 86.029
v 8.325 -11.933 86.029
v 7.400 -11.255 86.029
v 6.430 -10.659 86.029
v 5.420 -10.149 86.029
v 4.377 -9.726 86.029
v 3.306 -9.395 86.029
v 2.216 -9.157 86.029
v 1.111 -9.014 86.029
v 0.000 -8.966 86.029
v -1.111 -9.014 86.029
v -2.216 -9.157 86.029
v -3.306 -9.395 86.029
v -4.377 -9.726 86.029
v -5.420 -10.149 86.029
v -6.430 -10.659 86.029
v -7.400 -11.255 86.029
v -8.325 -11.933 86.029
v -9.198 -12.688 86.029
v -10.015 -13.516 86.029
v -10.770 -14.412 86.029
v -11.458 -15.369 86.029
v -12.076 -16.384 86.029
v -12.619 -17.448 86.029
v -13.085 -18.555 86.029
v -13.470 -19.700 86.029
v -13.772 -20.874 86.029
v -13.989 -22.070 86.029
v -14.120 -23.281 86.029
v -14.163 -24.500 86.029
v 14.210 -24.500 85.312
v 14.167 -23.277 85.312
v 14.036 -22.062 85.312
v 13.818 -20.862 85.312
v 13.515 -19.684 85.312
v 13.129 -18.536 85.312
v 12.662 -17.424 85.312
v 12.116 -16.357 85.312
v 11.497 -15.339 85.312
v 10.806 -14.378 85.312
v 10.048 -13.479 85.312
v 9.229 -12.649 85.312
v 8.353 -11.891 85.312
v 7.425 -11.211 85.312
v 6.451 -10.613 85.312
v 5.438 -10.101 85.312
v 4.391 -9.677 85.312
v 3.317 -9.345 85.312
v 2.223 -9.106 85.312
v 1.115 -8.962 85.312
v 0.000 -8.914 85.312
v -1.115 -8.962 85.312
v -2.223 -9.106 85.312
v -3.317 -9.345 85.312
v -4.391 -9.677 85.312
v -5.438 -10.101 85.312
v -6.451 -10.613 85.312
v -7.425 -11.211 85.312
v -8.353 -11.891 85.312
v -9.229 -12.649 85.312
v -10.048 -13.479 85.312
v -10.806 -14.378 85.312
v -11.497 -15.339 85.312
v -12.116 -16.357 85.312
v -12.662 -17.424 85.312
v -13.129 -18.536 85.312
v -13.515 -19.684 85.312
v -13.818 -20.862 85.312
v -14.036 -22.062 85.312
v -14.167 -23.277 85.312
v -14.210 -24.500 85.312
v 14.229 -24.500 84.594
v 14.185 -23.276 84.594
v 14.054 -22.059 84.594
v 13.836 -20.857 84.594
v 13.532 -19.678 84.594
v 13.146 -18.528 84.594
v 12.678 -17.415 84.594
v 12.132 -16.346 84.594
v 11.511 -15.327 84.594
v 10.820 -14.365 84.594
v 10.061 -13.465 84.594
v 9.241 -12.633 84.594
v 8.363 -11.875 84.594
v 7.435 -11.194 84.594
v 6.460 -10.595 84.594
v 5.445 -10.082 84.594
v 4.397 -9.658 84.594
v 3.322 -9.325 84.594
v 2.226 -9.086 84.594
v 1.116 -8.942 84.594
v 0.000 -8.894 84.594
v -1.116 -8.942 84.594
v -2.226 -9.086 84.594
v -3.322 -9.325 84.594
v -4.397 -9.658 84.594
v -5.445 -10.082 84.594
v -6.460 -10.595 84.594
v -7.435 -11.194 84.594
v -8.363 -11.875 84.594
v -9.241 -12.633 84.594
v -10.061 -13.465 84.594
v -10.820 -14.365 84.594
v -11.511 -15.327 84.594
v -12.132 -16.346 84.594
v -12.678 -17.415 84.594
v -13.146 -18.528 84.594
v -13.532 -19.678 84.594
v -13.836 -20.857 84.594
v -14.054 -22.059 84.594
v -14.185 -23.276 84.594
v -14.229 -24.500 84.594
v 14.218 -24.500 83.875
v 14.174 -23.277 83.875
v 14.043 -22.061 83.875
v 13.825 -20.860 83.875
v 13.522 -19.681 83.875
v 13.136 -18.532 83.875
v 12.668 -17.420 83.875
v 12.123 -16.352 83.875
v 11.503 -15.334 83.875
v 10.811 -14.373 83.875
v 10.054 -13.473 83.875
v 9.234 -12.642 83.875
v 8.357 -11.884 83.875
v 7.429 -11.204 83.875
v 6.455 -10.606 83.875
v 5.441 -10.093 83.875
v 4.394 -9.669 83.875
v 3.319 -9.337 83.875
v 2.224 -9.098 83.875
v 1.116 -8.954 83.875
v 0.000 -8.906 83.875
v -1.116 -8.954 83.875
v -2.224 -9.098 83.875
v -3.319 -9.337 83.875
v -4.394 -9.669 83.875
v -5.441 -10.093 83.875
v -6.455 -10.606 83.875
v -7.429 -11.204 83.875
v -8.357 -11.884 83.875
v -9.234 -12.642 83.875
v -10.054 -13.473 83.875
v -10.811 -14.373 83.875
v -11.503 -15.334 83.875
v -12.123 -16.352 83.875
v -12.668 -17.420 83.875
v -13.136 -18.532 83.875
v -13.522 -19.681 83.875
v -13.825 -20.860 83.875
v -14.043 -22.061 83.875
v -14.174 -23.277 83.875
v -14.218 -24.500 83.875
v 14.178 -24.500 83.158
v 14.135 -23.280 83.158
v 14.004 -22.067 83.158
v 13.787 -20.870 83.158
v 13.484 -19.695 83.158
v 13.099 -18.549 83.158
v 12.633 -17.440 83.158
v 12.089 -16.375 83.158
v 11.470 -15.360 83.158
v 10.781 -14.401 83.158
v 10.026 -13.504 83.158
v 9.208 -12.675 83.158
v 8.334 -11.919 83.158
v 7.408 -11.241 83.158
v 6.437 -10.644 83.158
v 5.426 -10.133 83.158
v 4.381 -9.711 83.158
v 3.310 -9.379 83.158
v 2.218 -9.141 83.158
v 1.112 -8.998 83.158
v 0.000 -8.950 83.158
v -1.112 -8.998 83.158
v -2.218 -9.141 83.158
v -3.310 -9.379 83.158
v -4.381 -9.711 83.158
v -5.426 -10.133 83.158
v -6.437 -10.644 83.158
v -7.408 -11.241 83.158
v -8.334 -11.919 83.158
v -9.208 -12.675 83.158
v -10.026 -13.504 83.158
v -10.781 -14.401 83.158
v -11.470 -15.360 83.158
v -12.089 -16.375 83.158
v -12.633 -17.440 83.158
v -13.099 -18.549 83.158
v -13.484 -19.695 83.158
v -13.787 -20.870 83.158
v -14.004 -22.067 83.158
v -14.135 -23.280 83.158
v -14.178 -24.500 83.158
v 14.110 -24.500 82.444
v 14.066 -23.286 82.444
v 13.936 -22.079 82.444
v 13.720 -20.887 82.444
v 13.419 -19.718 82.444
v 13.036 -18.578 82.444
v 12.572 -17.474 82.444
v 12.030 -16.414 82.444
v 11.415 -15.404 82.444
v 10.729 -14.450 82.444
v 9.977 -13.557 82.444
v 9.164 -12.733 82.444
v 8.293 -11.980 82.444
v 7.372 -11.305 82.444
v 6.406 -10.712 82.444
v 5.400 -10.203 82.444
v 4.360 -9.782 82.444
v 3.294 -9.452 82.444
v 2.207 -9.215 82.444
v 1.107 -9.073 82.444
v 0.000 -9.025 82.444
v -1.107 -9.073 82.444
v -2.207 -9.215 82.444
v -3.294 -9.452 82.444
v -4.360 -9.782 82.444
v -5.400 -10.203 82.444
v -6.406 -10.712 82.444
v -7.372 -11.305 82.444
v -8.293 -11.980 82.444
v -9.164 -12.733 82.444
v -9.977 -13.557 82.444
v -10.729 -14.450 82.444
v -11.415 -15.404 82.444
v -12.030 -16.414 82.444
v -12.572 -17.474 82.444
v -13.036 -18.578 82.444
v -13.419 -19.718 82.444
v -13.720 -20.887 82.444
v -13.936 -22.079 82.444
v -14.066 -23.286 82.444
v -14.110 -24.500 82.444
v 14.012 -24.500 81.733
v 13.969 -23.294 81.733
v 13.840 -22.096 81.733
v 13.625 -20.912 81.733
v 13.326 -19.751 81.733
v 12.946 -18.619 81.733
v 12.485 -17.523 81.733
v 11.947 -16.470 81.733
v 11.336 -15.467 81.733
v 10.655 -14.519 81.733
v 9.908 -13.633 81.733
v 9.100 -12.814 81.733
v 8.236 -12.067 81.733
v 7.321 -11.396 81.733
v 6.361 -10.807 81.733
v 5.362 -10.302 81.733
v 4.330 -9.884 81.733
v 3.271 -9.556 81.733
v 2.192 -9.321 81.733
v 1.099 -9.179 81.733
v 0.000 -9.132 81.733
v -1.099 -9.179 81.733
v -2.192 -9.321 81.733
v -3.271 -9.556 81.733
v -4.330 -9.884 81.733
v -5.362 -10.302 81.733
v -6.361 -10.807 81.733
v -7.321 -11.396 81.733
v -8.236 -12.067 81.733
v -9.100 -12.814 81.733
v -9.908 -13.633 81.733
v -10.655 -14.519 81.733
v -11.336 -15.467 81.733
v -11.947 -16.470 81.733
v -12.485 -17.523 81.733
v -12.946 -18.619 81.733
v -13.326 -19.751 81.733
v -13.625 -20.912 81.733
v -13.840 -22.096 81.733
v -13.969 -23.294 81.733
v -14.012 -24.500 81.733
v 13.886 -24.500 81.029
v 13.844 -23.305 81.029
v 13.715 -22.117 81.029
v 13.503 -20.945 81.029
v 13.207 -19.794 81.029
v 12.829 -18.672 81.029
v 12.373 -17.586 81.029
v 11.840 -16.542 81.029
v 11.234 -15.548 81.029
v 10.559 -14.609 81.029
v 9.819 -13.731 81.029
v 9.018 -12.919 81.029
v 8.162 -12.179 81.029
v 7.256 -11.514 81.029
v 6.304 -10.930 81.029
v 5.314 -10.429 81.029
v 4.291 -10.015 81.029
v 3.242 -9.691 81.029
v 2.172 -9.457 81.029
v 1.090 -9.317 81.029
v 0.000 -9.270 81.029
v -1.090 -9.317 81.029
v -2.172 -9.457 81.029
v -3.242 -9.691 81.029
v -4.291 -10.015 81.029
v -5.314 -10.429 81.029
v -6.304 -10.930 81.029
v -7.256 -11.514 81.029
v -8.162 -12.179 81.029
v -9.018 -12.919 81.029
v -9.819 -13.731 81.029
v -10.559 -14.609 81.029
v -11.234 -15.548 81.029
v -11.840 -16.542 81.029
v -12.373 -17.586 81.029
v -12.829 -18.672 81.029
v -13.207 -19.794 81.029
v -13.503 -20.945 81.029
v -13.715 -22.117 81.029
v -13.844 -23.305 81.029
v -13.886 -24.500 81.029
vt 0.00000 1.00000
vt 0.02500 1.00000
vt 0.05000 1.00000
vt 0.07500 1.00000
vt 0.10000 1.00000
vt 0.12500 1.00000
vt 0.15000 1.00000
vt 0.17500 1.00000
vt 0.20000 1.00000
vt 0.22500 1.00000
vt 0.25000 1.00000
vt 0.27500 1.00000
vt 0.30000 1.00000
vt 0.32500 1.00000
vt 0.35000 1.00000
vt 0.37500 1.00000
vt 0.40000 1.00000
vt 0.42500 1.00000
vt 0.45000 1.00000
vt 0.47500 1.00000
vt 0.50000 1.00000
vt 0.52500 1.00000
vt 0.55000 1.00000
vt 0.57500 1.00000
vt 0.60000 1.00000
vt 0.62500 1.00000
vt 0.65000 1.00000
vt 0.67500 1.00000
vt 0.70000 1.00000
vt 0.72500 1.00000
vt 0.75000 1.00000
vt 0.77500 1.00000
vt 0.80000 1.00000
vt 0.82500 1.00000
vt 0.85000 1.00000
vt 0.87500 1.00000
vt 0.90000 1.00000
vt 0.92500 1.00000
vt 0.95000 1.00000
vt 0.97500 1.00000
vt 1.00000 1.00000
vt 0.00000 0.93750
vt 0.02500 0.93750
vt 0.05000 0.93750
vt 0.07500 0.93750
vt 0.10000 0.93750
vt 0.12500 0.93750
vt 0.15000 0.93750
vt 0.17500 0.93750
vt 0.20000 0.93750
vt 0.22500 0.93750
vt 0.25000 0.93750
vt 0.27500 0.93750
vt 0.30000 0.93750
vt 0.32500 0.93750
vt 0.35000 0.93750
vt 0.37500 0.93750
vt 0.40000 0.93750
vt 0.42500 0.93750
vt 0.45000 0.93750
vt 0.47500 0.93750
vt 0.50000 0.93750
vt 0.52500 0.93750
vt 0.55000 0.93750
vt 0.57500 0.93750
vt 0.60000 0.93750
vt 0.62500 0.93750
vt 0.65000 0.93750
vt 0.67500 0.93750
vt 0.70000 0.93750
vt 0.72500 0.93750
vt 0.75000 0.93750
vt 0.77500 0.93750
vt 0.80000 0.93750
vt 0.82500 0.93750
vt 0.85000 0.93750
vt 0.87500 0.93750
vt 0.90000 0.93750
vt 0.92500 0.93750
vt 0.95000 0.93750
vt 0.97500 0.93750
vt 1.00000 0.93750
vt 0.00000 0.87500
vt 0.02500 0.87500
vt 0.05000 0.87500
vt 0.07500 0.87500
vt 0.10000 0.87500
vt 0.12500 0.87500
vt 0.15000 0.87500
vt 0.17500 0.87500
vt 0.20000 0.87500
vt 0.22500 0.87500
vt 0.25000 0.87500
vt 0.27500 0.87500
vt 0.30000 0.87500
vt 0.32500 0.87500
vt 0.35000 0.87500
vt 0.37500 0.87500
vt 0.40000 0.87500
vt 0.42500 0.87500
vt 0.45000 0.87500
vt 0.47500 0.87500
vt 0.50000 0.87500
vt 0.52500 0.87500
vt 0.55000 0.87500
vt 0.57500 0.87500
vt 0.60000 0.87500
vt 0.62500 0.87500
vt 0.65000 0.87500
vt 0.67500 0.87500
vt 0.70000 0.87500
vt 0.72500 0.87500
vt 0.75000 0.87500
vt 0.77500 0.87500
vt 0.80000 0.87500
vt 0.82500 0.87500
vt 0.85000 0.87500
vt 0.87500 0.87500
vt 0.90000 0.87500
vt 0.92500 0.87500
vt 0.95000 0.87500
vt 0.97500 0.87500
vt 1.00000 0.87500
vt 0.00000 0.81250
vt 0.02500 0.81250
vt 0.05000 0.81250
vt 0.07500 0.81250
vt 0.10000 0.81250
vt 0.12500 0.81250
vt 0.15000 0.81250
vt 0.17500 0.81250
vt 0.20000 0.81250
vt 0.22500 0.81250
vt 0.25000 0.81250
vt 0.27500 0.81250
vt 0.30000 0.81250
vt 0.32500 0.81250
vt 0.35000 0.81250
vt 0.37500 0.81250
vt 0.40000 0.81250
vt 0.42500 0.81250
vt 0.45000 0.81250
vt 0.47500 0.81250
vt 0.50000 0.81250
vt 0.52500 0.81250
vt 0.55000 0.81250
vt 0.57500 0.81250
vt 0.60000 0.81250
vt 0.62500 0.81250
vt 0.65000 0.81250
vt 0.67500 0.81250
vt 0.70000 0.81250
vt 0.72500 0.81250
vt 0.75000 0.81250
vt 0.77500 0.81250
vt 0.80000 0.81250
vt 0.82500 0.81250
vt 0.85000 0.81250
vt 0.87500 0.81250
vt 0.90000 0.81250
vt 0.92500 0.81250
vt 0.95000 0.81250
vt 0.97500 0.81250
vt 1.00000 0.81250
vt 0.00000 0.75000
vt 0.02500 0.75000
vt 0.05000 0.75000
vt 0.07500 0.75000
vt 0.10000 0.75000
vt 0.12500 0.75000
vt 0.15000 0.75000
vt 0.17500 0.75000
vt 0.20000 0.75000
vt 0.22500 0.75000
vt 0.25000 0.75000
vt 0.27500 0.75000
vt 0.30000 0.75000
vt 0.32500 0.75000
vt 0.35000 0.75000
vt 0.37500 0.75000
vt 0.40000 0.75000
vt 0.42500 0.75000
vt 0.45000 0.75000
vt 0.47500 0.75000
vt 0.50000 0.75000
vt 0.52500 0.75000
vt 0.55000 0.75000
vt 0.57500 0.75000
vt 0.60000 0.75000
vt 0.62500 0.75000
vt 0.65000 0.75000
vt 0.67500 0.75000
vt 0.70000 0.75000
vt 0.72500 0.75000
vt 0.75000 0.75000
vt 0.77500 0.75000
vt 0.80000 0.75000
vt 0.82500 0.75000
vt 0.85000 0.75000
vt 0.87500 0.75000
vt 0.90000 0.75000
vt 0.92500 0.75000
vt 0.95000 0.75000
vt 0.97500 0.75000
vt 1.00000 0.75000
vt 0.00000 0.68750
vt 0.02500 0.68750
vt 0.05000 0.68750
vt 0.07500 0.68750
vt 0.10000 0.68750
vt 0.12500 0.68750
vt 0.15000 0.68750
vt 0.17500 0.68750
vt 0.20000 0.68750
vt 0.22500 0.68750
vt 0.25000 0.68750
vt 0.27500 0.68750
vt 0.30000 0.68750
vt 0.32500 0.68750
vt 0.35000 0.68750
vt 0.37500 0.68750
vt 0.40000 0.68750
vt 0.42500 0.68750
vt 0.45000 0.68750
vt 0.47500 0.68750
vt 0.50000 0.68750
vt 0.52500 0.68750
vt 0.55000 0.68750
vt 0.57500 0.68750
vt 0.60000 0.68750
vt 0.62500 0.68750
vt 0.65000 0.68750
vt 0.67500 0.68750
vt 0.70000 0.68750
vt 0.72500 0.68750
vt 0.75000 0.68750
vt 0.77500 0.68750
vt 0.80000 0.68750
vt 0.82500 0.68750
vt 0.85000 0.68750
vt 0.87500 0.68750
vt 0.90000 0.68750
vt 0.92500 0.68750
vt 0.95000 0.68750
vt 0.97500 0.68750
vt 1.00000 0.68750
vt 0.00000 0.62500
vt 0.02500 0.62500
vt 0.05000 0.62500
vt 0.07500 0.62500
vt 0.10000 0.62500
vt 0.12500 0.62500
vt 0.15000 0.62500
vt 0.17500 0.62500
vt 0.20000 0.62500
vt 0.22500 0.62500
vt 0.25000 0.62500
vt 0.27500 0.62500
vt 0.30000 0.62500
vt 0.32500 0.62500
vt 0.35000 0.62500
vt 0.37500 0.62500
vt 0.40000 0.62500
vt 0.42500 0.62500
vt 0.45000 0.62500
vt 0.47500 0.62500
vt 0.50000 0.62500
vt 0.52500 0.62500
vt 0.55000 0.62500
vt 0.57500 0.62500
vt 0.60000 0.62500
vt 0.62500 0.62500
vt 0.65000 0.62500
vt 0.67500 0.62500
vt 0.70000 0.62500
vt 0.72500 0.62500
vt 0.75000 0.62500
vt 0.77500 0.62500
vt 0.80000 0.62500
vt 0.82500 0.62500
vt 0.85000 0.62500
vt 0.87500 0.62500
vt 0.90000 0.62500
vt 0.92500 0.62500
vt 0.95000 0.62500
vt 0.97500 0.62500
vt 1.00000 0.62500
vt 0.00000 0.56250
vt 0.02500 0.56250
vt 0.05000 0.56250
vt 0.07500 0.56250
vt 0.10000 0.56250
vt 0.12500 0.56250
vt 0.15000 0.56250
vt 0.17500 0.56250
vt 0.20000 0.56250
vt 0.22500 0.56250
vt 0.25000 0.56250
vt 0.27500 0.56250
vt 0.30000 0.56250
vt 0.32500 0.56250
vt 0.35000 0.56250
vt 0.37500 0.56250
vt 0.40000 0.56250
vt 0.42500 0.56250
vt 0.45000 0.56250
vt 0.47500 0.56250
vt 0.50000 0.56250
vt 0.52500 0.56250
vt 0.55000 0.56250
vt 0.57500 0.56250
vt 0.60000 0.56250
vt 0.62500 0.56250
vt 0.65000 0.56250
vt 0.67500 0.56250
vt 0.70000 0.56250
vt 0.72500 0.56250
vt 0.75000 0.56250
vt 0.77500 0.56250
vt 0.80000 0.56250
vt 0.82500 0.56250
vt 0.85000 0.56250
vt 0.87500 0.56250
vt 0.90000 0.56250
vt 0.92500 0.56250
vt 0.95000 0.56250
vt 0.97500 0.56250
vt 1.00000 0.56250
vt 0.00000 0.50000
vt 0.02500 0.50000
vt 0.05000 0.50000
vt 0.07500 0.50000
vt 0.10000 0.50000
vt 0.12500 0.50000
vt 0.15000 0.50000
vt 0.17500 0.50000
vt 0.20000 0.50000
vt 0.22500 0.50000
vt 0.25000 0.50000
vt 0.27500 0.50000
vt 0.30000 0.50000
vt 0.32500 0.50000
vt 0.35000 0.50000
vt 0.37500 0.50000
vt 0.40000 0.50000
vt 0.42500 0.50000
vt 0.45000 0.50000
vt 0.47500 0.50000
vt 0.50000 0.50000
vt 0.52500 0.50000
vt 0.55000 0.50000
vt 0.57500 0.50000
vt 0.60000 0.50000
vt 0.62500 0.50000
vt 0.65000 0.50000
vt 0.67500 0.50000
vt 0.70000 0.50000
vt 0.72500 0.50000
vt 0.75000 0.50000
vt 0.77500 0.50000
vt 0.80000 0.50000
vt 0.82500 0.50000
vt 0.85000 0.50000
vt 0.87500 0.50000
vt 0.90000 0.50000
vt 0.92500 0.50000
vt 0.95000 0.50000
vt 0.97500 0.50000
vt 1.00000 0.50000
vt 0.00000 0.43750
vt 0.02500 0.43750
vt 0.05000 0.43750
vt 0.07500 0.43750
vt 0.10000 0.43750
vt 0.12500 0.43750
vt 0.15000 0.43750
vt 0.17500 0.43750
vt 0.20000 0.43750
vt 0.22500 0.43750
vt 0.25000 0.43750
vt 0.27500 0.43750
vt 0.30000 0.43750
vt 0.32500 0.43750
vt 0.35000 0.43750
vt 0.37500 0.43750
vt 0.40000 0.43750
vt 0.42500 0.43750
vt 0.45000 0.43750
vt 0.47500 0.43750
vt 0.50000 0.43750
vt 0.52500 0.43750
vt 0.55000 0.43750
vt 0.57500 0.43750
vt 0.60000 0.43750
vt 0.62500 0.43750
vt 0.65000 0.43750
vt 0.67500 0.43750
vt 0.70000 0.43750
vt 0.72500 0.43750
vt 0.75000 0.43750
vt 0.77500 0.43750
vt 0.80000 0.43750
vt 0.82500 0.43750
vt 0.85000 0.43750
vt 0.87500 0.43750
vt 0.90000 0.43750
vt 0.92500 0.43750
vt 0.95000 0.43750
vt 0.97500 0.43750
vt 1.00000 0.43750
vt 0.00000 0.37500
vt 0.02500 0.37500
vt 0.05000 0.37500
vt 0.07500 0.37500
vt 0.10000 0.37500
vt 0.12500 0.37500
vt 0.15000 0.37500
vt 0.17500 0.37500
vt 0.20000 0.37500
vt 0.22500 0.37500
vt 0.25000 0.37500
vt 0.27500 0.37500
vt 0.30000 0.37500
vt 0.32500 0.37500
vt 0.35000 0.37500
vt 0.37500 0.37500
vt 0.40000 0.37500
vt 0.42500 0.37500
vt 0.45000 0.37500
vt 0.47500 0.37500
vt 0.50000 0.37500
vt 0.52500 0.37500
vt 0.55000 0.37500
vt 0.57500 0.37500
vt 0.60000 0.37500
vt 0.62500 0.37500
vt 0.65000 0.37500
vt 0.67500 0.37500
vt 0.70000 0.37500
vt 0.72500 0.37500
vt 0.75000 0.37500
vt 0.77500 0.37500
vt 0.80000 0.37500
vt 0.82500 0.37500
vt 0.85000 0.37500
vt 0.87500 0.37500
vt 0.90000 0.37500
vt 0.92500 0.37500
vt 0.95000 0.37500
vt 0.97500 0.37500
vt 1.00000 0.37500
vt 0.00000 0.31250
vt 0.02500 0.31250
vt 0.05000 0.31250
vt 0.07500 0.31250
vt 0.10000 0.31250
vt 0.12500 0.31250
vt 0.15000 0.31250
vt 0.17500 0.31250
vt 0.20000 0.31250
vt 0.22500 0.31250
vt 0.25000 0.31250
vt 0.27500 0.31250
vt 0.30000 0.31250
vt 0.32500 0.31250
vt 0.35000 0.31250
vt 0.37500 0.31250
vt 0.40000 0.31250
vt 0.42500 0.31250
vt 0.45000 0.31250
vt 0.47500 0.31250
vt 0.50000 0.31250
vt 0.52500 0.31250
vt 0.55000 0.31250
vt 0.57500 0.31250
vt 0.60000 0.31250
vt 0.62500 0.31250
vt 0.65000 0.31250
vt 0.67500 0.31250
vt 0.70000 0.31250
vt 0.72500 0.31250
vt 0.75000 0.31250
vt 0.77500 0.31250
vt 0.80000 0.31250
vt 0.82500 0.31250
vt 0.85000 0.31250
vt 0.87500 0.31250
vt 0.90000 0.31250
vt 0.92500 0.31250
vt 0.95000 0.31250
vt 0.97500 0.31250
vt 1.00000 0.31250
vt 0.00000 0.25000
vt 0.02500 0.25000
vt 0.05000 0.25000
vt 0.07500 0.25000
vt 0.10000 0.25000
vt 0.12500 0.25000
vt 0.15000 0.25000
vt 0.17500 0.25000
vt 0.20000 0.25000
vt 0.22500 0.25000
vt 0.25000 0.25000
vt 0.27500 0.25000
vt 0.30000 0.25000
vt 0.32500 0.25000
vt 0.35000 0.25000
vt 0.37500 0.25000
vt 0.40000 0.25000
vt 0.42500 0.25000
vt 0.45000 0.25000
vt 0.47500 0.25000
vt 0.50000 0.25000
vt 0.52500 0.25000
vt 0.55000 0.25000
vt 0.57500 0.25000
vt 0.60000 0.25000
vt 0.62500 0.25000
vt 0.65000 0.25000
vt 0.67500 0.25000
vt 0.70000 0.25000
vt 0.72500 0.25000
vt 0.75000 0.25000
vt 0.77500 0.25000
vt 0.80000 0.25000
vt 0.82500 0.25000
vt 0.85000 0.25000
vt 0.87500 0.25000
vt 0.90000 0.25000
vt 0.92500 0.25000
vt 0.95000 0.25000
vt 0.97500 0.25000
vt 1.00000 0.25000
vt 0.00000 0.18750
vt 0.02500 0.18750
vt 0.05000 0.18750
vt 0.07500 0.18750
vt 0.10000 0.18750
vt 0.12500 0.18750
vt 0.15000 0.18750
vt 0.17500 0.18750
vt 0.20000 0.18750
vt 0.22500 0.18750
vt 0.25000 0.18750
vt 0.27500 0.18750
vt 0.30000 0.18750
vt 0.32500 0.18750
vt 0.35000 0.18750
vt 0.37500 0.18750
vt 0.40000 0.18750
vt 0.42500 0.18750
vt 0.45000 0.18750
vt 0.47500 0.18750
vt 0.50000 0.18750
vt 0.52500 0.18750
vt 0.55000 0.18750
vt 0.57500 0.18750
vt 0.60000 0.18750
vt 0.62500 0.18750
vt 0.65000 0.18750
vt 0.67500 0.18750
vt 0.70000 0.18750
vt 0.72500 0.18750
vt 0.75000 0.18750
vt 0.77500 0.18750
vt 0.80000 0.18750
vt 0.82500 0.18750
vt 0.85000 0.18750
vt 0.87500 0.18750
vt 0.90000 0.18750
vt 0.92500 0.18750
vt 0.95000 0.18750
vt 0.97500 0.18750
vt 1.00000 0.18750
vt 0.00000 0.12500
vt 0.02500 0.12500
vt 0.05000 0.12500
vt 0.07500 0.12500
vt 0.10000 0.12500
vt 0.12500 0.12500
vt 0.15000 0.12500
vt 0.17500 0.12500
vt 0.20000 0.12500
vt 0.22500 0.12500
vt 0.25000 0.12500
vt 0.27500 0.12500
vt 0.30000 0.12500
vt 0.32500 0.12500
vt 0.35000 0.12500
vt 0.37500 0.12500
vt 0.40000 0.12500
vt 0.42500 0.12500
vt 0.45000 0.12500
vt 0.47500 0.12500
vt 0.50000 0.12500
vt 0.52500 0.12500
vt 0.55000 0.12500
vt 0.57500 0.12500
vt 0.60000 0.12500
vt 0.62500 0.12500
vt 0.65000 0.12500
vt 0.67500 0.12500
vt 0.70000 0.12500
vt 0.72500 0.12500
vt 0.75000 0.12500
vt 0.77500 0.12500
vt 0.80000 0.12500
vt 0.82500 0.12500
vt 0.85000 0.12500
vt 0.87500 0.12500
vt 0.90000 0.12500
vt 0.92500 0.12500
vt 0.95000 0.12500
vt 0.97500 0.12500
vt 1.00000 0.12500
vt 0.00000 0.06250
vt 0.02500 0.06250
vt 0.05000 0.06250
vt 0.07500 0.06250
vt 0.10000 0.06250
vt 0.12500 0.06250
vt 0.15000 0.06250
vt 0.17500 0.06250
vt 0.20000 0.06250
vt 0.22500 0.06250
vt 0.25000 0.06250
vt 0.27500 0.06250
vt 0.30000 0.06250
vt 0.32500 0.06250
vt 0.35000 0.06250
vt 0.37500 0.06250
vt 0.40000 0.06250
vt 0.42500 0.06250
vt 0.45000 0.06250
vt 0.47500 0.06250
vt 0.50000 0.06250
vt 0.52500 0.06250
vt 0.55000 0.06250
vt 0.57500 0.06250
vt 0.60000 0.06250
vt 0.62500 0.06250
vt 0.65000 0.06250
vt 0.67500 0.06250
vt 0.70000 0.06250
vt 0.72500 0.06250
vt 0.75000 0.06250
vt 0.77500 0.06250
vt 0.80000 0.06250
vt 0.82500 0.06250
vt 0.85000 0.06250
vt 0.87500 0.06250
vt 0.90000 0.06250
vt 0.92500 0.06250
vt 0.95000 0.06250
vt 0.97500 0.06250
vt 1.00000 0.06250
vt 0.00000 0.00000
vt 0.02500 0.00000
vt 0.05000 0.00000
vt 0.07500 0.00000
vt 0.10000 0.00000
vt 0.12500 0.00000
vt 0.15000 0.00000
vt 0.17500 0.00000
vt 0.20000 0.00000
vt 0.22500 0.00000
vt 0.25000 0.00000
vt 0.27500 0.00000
vt 0.30000 0.00000
vt 0.32500 0.00000
vt 0.35000 0.00000
vt 0.37500 0.00000
vt 0.40000 0.00000
vt 0.42500 0.00000
vt 0.45000 0.00000
vt 0.47500 0.00000
vt 0.50000 0.00000
vt 0.52500 0.00000
vt 0.55000 0.00000
vt 0.57500 0.00000
vt 0.60000 0.00000
vt 0.62500 0.00000
vt 0.65000 0.00000
vt 0.67500 0.00000
vt 0.70000 0.00000
vt 0.72500 0.00000
vt 0.75000 0.00000
vt 0.77500 0.00000
vt 0.80000 0.00000
vt 0.82500 0.00000
vt 0.85000 0.00000
vt 0.87500 0.00000
vt 0.90000 0.00000
vt 0.92500 0.00000
vt 0.95000 0.00000
vt 0.97500 0.00000
vt 1.00000 0.00000
f 2/2 1/1 43/43
f 1/1 42/42 43/43
f 3/3 2/2 44/44
f 2/2 43/43 44/44
f 4/4 3/3 45/45
f 3/3 44/44 45/45
f 5/5 4/4 46/46
f 4/4 45/45 46/46
f 6/6 5/5 47/47
f 5/5 46/46 47/47
f 7/7 6/6 48/48
f 6/6 47/47 48/48
f 8/8 7/7 49/49
f 7/7 48/48 49/49
f 9/9 8/8 50/50
f 8/8 49/49 50/50
f 10/10 9/9 51/51
f 9/9 50/50 51/51
f 11/11 10/10 52/52
f 10/10 51/51 52/52
f 12/12 11/11 53/53
f 11/11 52/52 53/53
f 13/13 12/12 54/54
f 12/12 53/53 54/54
f 14/14 13/13 55/55
f 13/13 54/54 55/55
f 15/15 14/14 56/56
f 14/14 55/55 56/56
f 16/16 15/15 57/57
f 15/15 56/56 57/57
f 17/17 16/16 58/58
f 16/16 57/57 58/58
f 18/18 17/17 59/59
f 17/17 58/58 59/59
f 19/19 18/18 60/60
f 18/18 59/59 60/60
f 20/20 19/19 61/61
f 19/19 60/60 61/61
f 21/21 20/20 62/62
f 20/20 61/61 62/62
f 22/22 21/21 63/63
f 21/21 62/62 63/63
f 23/23 22/22 64/64
f 22/22 63/63 64/64
f 24/24 23/23 65/65
f 23/23 64/64 65/65
f 25/25 24/24 66/66
f 24/24 65/65 66/66
f 26/26 25/25 67/67
f 25/25 66/66 67/67
f 27/27 26/26 68/68
f 26/26 67/67 68/68
f 28/28 27/27 69/69
f 27/27 68/68 69/69
f 29/29 28/28 70/70
f 28/28 69/69 70/70
f 30/30 29/29 71/71
f 29/29 70/70 71/71
f 31/31 30/30 72/72
f 30/30 71/71 72/72
f 32/32 31/31 73/73
f 31/31 72/72 73/73
f 33/33 32/32 74/74
f 32/32 73/73 74/74
f 34/34 33/33 75/75
f 33/33 74/74 75/75
f 35/35 34/34 76/76
f 34/34 75/75 76/76
f 36/36 35/35 77/77
f 35/35 76/76 77/77
f 37/37 36/36 78/78
f 36/36 77/77 78/78
f 38/38 37/37 79/79
f 37/37 78/78 79/79
f 39/39 38/38 80/80
f 38/38 79/79 80/80
f 40/40 39/39 81/81
f 39/39 80/80 81/81
f 41/41 40/40 82/82
f 40/40 81/81 82/82
f 43/43 42/42 84/84
f 42/42 83/83 84/84
f 44/44 43/43 85/85
f 43/43 84/84 85/85
f 45/45 44/44 86/86
f 44/44 85/85 86/86
f 46/46 45/45 87/87
f 45/45 86/86 87/87
f 47/47 46/46 88/88
f 46/46 87/87 88/88
f 48/48 47/47 89/89
f 47/47 88/88 89/89
f 49/49 48/48 90/90
f 48/48 89/89 90/90
f 50/50 49/49 91/91
f 49/49 90/90 91/91
f 51/51 50/50 92/92
f 50/50 91/91 92/92
f 52/52 51/51 93/93
f 51/51 92/92 93/93
f 53/53 52/52 94/94
f 52/52 93/93 94/94
f 54/54 53/53 95/95
f 53/53 94/94 95/95
f 55/55 54/54 96/96
f 54/54 95/95 96/96
f 56/56 55/55 97/97
f 55/55 96/96 97/97
f 57/57 56/56 98/98
f 56/56 97/97 98/98
f 58/58 57/57 99/99
f 57/57 98/98 99/99
f 59/59 58/58 100/100
f 58/58 99/99 100/100
f 60/60 59/59 101/101
f 59/59 100/100 101/101
f 61/61 60/60 102/102
f 60/60 101/101 102/102
f 62/62 61/61 103/103
f 61/61 102/102 103/103
f 63/63 62/62 104/104
f 62/62 103/103 104/104
f 64/64 63/63 105/105
f 63/63 104/104 105/105
f 65/65 64/64 106/106
f 64/64 105/105 106/106
f 66/66 65/65 107/107
f 65/65 106/106 107/107
f 67/67 66/66 108/108
f 66/66 107/107 108/108
f 68/68 67/67 109/109
f 67/67 108/108 109/109
f 69/69 68/68 110/110
f 68/68 109/109 110/110
f 70/70 69/69 111/111
f 69/69 110/110 111/111
f 71/71 70/70 112/112
f 70/70 111/111 112/112
f 72/72 71/71 113/113
f 71/71 112/112 113/113
f 73/73 72/72 114/114
f 72/72 113/113 114/114
f 74/74 73/73 115/115
f 73/73 114/114 115/115
f 75/75 74/74 116/116
f 74/74 115/115 116/116
f 76/76 75/75 117/117
f 75/75 116/116 117/117
f 77/77 76/76 118/118
f 76/76 117/117 118/118
f 78/78 77/77 119/119
f 77/77 118/118 119/119
f 79/79 78/78 120/120
f 78/78 119/119 120/120
f 80/80 79/79 121/121
f 79/79 120/120 121/121
f 81/81 80/80 122/122
f 80/80 121/121 122/122
f 82/82 81/81 123/123
f 81/81 122/122 123/123
f 84/84 83/83 125/125
f 83/83 124/124 125/125
f 85/85 84/84 126/126
f 84/84 125/125 126/126
f 86/86 85/85 127/127
f 85/85 126/126 127/127
f 87/87 86/86 128/128
f 86/86 127/127 128/128
f 88/88 87/87 129/129
f 87/87 128/128 129/129
f 89/89 88/88 130/130
f 88/88 129/129 130/130
f 90/90 89/89 131/131
f 89/89 130/130 131/131
f 91/91 90/90 132/132
f 90/90 131/131 132/132
f 92/92 91/91 133/133
f 91/91 132/132 133/133
f 93/93 92/92 134/134
f 92/92 133/133 134/134
f 94/94 93/93 135/135
f 93/93 134/134 135/135
f 95/95 94/94 136/136
f 94/94 135/135 136/136
f 96/96 95/95 137/137
f 95/95 136/136 137/137
f 97/97 96/96 138/138
f 96/96 137/137 138/138
f 98/98 97/97 139/139
f 97/97 138/138 139/139
f 99/99 98/98 140/140
f 98/98 139/139 140/140
f 100/100 99/99 141/141
f 99/99 140/140 141/141
f 101/101 100/100 142/142
f 100/100 141/141 142/142
f 102/102 101/101 143/143
f 101/101 142/142 143/143
f 103/103 102/102 144/144
f 102/102 143/143 144/144
f 104/104 103/103 145/145
f 103/103 144/144 145/145
f 105/105 104/104 146/146
f 104/104 145/145 146/146
f 106/106 105/105 147/147
f 105/105 146/146 147/147
f 107/107 106/106 148/148
f 106/106 147/147 148/148
f 108/108 107/107 149/149
f 107/107 148/148 149/149
f 109/109 108/108 150/150
f 108/108 149/149 150/150
f 110/110 109/109 151/151
f 109/109 150/150 151/151
f 111/111 110/110 152/152
f 110/110 151/151 152/152
f 112/112 111/111 153/153
f 111/111 152/152 153/153
f 113/113 112/112 154/154
f 112/112 153/153 154/154
f 114/114 113/113 155/155
f 113/113 154/154 155/155
f 115/115 114/114 156/156
f 114/114 155/155 156/156
f 116/116 115/115 157/157
f 115/115 156/156 157/157
f 117/117 116/116 158/158
f 116/116 157/157 158/158
f 118/118 117/117 159/159
f 117/117 158/158 159/159
f 119/119 118/118 160/160
f 118/118 159/159 160/160
f 120/120 119/119 161/161
f 119/119 160/160 161/161
f 121/121 120/120 162/162
f 120/120 161/161 162/162
f 122/122 121/121 163/163
f 121/121 162/162 163/163
f 123/123 122/122 164/164
f 122/122 163/163 164/164
f 125/125 124/124 166/166
f 124/124 165/165 166/166
f 126/126 125/125 167/167
f 125/125 166/166 167/167
f 127/127 126/126 168/168
f 126/126 167/167 168/168
f 128/128 127/127 169/169
f 127/127 168/168 169/169
f 129/129 128/128 170/170
f 128/128 169/169 170/170
f 130/130 129/129 171/171
f 129/129 170/170 171/171
f 131/131 130/130 172/172
f 130/130 171/171 172/172
f 132/132 131/131 173/173
f 131/131 172/172 173/173
f 133/133 132/132 174/174
f 132/132 173/173 174/174
f 134/134 133/133 175/175
f 133/133 174/174 175/175
f 135/135 134/134 176/176
f 134/134 175/175 176/176
f 136/136 135/135 177/177
f 135/135 176/176 177/177
f 137/137 136/136 178/178
f 136/136 177/177 178/178
f 138/138 137/137 179/179
f 137/137 178/178 179/179
f 139/139 138/138 180/180
f 138/138 179/179 180/180
f 140/140 139/139 181/181
f 139/139 180/180 181/181
f 141/141 140/140 182/182
f 140/140 181/181 182/182
f 142/142 141/141 183/183
f 141/141 182/182 183/183
f 143/143 142/142 184/184
f 142/142 183/183 184/184
f 144/144 143/143 185/185
f 143/143 184/184 185/185
f 145/145 144/144 186/186
f 144/144 185/185 186/186
f 146/146 145/145 187/187
f 145/145 186/186 187/187
f 147/147 146/146 188/188
f 146/146 187/187 188/188
f 148/148 147/147 189/189
f 147/147 188/188 189/189
f 149/149 148/148 190/190
f 148/148 189/189 190/190
f 150/150 149/149 191/191
f 149/149 190/190 191/191
f 151/151 150/150 192/192
f 150/150 191/191 192/192
f 152/152 151/151 193/193
f 151/151 192/192 193/193
f 153/153 152/152 194/194
f 152/152 193/193 194/194
f 154/154 153/153 195/195
f 153/153 194/194 195/195
f 155/155 154/154 196/196
f 154/154 195/195 196/196
f 156/156 155/155 197/197
f 155/155 196/196 197/197
f 157/157 156/156 198/198
f 156/156 197/197 198/198
f 158/158 157/157 199/199
f 157/157 198/198 199/199
f 159/159 158/158 200/200
f 158/158 199/199 200/200
f 160/160 159/159 201/201
f 159/159 200/200 201/201
f 161/161 160/160 202/202
f 160/160 201/201 202/202
f 162/162 161/161 203/203
f 161/161 202/202 203/203
f 163/163 162/162 204/204
f 162/162 203/203 204/204
f 164/164 163/163 205/205
f 163/163 204/204 205/205
f 166/166 165/165 207/207
f 165/165 206/206 207/207
f 167/167 166/166 208/208
f 166/166 207/207 208/208
f 168/168 167/167 209/209
f 167/167 208/208 209/209
f 169/169 168/168 210/210
f 168/168 209/209 210/210
f 170/170 169/169 211/211
f 169/169 210/210 211/211
f 171/171 170/170 212/212
f 170/170 211/211 212/212
f 172/172 171/171 213/213
f 171/171 212/212 213/213
f 173/173 172/172 214/214
f 172/172 213/213 214/214
f 174/174 173/173 215/215
f 173/173 214/214 215/215
f 175/175 174/174 216/216
f 174/174 215/215 216/216
f 176/176 175/175 217/217
f 175/175 216/216 217/217
f 177/177 176/176 218/218
f 176/176 217/217 218/218
f 178/178 177/177 219/219
f 177/177 218/218 219/219
f 179/179 178/178 220/220
f 178/178 219/219 220/220
f 180/180 179/179 221/221
f 179/179 220/220 221/221
f 181/181 180/180 222/222
f 180/180 221/221 222/222
f 182/182 181/181 223/223
f 181/181 222/222 223/223
f 183/183 182/182 224/224
f 182/182 223/223 224/224
f 184/184 183/183 225/225
f 183/183 224/224 225/225
f 185/185 184/184 226/226
f 184/184 225/225 226/226
f 186/186 185/185 227/227
f 185/185 226/226 227/227
f 187/187 186/186 228/228
f 186/186 227/227 228/228
f 188/188 187/187 229/229
f 187/187 228/228 229/229
f 189/189 188/188 230/230
f 188/188 229/229 230/230
f 190/190 189/189 231/231
f 189/189 230/230 231/231
f 191/191 190/190 232/232
f 190/190 231/231 232/232
f 192/192 191/191 233/233
f 191/191 232/232 233/233
f 193/193 192/192 234/234
f 192/192 233/233 234/234
f 194/194 193/193 235/235
f 193/193 234/234 235/235
f 195/195 194/194 236/236
f 194/194 235/235 236/236
f 196/196 195/195 237/237
f 195/195 236/236 237/237
f 197/197 196/196 238/238
f 196/196 237/237 238/238
f 198/198 197/197 239/239
f 197/197 238/238 239/239
f 199/199 198/198 240/240
f 198/198 239/239 240/240
f 200/200 199/199 241/241
f 199/199 240/240 241/241
f 201/201 200/200 242/242
f 200/200 241/241 242/242
f 202/202 201/201 243/243
f 201/201 242/242 243/243
f 203/203 202/202 244/244
f 202/202 243/243 244/244
f 204/204 203/203 245/245
f 203/203 244/244 245/245
f 205/205 204/204 246/246
f 204/204 245/245 246/246
f 207/207 206/206 248/248
f 206/206 247/247 248/248
f 208/208 207/207 249/249
f 207/207 248/248 249/249
f 209/209 208/208 250/250
f 208/208 249/249 250/250
f 210/210 209/209 251/251
f 209/209 250/250 251/251
f 211/211 210/210 252/252
f 210/210 251/251 252/252
f 212/212 211/211 253/253
f 211/211 252/252 253/253
f 213/213 212/212 254/254
f 212/212 253/253 254/254
f 214/214 213/213 255/255
f 213/213 254/254 255/255
f 215/215 214/214 256/256
f 214/214 255/255 256/256
f 216/216 215/215 257/257
f 215/215 256/256 257/257
f 217/217 216/216 258/258
f 216/216 257/257 258/258
f 218/218 217/217 259/259
f 217/217 258/258 259/259
f 219/219 218/218 260/260
f 218/218 259/259 260/260
f 220/220 219/219 261/261
f 219/219 260/260 261/261
f 221/221 220/220 262/262
f 220/220 261/261 262/262
f 222/222 221/221 263/263
f 221/221 262/262 263/263
f 223/223 222/222 264/264
f 222/222 263/263 264/264
f 224/224 223/223 265/265
f 223/223 264/264 265/265
f 225/225 224/224 266/266
f 224/224 265/265 266/266
f 226/226 225/225 267/267
f 225/225 266/266 267/267
f 227/227 226/226 268/268
f 226/226 267/267 268/268
f 228/228 227/227 269/269
f 227/227 268/268 269/269
f 229/229 228/228 270/270
f 228/228 269/269 270/270
f 230/230 229/229 271/271
f 229/229 270/270 271/271
f 231/231 230/230 272/272
f 230/230 271/271 272/272
f 232/232 231/231 273/273
f 231/231 272/272 273/273
f 233/233 232/232 274/274
f 232/232 273/273 274/274
f 234/234 233/233 275/275
f 233/233 274/274 275/275
f 235/235 234/234 276/276
f 234/234 275/275 276/276
f 236/236 235/235 277/277
f 235/235 276/276 277/277
f 237/237 236/236 278/278
f 236/236 277/277 278/278
f 238/238 237/237 279/279
f 237/237 278/278 279/279
f 239/239 238/238 280/280
f 238/238 279/279 280/280
f 240/240 239/239 281/281
f 239/239 280/280 281/281
f 241/241 240/240 282/282
f 240/240 281/281 282/282
f 242/242 241/241 283/283
f 241/241 282/282 283/283
f 243/243 242/242 284/284
f 242/242 283/283 284/284
f 244/244 243/243 285/285
f 243/243 284/284 285/285
f 245/245 244/244 286/286
f 244/244 285/285 286/286
f 246/246 245/245 287/287
f 245/245 286/286 287/287
f 248/248 247/247 289/289
f 247/247 288/288 289/289
f 249/249 248/248 290/290
f 248/248 289/289 290/290
f 250/250 249/249 291/291
f 249/249 290/290 291/291
f 251/251 250/250 292/292
f 250/250 291/291 292/292
f 252/252 251/251 293/293
f 251/251 292/292 293/293
f 253/253 252/252 294/294
f 252/252 293/293 294/294
f 254/254 253/253 295/295
f 253/253 294/294 295/295
f 255/255 254/254 296/296
f 254/254 295/295 296/296
f 256/256 255/255 297/297
f 255/255 296/296 297/297
f 257/257 256/256 298/298
f 256/256 297/297 298/298
f 258/258 257/257 299/299
f 257/257 298/298 299/299
f 259/259 258/258 300/300
f 258/258 299/299 300/300
f 260/260 259/259 301/301
f 259/259 300/300 301/301
f 261/261 260/260 302/302
f 260/260 301/301 302/302
f 262/262 261/261 303/303
f 261/261 302/302 303/303
f 263/263 262/262 304/304
f 262/262 303/303 304/304
f 264/264 263/263 305/305
f 263/263 304/304 305/305
f 265/265 264/264 306/306
f 264/264 305/305 306/306
f 266/266 265/265 307/307
f 265/265 306/306 307/307
f 267/267 266/266 308/308
f 266/266 307/307 308/308
f 268/268 267/267 309/309
f 267/267 308/308 309/309
f 269/269 268/268 310/310
f 268/268 309/309 310/310
f 270/270 269/269 311/311
f 269/269 310/310 311/311
f 271/271 270/270 312/312
f 270/270 311/311 312/312
f 272/272 271/271 313/313
f 271/271 312/312 313/313
f 273/273 272/272 314/314
f 272/272 313/313 314/314
f 274/274 273/273 315/315
f 273/273 314/314 315/315
f 275/275 274/274 316/316
f 274/274 315/315 316/316
f 276/276 275/275 317/317
f 275/275 316/316 317/317
f 277/277 276/276 318/318
f 276/276 317/317 318/318
f 278/278 277/277 319/319
f 277/277 318/318 319/319
f 279/279 278/278 320/320
f 278/278 319/319 320/320
f 280/280 279/279 321/321
f 279/279 320/320 321/321
f 281/281 280/280 322/322
f 280/280 321/321 322/322
f 282/282 281/281 323/323
f 281/281 322/322 323/323
f 283/283 282/282 324/324
f 282/282 323/323 324/324
f 284/284 283/283 325/325
f 283/283 324/324 325/325
f 285/285 284/284 326/326
f 284/284 325/325 326/326
f 286/286 285/285 327/327
f 285/285 326/326 327/327
f 287/287 286/286 328/328
f 286/286 327/327 328/328
f 289/289 288/288 330/330
f 288/288 329/329 330/330
f 290/290 289/289 331/331
f 289/289 330/330 331/331
f 291/291 290/290 332/332
f 290/290 331/331 332/332
f 292/292 291/291 333/333
f 291/291 332/332 333/333
f 293/293 292/292 334/334
f 292/292 333/333 334/334
f 294/294 293/293 335/335
f 293/293 334/334 335/335
f 295/295 294/294 336/336
f 294/294 335/335 336/336
f 296/296 295/295 337/337
f 295/295 336/336 337/337
f 297/297 296/296 338/338
f 296/296 337/337 338/338
f 298/298 297/297 339/339
f 297/297 338/338 339/339
f 299/299 298/298 340/340
f 298/298 339/339 340/340
f 300/300 299/299 341/341
f 299/299 340/340 341/341
f 301/301 300/300 342/342
f 300/300 341/341 342/342
f 302/302 301/301 343/343
f 301/301 342/342 343/343
f 303/303 302/302 344/344
f 302/302 343/343 344/344
f 304/304 303/303 345/345
f 303/303 344/344 345/345
f 305/305 304/304 346/346
f 304/304 345/345 346/346
f 306/306 305/305 347/347
f 305/305 346/346 347/347
f 307/307 306/306 348/348
f 306/306 347/347 348/348
f 308/308 307/307 349/349
f 307/307 348/348 349/349
f 309/309 308/308 350/350
f 308/308 349/349 350/350
f 310/310 309/309 351/351
f 309/309 350/350 351/351
f 311/311 310/310 352/352
f 310/310 351/351 352/352
f 312/312 311/311 353/353
f 311/311 352/352 353/353
f 313/313 312/312 354/354
f 312/312 353/353 354/354
f 314/314 313/313 355/355
f 313/313 354/354 355/355
f 315/315 314/314 356/356
f 314/314 355/355 356/356
f 316/316 315/315 357/357
f 315/315 356/356 357/357
f 317/317 316/316 358/358
f 316/316 357/357 358/358
f 318/318 317/317 359/359
f 317/317 358/358 359/359
f 319/319 318/318 360/360
f 318/318 359/359 360/360
f 320/320 319/319 361/361
f 319/319 360/360 361/361
f 321/321 320/320 362/362
f 320/320 361/361 362/362
f 322/322 321/321 363/363
f 321/321 362/362 363/363
f 323/323 322/322 364/364
f 322/322 363/363 364/364
f 324/324 323/323 365/365
f 323/323 364/364 365/365
f 325/325 324/324 366/366
f 324/324 365/365 366/366
f 326/326 325/325 367/367
f 325/325 366/366 367/367
f 327/327 326/326 368/368
f 326/326 367/367 368/368
f 328/328 327/327 369/369
f 327/327 368/368 369/369
f 330/330 329/329 371/371
f 329/329 370/370 371/371
f 331/331 330/330 372/372
f 330/330 371/371 372/372
f 332/332 331/331 373/373
f 331/331 372/372 373/373
f 333/333 332/332 374/374
f 332/332 373/373 374/374
f 334/334 333/333 375/375
f 333/333 374/374 375/375
f 335/335 334/334 376/376
f 334/334 375/375 376/376
f 336/336 335/335 377/377
f 335/335 376/376 377/377
f 337/337 336/336 378/378
f 336/336 377/377 378/378
f 338/338 337/337 379/379
f 337/337 378/378 379/379
f 339/339 338/338 380/380
f 338/338 379/379 380/380
f 340/340 339/339 381/381
f 339/339 380/380 381/381
f 341/341 340/340 382/382
f 340/340 381/381 382/382
f 342/342 341/341 383/383
f 341/341 382/382 383/383
f 343/343 342/342 384/384
f 342/342 383/383 384/384
f 344/344 343/343 385/385
f 343/343 384/384 385/385
f 345/345 344/344 386/386
f 344/344 385/385 386/386
f 346/346 345/345 387/387
f 345/345 386/386 387/387
f 347/347 346/346 388/388
f 346/346 387/387 388/388
f 348/348 347/347 389/389
f 347/347 388/388 389/389
f 349/349 348/348 390/390
f 348/348 389/389 390/390
f 350/350 349/349 391/391
f 349/349 390/390 391/391
f 351/351 350/350 392/392
f 350/350 391/391 392/392
f 352/352 351/351 393/393
f 351/351 392/392 393/393
f 353/353 352/352 394/394
f 352/352 393/393 394/394
f 354/354 353/353 395/395
f 353/353 394/394 395/395
f 355/355 354/354 396/396
f 354/354 395/395 396/396
f 356/356 355/355 397/397
f 355/355 396/396 397/397
f 357/357 356/356 398/398
f 356/356 397/397 398/398
f 358/358 357/357 399/399
f 357/357 398/398 399/399
f 359/359 358/358 400/400
f 358/358 399/399 400/400
f 360/360 359/359 401/401
f 359/359 400/400 401/401
f 361/361 360/360 402/402
f 360/360 401/401 402/402
f 362/362 361/361 403/403
f 361/361 402/402 403/403
f 363/363 362/362 404/404
f 362/362 403/403 404/404
f 364/364 363/363 405/405
f 363/363 404/404 405/405
f 365/365 364/364 406/406
f 364/364 405/405 406/406
f 366/366 365/365 407/407
f 365/365 406/406 407/407
f 367/367 366/366 408/408
f 366/366 407/407 408/408
f 368/368 367/367 409/409
f 367/367 408/408 409/409
f 369/369 368/368 410/410
f 368/368 409/409 410/410
f 371/371 370/370 412/412
f 370/370 411/411 412/412
f 372/372 371/371 413/413
f 371/371 412/412 413/413
f 373/373 372/372 414/414
f 372/372 413/413 414/414
f 374/374 373/373 415/415
f 373/373 414/414 415/415
f 375/375 374/374 416/416
f 374/374 415/415 416/416
f 376/376 375/375 417/417
f 375/375 416/416 417/417
f 377/377 376/376 418/418
f 376/376 417/417 418/418
f 378/378 377/377 419/419
f 377/377 418/418 419/419
f 379/379 378/378 420/420
f 378/378 419/419 420/420
f 380/380 379/379 421/421
f 379/379 420/420 421/421
f 381/381 380/380 422/422
f 380/380 421/421 422/422
f 382/382 381/381 423/423
f 381/381 422/422 423/423
f 383/383 382/382 424/424
f 382/382 423/423 424/424
f 384/384 383/383 425/425
f 383/383 424/424 425/425
f 385/385 384/384 426/426
f 384/384 425/425 426/426
f 386/386 385/385 427/427
f 385/385 426/426 427/427
f 387/387 386/386 428/428
f 386/386 427/427 428/428
f 388/388 387/387 429/429
f 387/387 428/428 429/429
f 389/389 388/388 430/430
f 388/388 429/429 430/430
f 390/390 389/389 431/431
f 389/389 430/430 431/431
f 391/391 390/390 432/432
f 390/390 431/431 432/432
f 392/392 391/391 433/433
f 391/391 432/432 433/433
f 393/393 392/392 434/434
f 392/392 433/433 434/434
f 394/394 393/393 435/435
f 393/393 434/434 435/435
f 395/395 394/394 436/436
f 394/394 435/435 436/436
f 396/396 395/395 437/437
f 395/395 436/436 437/437
f 397/397 396/396 438/438
f 396/396 437/437 438/438
f 398/398 397/397 439/439
f 397/397 438/438 439/439
f 399/399 398/398 440/440
f 398/398 439/439 440/440
f 400/400 399/399 441/441
f 399/399 440/440 441/441
f 401/401 400/400 442/442
f 400/400 441/441 442/442
f 402/402 401/401 443/443
f 401/401 442/442 443/443
f 403/403 402/402 444/444
f 402/402 443/443 444/444
f 404/404 403/403 445/445
f 403/403 444/444 445/445
f 405/405 404/404 446/446
f 404/404 445/445 446/446
f 406/406 405/405 447/447
f 405/405 446/446 447/447
f 407/407 406/406 448/448
f 406/406 447/447 448/448
f 408/408 407/407 449/449
f 407/407 448/448 449/449
f 409/409 408/408 450/450
f 408/408 449/449 450/450
f 410/410 409/409 451/451
f 409/409 450/450 451/451
f 412/412 411/411 453/453
f 411/411 452/452 453/453
f 413/413 412/412 454/454
f 412/412 453/453 454/454
f 414/414 413/413 455/455
f 413/413 454/454 455/455
f 415/415 414/414 456/456
f 414/414 455/455 456/456
f 416/416 415/415 457/457
f 415/415 456/456 457/457
f 417/417 416/416 458/458
f 416/416 457/457 458/458
f 418/418 417/417 459/459
f 417/417 458/458 459/459
f 419/419 418/418 460/460
f 418/418 459/459 460/460
f 420/420 419/419 461/461
f 419/419 460/460 461/461
f 421/421 420/420 462/462
f 420/420 461/461 462/462
f 422/422 421/421 463/463
f 421/421 462/462 463/463
f 423/423 422/422 464/464
f 422/422 463/463 464/464
f 424/424 423/423 465/465
f 423/423 464/464 465/465
f 425/425 424/424 466/466
f 424/424 465/465 466/466
f 426/426 425/425 467/467
f 425/425 466/466 467/467
f 427/427 426/426 468/468
f 426/426 467/467 468/468
f 428/428 427/427 469/469
f 427/427 468/468 469/469
f 429/429 428/428 470/470
f 428/428 469/469 470/470
f 430/430 429/429 471/471
f 429/429 470/470 471/471
f 431/431 430/430 472/472
f 430/430 471/471 472/472
f 432/432 431/431 473/473
f 431/431 472/472 473/473
f 433/433 432/432 474/474
f 432/432 473/473 474/474
f 434/434 433/433 475/475
f 433/433 474/474 475/475
f 435/435 434/434 476/476
f 434/434 475/475 476/476
f 436/436 435/435 477/477
f 435/435 476/476 477/477
f 437/437 436/436 478/478
f 436/436 477/477 478/478
f 438/438 437/437 479/479
f 437/437 478/478 479/479
f 439/439 438/438 480/480
f 438/438 479/479 480/480
f 440/440 439/439 481/481
f 439/439 480/480 481/481
f 441/441 440/440 482/482
f 440/440 481/481 482/482
f 442/442 441/441 483/483
f 441/441 482/482 483/483
f 443/443 442/442 484/484
f 442/442 483/483 484/484
f 444/444 443/443 485/485
f 443/443 484/484 485/485
f 445/445 444/444 486/486
f 444/444 485/485 486/486
f 446/446 445/445 487/487
f 445/445 486/486 487/487
f 447/447 446/446 488/488
f 446/446 487/487 488/488
f 448/448 447/447 489/489
f 447/447 488/488 489/489
f 449/449 448/448 490/490
f 448/448 489/489 490/490
f 450/450 449/449 491/491
f 449/449 490/490 491/491
f 451/451 450/450 492/492
f 450/450 491/491 492/492
f 453/453 452/452 494/494
f 452/452 493/493 494/494
f 454/454 453/453 495/495
f 453/453 494/494 495/495
f 455/455 454/454 496/496
f 454/454 495/495 496/496
f 456/456 455/455 497/497
f 455/455 496/496 497/497
f 457/457 456/456 498/498
f 456/456 497/497 498/498
f 458/458 457/457 499/499
f 457/457 498/498 499/499
f 459/459 458/458 500/500
f 458/458 499/499 500/500
f 460/460 459/459 501/501
f 459/459 500/500 501/501
f 461/461 460/460 502/502
f 460/460 501/501 502/502
f 462/462 461/461 503/503
f 461/461 502/502 503/503
f 463/463 462/462 504/504
f 462/462 503/503 504/504
f 464/464 463/463 505/505
f 463/463 504/504 505/505
f 465/465 464/464 506/506
f 464/464 505/505 506/506
f 466/466 465/465 507/507
f 465/465 506/506 507/507
f 467/467 466/466 508/508
f 466/466 507/507 508/508
f 468/468 467/467 509/509
f 467/467 508/508 509/509
f 469/469 468/468 510/510
f 468/468 509/509 510/510
f 470/470 469/469 511/511
f 469/469 510/510 511/511
f 471/471 470/470 512/512
f 470/470 511/511 512/512
f 472/472 471/471 513/513
f 471/471 512/512 513/513
f 473/473 472/472 514/514
f 472/472 513/513 514/514
f 474/474 473/473 515/515
f 473/473 514/514 515/515
f 475/475 474/474 516/516
f 474/474 515/515 516/516
f 476/476 475/475 517/517
f 475/475 516/516 517/517
f 477/477 476/476 518/518
f 476/476 517/517 518/518
f 478/478 477/477 519/519
f 477/477 518/518 519/519
f 479/479 478/478 520/520
f 478/478 519/519 520/520
f 480/480 479/479 521/521
f 479/479 520/520 521/521
f 481/481 480/480 522/522
f 480/480 521/521 522/522
f 482/482 481/481 523/523
f 481/481 522/522 523/523
f 483/483 482/482 524/524
f 482/482 523/523 524/524
f 484/484 483/483 525/525
f 483/483 524/524 525/525
f 485/485 484/484 526/526
f 484/484 525/525 526/526
f 486/486 485/485 527/527
f 485/485 526/526 527/527
f 487/487 486/486 528/528
f 486/486 527/527 528/528
f 488/488 487/487 529/529
f 487/487 528/528 529/529
f 489/489 488/488 530/530
f 488/488 529/529 530/530
f 490/490 489/489 531/531
f 489/489 530/530 531/531
f 491/491 490/490 532/532
f 490/490 531/531 532/532
f 492/492 491/491 533/533
f 491/491 532/532 533/533
f 494/494 493/493 535/535
f 493/493 534/534 535/535
f 495/495 494/494 536/536
f 494/494 535/535 536/536
f 496/496 495/495 537/537
f 495/495 536/536 537/537
f 497/497 496/496 538/538
f 496/496 537/537 538/538
f 498/498 497/497 539/539
f 497/497 538/538 539/539
f 499/499 498/498 540/540
f 498/498 539/539 540/540
f 500/500 499/499 541/541
f 499/499 540/540 541/541
f 501/501 500/500 542/542
f 500/500 541/541 542/542
f 502/502 501/501 543/543
f 501/501 542/542 543/543
f 503/503 502/502 544/544
f 502/502 543/543 544/544
f 504/504 503/503 545/545
f 503/503 544/544 545/545
f 505/505 504/504 546/546
f 504/504 545/545 546/546
f 506/506 505/505 547/547
f 505/505 546/546 547/547
f 507/507 506/506 548/548
f 506/506 547/547 548/548
f 508/508 507/507 549/549
f 507/507 548/548 549/549
f 509/509 508/508 550/550
f 508/508 549/549 550/550
f 510/510 509/509 551/551
f 509/509 550/550 551/551
f 511/511 510/510 552/552
f 510/510 551/551 552/552
f 512/512 511/511 553/553
f 511/511 552/552 553/553
f 513/513 512/512 554/554
f 512/512 553/553 554/554
f 514/514 513/513 555/555
f 513/513 554/554 555/555
f 515/515 514/514 556/556
f 514/514 555/555 556/556
f 516/516 515/515 557/557
f 515/515 556/556 557/557
f 517/517 516/516 558/558
f 516/516 557/557 558/558
f 518/518 517/517 559/559
f 517/517 558/558 559/559
f 519/519 518/518 560/560
f 518/518 559/559 560/560
f 520/520 519/519 561/561
f 519/519 560/560 561/561
f 521/521 520/520 562/562
f 520/520 561/561 562/562
f 522/522 521/521 563/563
f 521/521 562/562 563/563
f 523/523 522/522 564/564
f 522/522 563/563 564/564
f 524/524 523/523 565/565
f 523/523 564/564 565/565
f 525/525 524/524 566/566
f 524/524 565/565 566/566
f 526/526 525/525 567/567
f 525/525 566/566 567/567
f 527/527 526/526 568/568
f 526/526 567/567 568/568
f 528/528 527/527 569/569
f 527/527 568/568 569/569
f 529/529 528/528 570/570
f 528/528 569/569 570/570
f 530/530 529/529 571/571
f 529/529 570/570 571/571
f 531/531 530/530 572/572
f 530/530 571/571 572/572
f 532/532 531/531 573/573
f 531/531 572/572 573/573
f 533/533 532/532 574/574
f 532/532 573/573 574/574
f 535/535 534/534 576/576
f 534/534 575/575 576/576
f 536/536 535/535 577/577
f 535/535 576/576 577/577
f 537/537 536/536 578/578
f 536/536 577/577 578/578
f 538/538 537/537 579/579
f 537/537 578/578 579/579
f 539/539 538/538 580/580
f 538/538 579/579 580/580
f 540/540 539/539 581/581
f 539/539 580/580 581/581
f 541/541 540/540 582/582
f 540/540 581/581 582/582
f 542/542 541/541 583/583
f 541/541 582/582 583/583
f 543/543 542/542 584/584
f 542/542 583/583 584/584
f 544/544 543/543 585/585
f 543/543 584/584 585/585
f 545/545 544/544 586/586
f 544/544 585/585 586/586
f 546/546 545/545 587/587
f 545/545 586/586 587/587
f 547/547 546/546 588/588
f 546/546 587/587 588/588
f 548/548 547/547 589/589
f 547/547 588/588 589/589
f 549/549 548/548 590/590
f 548/548 589/589 590/590
f 550/550 549/549 591/591
f 549/549 590/590 591/591
f 551/551 550/550 592/592
f 550/550 591/591 592/592
f 552/552 551/551 593/593
f 551/551 592/592 593/593
f 553/553 552/552 594/594
f 552/552 593/593 594/594
f 554/554 553/553 595/595
f 553/553 594/594 595/595
f 555/555 554/554 596/596
f 554/554 595/595 596/596
f 556/556 555/555 597/597
f 555/555 596/596 597/597
f 557/557 556/556 598/598
f 556/556 597/597 598/598
f 558/558 557/557 599/599
f 557/557 598/598 599/599
f 559/559 558/558 600/600
f 558/558 599/599 600/600
f 560/560 559/559 601/601
f 559/559 600/600 601/601
f 561/561 560/560 602/602
f 560/560 601/601 602/602
f 562/562 561/561 603/603
f 561/561 602/602 603/603
f 563/563 562/562 604/604
f 562/562 603/603 604/604
f 564/564 563/563 605/605
f 563/563 604/604 605/605
f 565/565 564/564 606/606
f 564/564 605/605 606/606
f 566/566 565/565 607/607
f 565/565 606/606 607/607
f 567/567 566/566 608/608
f 566/566 607/607 608/608
f 568/568 567/567 609/609
f 567/567 608/608 609/609
f 569/569 568/568 610/610
f 568/568 609/609 610/610
f 570/570 569/569 611/611
f 569/569 610/610 611/611
f 571/571 570/570 612/612
f 570/570 611/611 612/612
f 572/572 571/571 613/613
f 571/571 612/612 613/613
f 573/573 572/572 614/614
f 572/572 613/613 614/614
f 574/574 573/573 615/615
f 573/573 614/614 615/615
f 576/576 575/575 617/617
f 575/575 616/616 617/617
f 577/577 576/576 618/618
f 576/576 617/617 618/618
f 578/578 577/577 619/619
f 577/577 618/618 619/619
f 579/579 578/578 620/620
f 578/578 619/619 620/620
f 580/580 579/579 621/621
f 579/579 620/620 621/621
f 581/581 580/580 622/622
f 580/580 621/621 622/622
f 582/582 581/581 623/623
f 581/581 622/622 623/623
f 583/583 582/582 624/624
f 582/582 623/623 624/624
f 584/584 583/583 625/625
f 583/583 624/624 625/625
f 585/585 584/584 626/626
f 584/584 625/625 626/626
f 586/586 585/585 627/627
f 585/585 626/626 627/627
f 587/587 586/586 628/628
f 586/586 627/627 628/628
f 588/588 587/587 629/629
f 587/587 628/628 629/629
f 589/589 588/588 630/630
f 588/588 629/629 630/630
f 590/590 589/589 631/631
f 589/589 630/630 631/631
f 591/591 590/590 632/632
f 590/590 631/631 632/632
f 592/592 591/591 633/633
f 591/591 632/632 633/633
f 593/593 592/592 634/634
f 592/592 633/633 634/634
f 594/594 593/593 635/635
f 593/593 634/634 635/635
f 595/595 594/594 636/636
f 594/594 635/635 636/636
f 596/596 595/595 637/637
f 595/595 636/636 637/637
f 597/597 596/596 638/638
f 596/596 637/637 638/638
f 598/598 597/597 639/639
f 597/597 638/638 639/639
f 599/599 598/598 640/640
f 598/598 639/639 640/640
f 600/600 599/599 641/641
f 599/599 640/640 641/641
f 601/601 600/600 642/642
f 600/600 641/641 642/642
f 602/602 601/601 643/643
f 601/601 642/642 643/643
f 603/603 602/602 644/644
f 602/602 643/643 644/644
f 604/604 603/603 645/645
f 603/603 644/644 645/645
f 605/605 604/604 646/646
f 604/604 645/645 646/646
f 606/606 605/605 647/647
f 605/605 646/646 647/647
f 607/607 606/606 648/648
f 606/606 647/647 648/648
f 608/608 607/607 649/649
f 607/607 648/648 649/649
f 609/609 608/608 650/650
f 608/608 649/649 650/650
f 610/610 609/609 651/651
f 609/609 650/650 651/651
f 611/611 610/610 652/652
f 610/610 651/651 652/652
f 612/612 611/611 653/653
f 611/611 652/652 653/653
f 613/613 612/612 654/654
f 612/612 653/653 654/654
f 614/614 613/613 655/655
f 613/613 654/654 655/655
f 615/615 614/614 656/656
f 614/614 655/655 656/656
f 617/617 616/616 658/658
f 616/616 657/657 658/658
f 618/618 617/617 659/659
f 617/617 658/658 659/659
f 619/619 618/618 660/660
f 618/618 659/659 660/660
f 620/620 619/619 661/661
f 619/619 660/660 661/661
f 621/621 620/620 662/662
f 620/620 661/661 662/662
f 622/622 621/621 663/663
f 621/621 662/662 663/663
f 623/623 622/622 664/664
f 622/622 663/663 664/664
f 624/624 623/623 665/665
f 623/623 664/664 665/665
f 625/625 624/624 666/666
f 624/624 665/665 666/666
f 626/626 625/625 667/667
f 625/625 666/666 667/667
f 627/627 626/626 668/668
f 626/626 667/667 668/668
f 628/628 627/627 669/669
f 627/627 668/668 669/669
f 629/629 628/628 670/670
f 628/628 669/669 670/670
f 630/630 629/629 671/671
f 629/629 670/670 671/671
f 631/631 630/630 672/672
f 630/630 671/671 672/672
f 632/632 631/631 673/673
f 631/631 672/672 673/673
f 633/633 632/632 674/674
f 632/632 673/673 674/674
f 634/634 633/633 675/675
f 633/633 674/674 675/675
f 635/635 634/634 676/676
f 634/634 675/675 676/676
f 636/636 635/635 677/677
f 635/635 676/676 677/677
f 637/637 636/636 678/678
f 636/636 677/677 678/678
f 638/638 637/637 679/679
f 637/637 678/678 679/679
f 639/639 638/638 680/680
f 638/638 679/679 680/680
f 640/640 639/639 681/681
f 639/639 680/680 681/681
f 641/641 640/640 682/682
f 640/640 681/681 682/682
f 642/642 641/641 683/683
f 641/641 682/682 683/683
f 643/643 642/642 684/684
f 642/642 683/683 684/684
f 644/644 643/643 685/685
f 643/643 684/684 685/685
f 645/645 644/644 686/686
f 644/644 685/685 686/686
f 646/646 645/645 687/687
f 645/645 686/686 687/687
f 647/647 646/646 688/688
f 646/646 687/687 688/688
f 648/648 647/647 689/689
f 647/647 688/688 689/689
f 649/649 648/648 690/690
f 648/648 689/689 690/690
f 650/650 649/649 691/691
f 649/649 690/690 691/691
f 651/651 650/650 692/692
f 650/650 691/691 692/692
f 652/652 651/651 693/693
f 651/651 692/692 693/693
f 653/653 652/652 694/694
f 652/652 693/693 694/694
f 654/654 653/653 695/695
f 653/653 694/694 695/695
f 655/655 654/654 696/696
f 654/654 695/695 696/696
f 656/656 655/655 697/697
f 655/655 696/696 697/697