# RoadToF1 authored geometry. Centimetres, Z up.
v -18.000 18.870 33.055
v -12.500 60.559 11.351
v 12.500 60.559 11.351
v 12.500 60.559 11.351
v 18.000 18.870 33.055
v -18.000 18.870 33.055
v 12.500 64.946 19.777
v -12.500 64.946 19.777
v -18.000 23.257 41.481
v -18.000 23.257 41.481
v 18.000 23.257 41.481
v 12.500 64.946 19.777
v -18.000 18.870 33.055
v 18.000 18.870 33.055
v -19.849 17.627 34.230
v 18.000 18.870 33.055
v 19.849 17.627 34.230
v -19.849 17.627 34.230
v -19.849 17.627 34.230
v 19.849 17.627 34.230
v -21.202 17.151 35.923
v 19.849 17.627 34.230
v 21.202 17.151 35.923
v -21.202 17.151 35.923
v -21.202 17.151 35.923
v 21.202 17.151 35.923
v -21.698 17.568 37.679
v 21.202 17.151 35.923
v 21.698 17.568 37.679
v -21.698 17.568 37.679
v -21.698 17.568 37.679
v 21.698 17.568 37.679
v -21.698 18.722 39.896
v 21.698 17.568 37.679
v 21.698 18.722 39.896
v -21.698 18.722 39.896
v -21.698 18.722 39.896
v 21.698 18.722 39.896
v -21.202 19.921 41.245
v 21.698 18.722 39.896
v 21.202 19.921 41.245
v -21.202 19.921 41.245
v -21.202 19.921 41.245
v 21.202 19.921 41.245
v -19.849 21.581 41.825
v 21.202 19.921 41.245
v 19.849 21.581 41.825
v -19.849 21.581 41.825
v -19.849 21.581 41.825
v 19.849 21.581 41.825
v -18.000 23.257 41.481
v 19.849 21.581 41.825
v 18.000 23.257 41.481
v -18.000 23.257 41.481
v 18.000 18.870 33.055
v 12.500 60.559 11.351
v 19.849 17.627 34.230
v 12.500 60.559 11.351
v 14.057 62.327 10.959
v 19.849 17.627 34.230
v 19.849 17.627 34.230
v 14.057 62.327 10.959
v 21.202 17.151 35.923
v 14.057 62.327 10.959
v 15.197 64.055 11.504
v 21.202 17.151 35.923
v 21.202 17.151 35.923
v 15.197 64.055 11.504
v 21.698 17.568 37.679
v 15.197 64.055 11.504
v 15.614 65.279 12.839
v 21.698 17.568 37.679
v 21.698 17.568 37.679
v 15.614 65.279 12.839
v 21.698 18.722 39.896
v 15.614 65.279 12.839
v 15.614 66.434 15.057
v 21.698 18.722 39.896
v 21.698 18.722 39.896
v 15.614 66.434 15.057
v 21.202 19.921 41.245
v 15.614 66.434 15.057
v 15.197 66.826 16.826
v 21.202 19.921 41.245
v 21.202 19.921 41.245
v 15.197 66.826 16.826
v 19.849 21.581 41.825
v 15.197 66.826 16.826
v 14.057 66.281 18.553
v 19.849 21.581 41.825
v 19.849 21.581 41.825
v 14.057 66.281 18.553
v 18.000 23.257 41.481
v 14.057 66.281 18.553
v 12.500 64.946 19.777
v 18.000 23.257 41.481
v 12.500 60.559 11.351
v -12.500 60.559 11.351
v 14.057 62.327 10.959
v -12.500 60.559 11.351
v -14.057 62.327 10.959
v 14.057 62.327 10.959
v 14.057 62.327 10.959
v -14.057 62.327 10.959
v 15.197 64.055 11.504
v -14.057 62.327 10.959
v -15.197 64.055 11.504
v 15.197 64.055 11.504
v 15.197 64.055 11.504
v -15.197 64.055 11.504
v 15.614 65.279 12.839
v -15.197 64.055 11.504
v -15.614 65.279 12.839
v 15.614 65.279 12.839
v 15.614 65.279 12.839
v -15.614 65.279 12.839
v 15.614 66.434 15.057
v -15.614 65.279 12.839
v -15.614 66.434 15.057
v 15.614 66.434 15.057
v 15.614 66.434 15.057
v -15.614 66.434 15.057
v 15.197 66.826 16.826
v -15.614 66.434 15.057
v -15.197 66.826 16.826
v 15.197 66.826 16.826
v 15.197 66.826 16.826
v -15.197 66.826 16.826
v 14.057 66.281 18.553
v -15.197 66.826 16.826
v -14.057 66.281 18.553
v 14.057 66.281 18.553
v 14.057 66.281 18.553
v -14.057 66.281 18.553
v 12.500 64.946 19.777
v -14.057 66.281 18.553
v -12.500 64.946 19.777
v 12.500 64.946 19.777
v -12.500 60.559 11.351
v -18.000 18.870 33.055
v -14.057 62.327 10.959
v -18.000 18.870 33.055
v -19.849 17.627 34.230
v -14.057 62.327 10.959
v -14.057 62.327 10.959
v -19.849 17.627 34.230
v -15.197 64.055 11.504
v -19.849 17.627 34.230
v -21.202 17.151 35.923
v -15.197 64.055 11.504
v -15.197 64.055 11.504
v -21.202 17.151 35.923
v -15.614 65.279 12.839
v -21.202 17.151 35.923
v -21.698 17.568 37.679
v -15.614 65.279 12.839
v -15.614 65.279 12.839
v -21.698 17.568 37.679
v -15.614 66.434 15.057
v -21.698 17.568 37.679
v -21.698 18.722 39.896
v -15.614 66.434 15.057
v -15.614 66.434 15.057
v -21.698 18.722 39.896
v -15.197 66.826 16.826
v -21.698 18.722 39.896
v -21.202 19.921 41.245
v -15.197 66.826 16.826
v -15.197 66.826 16.826
v -21.202 19.921 41.245
v -14.057 66.281 18.553
v -21.202 19.921 41.245
v -19.849 21.581 41.825
v -14.057 66.281 18.553
v -14.057 66.281 18.553
v -19.849 21.581 41.825
v -12.500 64.946 19.777
v -19.849 21.581 41.825
v -18.000 23.257 41.481
v -12.500 64.946 19.777
vt -0.18000 -0.22000
vt -0.12500 0.25000
vt 0.12500 0.25000
vt 0.12500 0.25000
vt 0.18000 -0.22000
vt -0.18000 -0.22000
vt 0.12500 0.25000
vt -0.12500 0.25000
vt -0.18000 -0.22000
vt -0.18000 -0.22000
vt 0.18000 -0.22000
vt 0.12500 0.25000
vt -0.18000 1.03500
vt 0.18000 1.03500
vt -0.19849 1.03031
vt 0.18000 1.03500
vt 0.19849 1.03031
vt -0.19849 1.03031
vt -0.19849 1.03031
vt 0.19849 1.03031
vt -0.21202 1.01750
vt 0.19849 1.03031
vt 0.21202 1.01750
vt -0.21202 1.01750
vt -0.21202 1.01750
vt 0.21202 1.01750
vt -0.21698 1.00000
vt 0.21202 1.01750
vt 0.21698 1.00000
vt -0.21698 1.00000
vt -0.21698 1.00000
vt 0.21698 1.00000
vt -0.21698 0.97500
vt 0.21698 1.00000
vt 0.21698 0.97500
vt -0.21698 0.97500
vt -0.21698 0.97500
vt 0.21698 0.97500
vt -0.21202 0.95750
vt 0.21698 0.97500
vt 0.21202 0.95750
vt -0.21202 0.95750
vt -0.21202 0.95750
vt 0.21202 0.95750
vt -0.19849 0.94469
vt 0.21202 0.95750
vt 0.19849 0.94469
vt -0.19849 0.94469
vt -0.19849 0.94469
vt 0.19849 0.94469
vt -0.18000 0.94000
vt 0.19849 0.94469
vt 0.18000 0.94000
vt -0.18000 0.94000
vt -0.22000 1.03500
vt 0.25000 1.03500
vt -0.23645 1.03031
vt 0.25000 1.03500
vt 0.26750 1.03031
vt -0.23645 1.03031
vt -0.23645 1.03031
vt 0.26750 1.03031
vt -0.24850 1.01750
vt 0.26750 1.03031
vt 0.28031 1.01750
vt -0.24850 1.01750
vt -0.24850 1.01750
vt 0.28031 1.01750
vt -0.25290 1.00000
vt 0.28031 1.01750
vt 0.28500 1.00000
vt -0.25290 1.00000
vt -0.25290 1.00000
vt 0.28500 1.00000
vt -0.25290 0.97500
vt 0.28500 1.00000
vt 0.28500 0.97500
vt -0.25290 0.97500
vt -0.25290 0.97500
vt 0.28500 0.97500
vt -0.24850 0.95750
vt 0.28500 0.97500
vt 0.28031 0.95750
vt -0.24850 0.95750
vt -0.24850 0.95750
vt 0.28031 0.95750
vt -0.23645 0.94469
vt 0.28031 0.95750
vt 0.26750 0.94469
vt -0.23645 0.94469
vt -0.23645 0.94469
vt 0.26750 0.94469
vt -0.22000 0.94000
vt 0.26750 0.94469
vt 0.25000 0.94000
vt -0.22000 0.94000
vt 0.12500 1.03500
vt -0.12500 1.03500
vt 0.14057 1.03031
vt -0.12500 1.03500
vt -0.14057 1.03031
vt 0.14057 1.03031
vt 0.14057 1.03031
vt -0.14057 1.03031
vt 0.15197 1.01750
vt -0.14057 1.03031
vt -0.15197 1.01750
vt 0.15197 1.01750
vt 0.15197 1.01750
vt -0.15197 1.01750
vt 0.15614 1.00000
vt -0.15197 1.01750
vt -0.15614 1.00000
vt 0.15614 1.00000
vt 0.15614 1.00000
vt -0.15614 1.00000
vt 0.15614 0.97500
vt -0.15614 1.00000
vt -0.15614 0.97500
vt 0.15614 0.97500
vt 0.15614 0.97500
vt -0.15614 0.97500
vt 0.15197 0.95750
vt -0.15614 0.97500
vt -0.15197 0.95750
vt 0.15197 0.95750
vt 0.15197 0.95750
vt -0.15197 0.95750
vt 0.14057 0.94469
vt -0.15197 0.95750
vt -0.14057 0.94469
vt 0.14057 0.94469
vt 0.14057 0.94469
vt -0.14057 0.94469
vt 0.12500 0.94000
vt -0.14057 0.94469
vt -0.12500 0.94000
vt 0.12500 0.94000
vt 0.25000 1.03500
vt -0.22000 1.03500
vt 0.26750 1.03031
vt -0.22000 1.03500
vt -0.23645 1.03031
vt 0.26750 1.03031
vt 0.26750 1.03031
vt -0.23645 1.03031
vt 0.28031 1.01750
vt -0.23645 1.03031
vt -0.24850 1.01750
vt 0.28031 1.01750
vt 0.28031 1.01750
vt -0.24850 1.01750
vt 0.28500 1.00000
vt -0.24850 1.01750
vt -0.25290 1.00000
vt 0.28500 1.00000
vt 0.28500 1.00000
vt -0.25290 1.00000
vt 0.28500 0.97500
vt -0.25290 1.00000
vt -0.25290 0.97500
vt 0.28500 0.97500
vt 0.28500 0.97500
vt -0.25290 0.97500
vt 0.28031 0.95750
vt -0.25290 0.97500
vt -0.24850 0.95750
vt 0.28031 0.95750
vt 0.28031 0.95750
vt -0.24850 0.95750
vt 0.26750 0.94469
vt -0.24850 0.95750
vt -0.23645 0.94469
vt 0.26750 0.94469
vt 0.26750 0.94469
vt -0.23645 0.94469
vt 0.25000 0.94000
vt -0.23645 0.94469
vt -0.22000 0.94000
vt 0.25000 0.94000
f 1/1 2/2 3/3
f 4/4 5/5 6/6
f 7/7 8/8 9/9
f 10/10 11/11 12/12
f 13/13 14/14 15/15
f 16/16 17/17 18/18
f 19/19 20/20 21/21
f 22/22 23/23 24/24
f 25/25 26/26 27/27
f 28/28 29/29 30/30
f 31/31 32/32 33/33
f 34/34 35/35 36/36
f 37/37 38/38 39/39
f 40/40 41/41 42/42
f 43/43 44/44 45/45
f 46/46 47/47 48/48
f 49/49 50/50 51/51
f 52/52 53/53 54/54
f 55/55 56/56 57/57
f 58/58 59/59 60/60
f 61/61 62/62 63/63
f 64/64 65/65 66/66
f 67/67 68/68 69/69
f 70/70 71/71 72/72
f 73/73 74/74 75/75
f 76/76 77/77 78/78
f 79/79 80/80 81/81
f 82/82 83/83 84/84
f 85/85 86/86 87/87
f 88/88 89/89 90/90
f 91/91 92/92 93/93
f 94/94 95/95 96/96
f 97/97 98/98 99/99
f 100/100 101/101 102/102
f 103/103 104/104 105/105
f 106/106 107/107 108/108
f 109/109 110/110 111/111
f 112/112 113/113 114/114
f 115/115 116/116 117/117
f 118/118 119/119 120/120
f 121/121 122/122 123/123
f 124/124 125/125 126/126
f 127/127 128/128 129/129
f 130/130 131/131 132/132
f 133/133 134/134 135/135
f 136/136 137/137 138/138
f 139/139 140/140 141/141
f 142/142 143/143 144/144
f 145/145 146/146 147/147
f 148/148 149/149 150/150
f 151/151 152/152 153/153
f 154/154 155/155 156/156
f 157/157 158/158 159/159
f 160/160 161/161 162/162
f 163/163 164/164 165/165
f 166/166 167/167 168/168
f 169/169 170/170 171/171
f 172/172 173/173 174/174
f 175/175 176/176 177/177
f 178/178 179/179 180/180
v 11.500 82.000 34.350
v 11.500 106.000 34.350
v 11.500 82.000 33.650
v 11.500 106.000 33.650
v -11.500 106.000 34.350
v -11.500 82.000 34.350
v -11.500 106.000 33.650
v -11.500 82.000 33.650
v -11.500 106.000 34.350
v 11.500 106.000 34.350
v -11.500 82.000 34.350
v 11.500 82.000 34.350
v -11.500 82.000 33.650
v 11.500 82.000 33.650
v -11.500 106.000 33.650
v 11.500 106.000 33.650
v -11.500 82.000 34.350
v 11.500 82.000 34.350
v -11.500 82.000 33.650
v 11.500 82.000 33.650
v 11.500 106.000 34.350
v -11.500 106.000 34.350
v 11.500 106.000 33.650
v -11.500 106.000 33.650
vt 0.00000 1.00000
vt 1.00000 1.00000
vt 0.00000 0.00000
vt 1.00000 0.00000
vt 0.00000 1.00000
vt 1.00000 1.00000
vt 0.00000 0.00000
vt 1.00000 0.00000
vt 0.00000 1.00000
vt 1.00000 1.00000
vt 0.00000 0.00000
vt 1.00000 0.00000
vt 0.00000 1.00000
vt 1.00000 1.00000
vt 0.00000 0.00000
vt 1.00000 0.00000
vt 0.00000 1.00000
vt 1.00000 1.00000
vt 0.00000 0.00000
vt 1.00000 0.00000
vt 0.00000 1.00000
vt 1.00000 1.00000
vt 0.00000 0.00000
vt 1.00000 0.00000
f 181/181 183/183 182/182
f 183/183 184/184 182/182
f 185/185 187/187 186/186
f 187/187 188/188 186/186
f 189/189 191/191 190/190
f 191/191 192/192 190/190
f 193/193 195/195 194/194
f 195/195 196/196 194/194
f 197/197 199/199 198/198
f 199/199 200/200 198/198
f 201/201 203/203 202/202
f 203/203 204/204 202/202
v 35.000 -50.200 55.000
v 35.459 -50.109 55.000
v 35.849 -49.849 55.000
v 36.109 -49.459 55.000
v 36.200 -49.000 55.000
v 36.109 -48.541 55.000
v 35.849 -48.151 55.000
v 35.459 -47.891 55.000
v 35.000 -47.800 55.000
v 34.541 -47.891 55.000
v 34.151 -48.151 55.000
v 33.891 -48.541 55.000
v 33.800 -49.000 55.000
v 33.891 -49.459 55.000
v 34.151 -49.849 55.000
v 34.541 -50.109 55.000
v 35.000 -50.200 55.000
v 35.000 -50.200 50.000
v 35.459 -50.109 50.000
v 35.849 -49.849 50.000
v 36.109 -49.459 50.000
v 36.200 -49.000 50.000
v 36.109 -48.541 50.000
v 35.849 -48.151 50.000
v 35.459 -47.891 50.000
v 35.000 -47.800 50.000
v 34.541 -47.891 50.000
v 34.151 -48.151 50.000
v 33.891 -48.541 50.000
v 33.800 -49.000 50.000
v 33.891 -49.459 50.000
v 34.151 -49.849 50.000
v 34.541 -50.109 50.000
v 35.000 -50.200 50.000
v 35.000 -49.000 55.000
v 35.000 -49.000 55.000
v 35.000 -49.000 55.000
v 35.000 -49.000 55.000
v 35.000 -49.000 55.000
v 35.000 -49.000 55.000
v 35.000 -49.000 55.000
v 35.000 -49.000 55.000
v 35.000 -49.000 55.000
v 35.000 -49.000 55.000
v 35.000 -49.000 55.000
v 35.000 -49.000 55.000
v 35.000 -49.000 55.000
v 35.000 -49.000 55.000
v 35.000 -49.000 55.000
v 35.000 -49.000 55.000
v 35.000 -50.200 55.000
v 35.459 -50.109 55.000
v 35.849 -49.849 55.000
v 36.109 -49.459 55.000
v 36.200 -49.000 55.000
v 36.109 -48.541 55.000
v 35.849 -48.151 55.000
v 35.459 -47.891 55.000
v 35.000 -47.800 55.000
v 34.541 -47.891 55.000
v 34.151 -48.151 55.000
v 33.891 -48.541 55.000
v 33.800 -49.000 55.000
v 33.891 -49.459 55.000
v 34.151 -49.849 55.000
v 34.541 -50.109 55.000
v 35.000 -50.200 55.000
v 35.000 -49.000 50.000
v 35.000 -49.000 50.000
v 35.000 -49.000 50.000
v 35.000 -49.000 50.000
v 35.000 -49.000 50.000
v 35.000 -49.000 50.000
v 35.000 -49.000 50.000
v 35.000 -49.000 50.000
v 35.000 -49.000 50.000
v 35.000 -49.000 50.000
v 35.000 -49.000 50.000
v 35.000 -49.000 50.000
v 35.000 -49.000 50.000
v 35.000 -49.000 50.000
v 35.000 -49.000 50.000
v 35.000 -49.000 50.000
v 35.000 -50.200 50.000
v 35.459 -50.109 50.000
v 35.849 -49.849 50.000
v 36.109 -49.459 50.000
v 36.200 -49.000 50.000
v 36.109 -48.541 50.000
v 35.849 -48.151 50.000
v 35.459 -47.891 50.000
v 35.000 -47.800 50.000
v 34.541 -47.891 50.000
v 34.151 -48.151 50.000
v 33.891 -48.541 50.000
v 33.800 -49.000 50.000
v 33.891 -49.459 50.000
v 34.151 -49.849 50.000
v 34.541 -50.109 50.000
v 35.000 -50.200 50.000
vt 0.00000 1.00000
vt 0.06250 1.00000
vt 0.12500 1.00000
vt 0.18750 1.00000
vt 0.25000 1.00000
vt 0.31250 1.00000
vt 0.37500 1.00000
vt 0.43750 1.00000
vt 0.50000 1.00000
vt 0.56250 1.00000
vt 0.62500 1.00000
vt 0.68750 1.00000
vt 0.75000 1.00000
vt 0.81250 1.00000
vt 0.87500 1.00000
vt 0.93750 1.00000
vt 1.00000 1.00000
vt 0.00000 0.00000
vt 0.06250 0.00000
vt 0.12500 0.00000
vt 0.18750 0.00000
vt 0.25000 0.00000
vt 0.31250 0.00000
vt 0.37500 0.00000
vt 0.43750 0.00000
vt 0.50000 0.00000
vt 0.56250 0.00000
vt 0.62500 0.00000
vt 0.68750 0.00000
vt 0.75000 0.00000
vt 0.81250 0.00000
vt 0.87500 0.00000
vt 0.93750 0.00000
vt 1.00000 0.00000
vt 0.50000 0.50000
vt 0.50000 0.50000
vt 0.50000 0.50000
vt 0.50000 0.50000
vt 0.50000 0.50000
vt 0.50000 0.50000
vt 0.50000 0.50000
vt 0.50000 0.50000
vt 0.50000 0.50000
vt 0.50000 0.50000
vt 0.50000 0.50000
vt 0.50000 0.50000
vt 0.50000 0.50000
vt 0.50000 0.50000
vt 0.50000 0.50000
vt 0.50000 0.50000
vt 1.00000 0.50000
vt 0.96194 0.69134
vt 0.85355 0.85355
vt 0.69134 0.96194
vt 0.50000 1.00000
vt 0.30866 0.96194
vt 0.14645 0.85355
vt 0.03806 0.69134
vt 0.00000 0.50000
vt 0.03806 0.30866
vt 0.14645 0.14645
vt 0.30866 0.03806
vt 0.50000 0.00000
vt 0.69134 0.03806
vt 0.85355 0.14645
vt 0.96194 0.30866
vt 1.00000 0.50000
vt 0.50000 0.50000
vt 0.50000 0.50000
vt 0.50000 0.50000
vt 0.50000 0.50000
vt 0.50000 0.50000
vt 0.50000 0.50000
vt 0.50000 0.50000
vt 0.50000 0.50000
vt 0.50000 0.50000
vt 0.50000 0.50000
vt 0.50000 0.50000
vt 0.50000 0.50000
vt 0.50000 0.50000
vt 0.50000 0.50000
vt 0.50000 0.50000
vt 0.50000 0.50000
vt 1.00000 0.50000
vt 0.96194 0.30866
vt 0.85355 0.14645
vt 0.69134 0.03806
vt 0.50000 0.00000
vt 0.30866 0.03806
vt 0.14645 0.14645
vt 0.03806 0.30866
vt 0.00000 0.50000
vt 0.03806 0.69134
vt 0.14645 0.85355
vt 0.30866 0.96194
vt 0.50000 1.00000
vt 0.69134 0.96194
vt 0.85355 0.85355
vt 0.96194 0.69134
vt 1.00000 0.50000
f 205/205 222/222 206/206
f 222/222 223/223 206/206
f 206/206 223/223 207/207
f 223/223 224/224 207/207
f 207/207 224/224 208/208
f 224/224 225/225 208/208
f 208/208 225/225 209/209
f 225/225 226/226 209/209
f 209/209 226/226 210/210
f 226/226 227/227 210/210
f 210/210 227/227 211/211
f 227/227 228/228 211/211
f 211/211 228/228 212/212
f 228/228 229/229 212/212
f 212/212 229/229 213/213
f 229/229 230/230 213/213
f 213/213 230/230 214/214
f 230/230 231/231 214/214
f 214/214 231/231 215/215
f 231/231 232/232 215/215
f 215/215 232/232 216/216
f 232/232 233/233 216/216
f 216/216 233/233 217/217
f 233/233 234/234 217/217
f 217/217 234/234 218/218
f 234/234 235/235 218/218
f 218/218 235/235 219/219
f 235/235 236/236 219/219
f 219/219 236/236 220/220
f 236/236 237/237 220/220
f 220/220 237/237 221/221
f 237/237 238/238 221/221
f 255/255 256/256 239/239
f 256/256 257/257 240/240
f 257/257 258/258 241/241
f 258/258 259/259 242/242
f 259/259 260/260 243/243
f 260/260 261/261 244/244
f 261/261 262/262 245/245
f 262/262 263/263 246/246
f 263/263 264/264 247/247
f 264/264 265/265 248/248
f 265/265 266/266 249/249
f 266/266 267/267 250/250
f 267/267 268/268 251/251
f 268/268 269/269 252/252
f 269/269 270/270 253/253
f 270/270 271/271 254/254
f 289/289 288/288 272/272
f 290/290 289/289 273/273
f 291/291 290/290 274/274
f 292/292 291/291 275/275
f 293/293 292/292 276/276
f 294/294 293/293 277/277
f 295/295 294/294 278/278
f 296/296 295/295 279/279
f 297/297 296/296 280/280
f 298/298 297/297 281/281
f 299/299 298/298 282/282
f 300/300 299/299 283/283
f 301/301 300/300 284/284
f 302/302 301/301 285/285
f 303/303 302/302 286/286
f 304/304 303/303 287/287
v 9.000 11.000 35.000
v 9.000 35.000 35.000
v 9.000 11.000 17.000
v 9.000 35.000 17.000
v -9.000 35.000 35.000
v -9.000 11.000 35.000
v -9.000 35.000 17.000
v -9.000 11.000 17.000
v -9.000 35.000 35.000
v 9.000 35.000 35.000
v -9.000 11.000 35.000
v 9.000 11.000 35.000
v -9.000 11.000 17.000
v 9.000 11.000 17.000
v -9.000 35.000 17.000
v 9.000 35.000 17.000
v -9.000 11.000 35.000
v 9.000 11.000 35.000
v -9.000 11.000 17.000
v 9.000 11.000 17.000
v 9.000 35.000 35.000
v -9.000 35.000 35.000
v 9.000 35.000 17.000
v -9.000 35.000 17.000
vt 0.00000 1.00000
vt 1.00000 1.00000
vt 0.00000 0.00000
vt 1.00000 0.00000
vt 0.00000 1.00000
vt 1.00000 1.00000
vt 0.00000 0.00000
vt 1.00000 0.00000
vt 0.00000 1.00000
vt 1.00000 1.00000
vt 0.00000 0.00000
vt 1.00000 0.00000
vt 0.00000 1.00000
vt 1.00000 1.00000
vt 0.00000 0.00000
vt 1.00000 0.00000
vt 0.00000 1.00000
vt 1.00000 1.00000
vt 0.00000 0.00000
vt 1.00000 0.00000
vt 0.00000 1.00000
vt 1.00000 1.00000
vt 0.00000 0.00000
vt 1.00000 0.00000
f 305/305 307/307 306/306
f 307/307 308/308 306/306
f 309/309 311/311 310/310
f 311/311 312/312 310/310
f 313/313 315/315 314/314
f 315/315 316/316 314/314
f 317/317 319/319 318/318
f 319/319 320/320 318/318
f 321/321 323/323 322/322
f 323/323 324/324 322/322
f 325/325 327/327 326/326
f 327/327 328/328 326/326