# RoadToF1 authored geometry. Centimetres, Z up.
v -22.000 -36.026 17.681
v -24.000 -32.998 36.439
v -19.000 -28.538 64.081
v 24.000 -32.998 36.439
v 22.000 -36.026 17.681
v -22.000 -36.026 17.681
v -19.000 -28.538 64.081
v 19.000 -28.538 64.081
v 24.000 -32.998 36.439
v 24.000 -32.998 36.439
v -22.000 -36.026 17.681
v -19.000 -28.538 64.081
v -19.000 -35.053 65.133
v -24.000 -39.514 37.490
v -22.000 -42.541 18.733
v -22.000 -42.541 18.733
v 22.000 -42.541 18.733
v 24.000 -39.514 37.490
v 24.000 -39.514 37.490
v 19.000 -35.053 65.133
v -19.000 -35.053 65.133
v -19.000 -35.053 65.133
v -22.000 -42.541 18.733
v 24.000 -39.514 37.490
v -22.000 -36.026 17.681
v 22.000 -36.026 17.681
v -23.125 -36.489 16.490
v 22.000 -36.026 17.681
v 23.125 -36.489 16.490
v -23.125 -36.489 16.490
v -23.125 -36.489 16.490
v 23.125 -36.489 16.490
v -23.949 -37.358 15.703
v 23.125 -36.489 16.490
v 23.949 -37.358 15.703
v -23.949 -37.358 15.703
v -23.949 -37.358 15.703
v 23.949 -37.358 15.703
v -24.251 -38.398 15.532
v 23.949 -37.358 15.703
v 24.251 -38.398 15.532
v -24.251 -38.398 15.532
v -24.251 -38.398 15.532
v 24.251 -38.398 15.532
v -24.251 -40.965 15.946
v 24.251 -38.398 15.532
v 24.251 -40.965 15.946
v -24.251 -40.965 15.946
v -24.251 -40.965 15.946
v 24.251 -40.965 15.946
v -23.949 -41.899 16.436
v 24.251 -40.965 15.946
v 23.949 -41.899 16.436
v -23.949 -41.899 16.436
v -23.949 -41.899 16.436
v 23.949 -41.899 16.436
v -23.125 -42.476 17.456
v 23.949 -41.899 16.436
v 23.125 -42.476 17.456
v -23.125 -42.476 17.456
v -23.125 -42.476 17.456
v 23.125 -42.476 17.456
v -22.000 -42.541 18.733
v 23.125 -42.476 17.456
v 22.000 -42.541 18.733
v -22.000 -42.541 18.733
v 22.000 -36.026 17.681
v 24.000 -32.998 36.439
v 23.125 -36.489 16.490
v 24.000 -32.998 36.439
v 25.262 -33.256 36.526
v 23.125 -36.489 16.490
v 23.125 -36.489 16.490
v 25.262 -33.256 36.526
v 23.949 -37.358 15.703
v 25.262 -33.256 36.526
v 26.185 -33.973 36.676
v 23.949 -37.358 15.703
v 23.949 -37.358 15.703
v 26.185 -33.973 36.676
v 24.251 -38.398 15.532
v 26.185 -33.973 36.676
v 26.523 -34.959 36.847
v 24.251 -38.398 15.532
v 24.251 -38.398 15.532
v 26.523 -34.959 36.847
v 24.251 -40.965 15.946
v 26.523 -34.959 36.847
v 26.523 -37.525 37.261
v 24.251 -40.965 15.946
v 24.251 -40.965 15.946
v 26.523 -37.525 37.261
v 23.949 -41.899 16.436
v 26.523 -37.525 37.261
v 26.185 -38.514 37.408
v 23.949 -41.899 16.436
v 23.949 -41.899 16.436
v 26.185 -38.514 37.408
v 23.125 -42.476 17.456
v 26.185 -38.514 37.408
v 25.262 -39.242 37.492
v 23.125 -42.476 17.456
v 23.125 -42.476 17.456
v 25.262 -39.242 37.492
v 22.000 -42.541 18.733
v 25.262 -39.242 37.492
v 24.000 -39.514 37.490
v 22.000 -42.541 18.733
v 24.000 -32.998 36.439
v 19.000 -28.538 64.081
v 25.262 -33.256 36.526
v 19.000 -28.538 64.081
v 20.047 -28.603 65.358
v 25.262 -33.256 36.526
v 25.262 -33.256 36.526
v 20.047 -28.603 65.358
v 26.185 -33.973 36.676
v 20.047 -28.603 65.358
v 20.813 -29.180 66.378
v 26.185 -33.973 36.676
v 26.185 -33.973 36.676
v 20.813 -29.180 66.378
v 26.523 -34.959 36.847
v 20.813 -29.180 66.378
v 21.093 -30.114 66.868
v 26.523 -34.959 36.847
v 26.523 -34.959 36.847
v 21.093 -30.114 66.868
v 26.523 -37.525 37.261
v 21.093 -30.114 66.868
v 21.093 -32.681 67.282
v 26.523 -37.525 37.261
v 26.523 -37.525 37.261
v 21.093 -32.681 67.282
v 26.185 -38.514 37.408
v 21.093 -32.681 67.282
v 20.813 -33.721 67.111
v 26.185 -38.514 37.408
v 26.185 -38.514 37.408
v 20.813 -33.721 67.111
v 25.262 -39.242 37.492
v 20.813 -33.721 67.111
v 20.047 -34.590 66.324
v 25.262 -39.242 37.492
v 25.262 -39.242 37.492
v 20.047 -34.590 66.324
v 24.000 -39.514 37.490
v 20.047 -34.590 66.324
v 19.000 -35.053 65.133
v 24.000 -39.514 37.490
v 19.000 -28.538 64.081
v -19.000 -28.538 64.081
v 20.047 -28.603 65.358
v -19.000 -28.538 64.081
v -20.047 -28.603 65.358
v 20.047 -28.603 65.358
v 20.047 -28.603 65.358
v -20.047 -28.603 65.358
v 20.813 -29.180 66.378
v -20.047 -28.603 65.358
v -20.813 -29.180 66.378
v 20.813 -29.180 66.378
v 20.813 -29.180 66.378
v -20.813 -29.180 66.378
v 21.093 -30.114 66.868
v -20.813 -29.180 66.378
v -21.093 -30.114 66.868
v 21.093 -30.114 66.868
v 21.093 -30.114 66.868
v -21.093 -30.114 66.868
v 21.093 -32.681 67.282
v -21.093 -30.114 66.868
v -21.093 -32.681 67.282
v 21.093 -32.681 67.282
v 21.093 -32.681 67.282
v -21.093 -32.681 67.282
v 20.813 -33.721 67.111
v -21.093 -32.681 67.282
v -20.813 -33.721 67.111
v 20.813 -33.721 67.111
v 20.813 -33.721 67.111
v -20.813 -33.721 67.111
v 20.047 -34.590 66.324
v -20.813 -33.721 67.111
v -20.047 -34.590 66.324
v 20.047 -34.590 66.324
v 20.047 -34.590 66.324
v -20.047 -34.590 66.324
v 19.000 -35.053 65.133
v -20.047 -34.590 66.324
v -19.000 -35.053 65.133
v 19.000 -35.053 65.133
v -19.000 -28.538 64.081
v -24.000 -32.998 36.439
v -20.047 -28.603 65.358
v -24.000 -32.998 36.439
v -25.262 -33.256 36.526
v -20.047 -28.603 65.358
v -20.047 -28.603 65.358
v -25.262 -33.256 36.526
v -20.813 -29.180 66.378
v -25.262 -33.256 36.526
v -26.185 -33.973 36.676
v -20.813 -29.180 66.378
v -20.813 -29.180 66.378
v -26.185 -33.973 36.676
v -21.093 -30.114 66.868
v -26.185 -33.973 36.676
v -26.523 -34.959 36.847
v -21.093 -30.114 66.868
v -21.093 -30.114 66.868
v -26.523 -34.959 36.847
v -21.093 -32.681 67.282
v -26.523 -34.959 36.847
v -26.523 -37.525 37.261
v -21.093 -32.681 67.282
v -21.093 -32.681 67.282
v -26.523 -37.525 37.261
v -20.813 -33.721 67.111
v -26.523 -37.525 37.261
v -26.185 -38.514 37.408
v -20.813 -33.721 67.111
v -20.813 -33.721 67.111
v -26.185 -38.514 37.408
v -20.047 -34.590 66.324
v -26.185 -38.514 37.408
v -25.262 -39.242 37.492
v -20.047 -34.590 66.324
v -20.047 -34.590 66.324
v -25.262 -39.242 37.492
v -19.000 -35.053 65.133
v -25.262 -39.242 37.492
v -24.000 -39.514 37.490
v -19.000 -35.053 65.133
v -24.000 -32.998 36.439
v -22.000 -36.026 17.681
v -25.262 -33.256 36.526
v -22.000 -36.026 17.681
v -23.125 -36.489 16.490
v -25.262 -33.256 36.526
v -25.262 -33.256 36.526
v -23.125 -36.489 16.490
v -26.185 -33.973 36.676
v -23.125 -36.489 16.490
v -23.949 -37.358 15.703
v -26.185 -33.973 36.676
v -26.185 -33.973 36.676
v -23.949 -37.358 15.703
v -26.523 -34.959 36.847
v -23.949 -37.358 15.703
v -24.251 -38.398 15.532
v -26.523 -34.959 36.847
v -26.523 -34.959 36.847
v -24.251 -38.398 15.532
v -26.523 -37.525 37.261
v -24.251 -38.398 15.532
v -24.251 -40.965 15.946
v -26.523 -37.525 37.261
v -26.523 -37.525 37.261
v -24.251 -40.965 15.946
v -26.185 -38.514 37.408
v -24.251 -40.965 15.946
v -23.949 -41.899 16.436
v -26.185 -38.514 37.408
v -26.185 -38.514 37.408
v -23.949 -41.899 16.436
v -25.262 -39.242 37.492
v -23.949 -41.899 16.436
v -23.125 -42.476 17.456
v -25.262 -39.242 37.492
v -25.262 -39.242 37.492
v -23.125 -42.476 17.456
v -24.000 -39.514 37.490
v -23.125 -42.476 17.456
v -22.000 -42.541 18.733
v -24.000 -39.514 37.490
vt -0.22000 0.00000
vt -0.24000 0.19000
vt -0.19000 0.47000
vt 0.24000 0.19000
vt 0.22000 0.00000
vt -0.22000 0.00000
vt -0.19000 0.47000
vt 0.19000 0.47000
vt 0.24000 0.19000
vt 0.24000 0.19000
vt -0.22000 0.00000
vt -0.19000 0.47000
vt -0.19000 0.47000
vt -0.24000 0.19000
vt -0.22000 0.00000
vt -0.22000 0.00000
vt 0.22000 0.00000
vt 0.24000 0.19000
vt 0.24000 0.19000
vt 0.19000 0.47000
vt -0.19000 0.47000
vt -0.19000 0.47000
vt -0.22000 0.00000
vt 0.24000 0.19000
vt -0.22000 1.02000
vt 0.22000 1.02000
vt -0.23125 1.01732
vt 0.22000 1.02000
vt 0.23125 1.01732
vt -0.23125 1.01732
vt -0.23125 1.01732
vt 0.23125 1.01732
vt -0.23949 1.01000
vt 0.23125 1.01732
vt 0.23949 1.01000
vt -0.23949 1.01000
vt -0.23949 1.01000
vt 0.23949 1.01000
vt -0.24251 1.00000
vt 0.23949 1.01000
vt 0.24251 1.00000
vt -0.24251 1.00000
vt -0.24251 1.00000
vt 0.24251 1.00000
vt -0.24251 0.97400
vt 0.24251 1.00000
vt 0.24251 0.97400
vt -0.24251 0.97400
vt -0.24251 0.97400
vt 0.24251 0.97400
vt -0.23949 0.96400
vt 0.24251 0.97400
vt 0.23949 0.96400
vt -0.23949 0.96400
vt -0.23949 0.96400
vt 0.23949 0.96400
vt -0.23125 0.95668
vt 0.23949 0.96400
vt 0.23125 0.95668
vt -0.23125 0.95668
vt -0.23125 0.95668
vt 0.23125 0.95668
vt -0.22000 0.95400
vt 0.23125 0.95668
vt 0.22000 0.95400
vt -0.22000 0.95400
vt 0.00000 1.02000
vt 0.19000 1.02000
vt -0.01250 1.01732
vt 0.19000 1.02000
vt 0.19045 1.01732
vt -0.01250 1.01732
vt -0.01250 1.01732
vt 0.19045 1.01732
vt -0.02165 1.01000
vt 0.19045 1.01732
vt 0.19079 1.01000
vt -0.02165 1.01000
vt -0.02165 1.01000
vt 0.19079 1.01000
vt -0.02500 1.00000
vt 0.19079 1.01000
vt 0.19091 1.00000
vt -0.02500 1.00000
vt -0.02500 1.00000
vt 0.19091 1.00000
vt -0.02500 0.97400
vt 0.19091 1.00000
vt 0.19091 0.97400
vt -0.02500 0.97400
vt -0.02500 0.97400
vt 0.19091 0.97400
vt -0.02165 0.96400
vt 0.19091 0.97400
vt 0.19079 0.96400
vt -0.02165 0.96400
vt -0.02165 0.96400
vt 0.19079 0.96400
vt -0.01250 0.95668
vt 0.19079 0.96400
vt 0.19045 0.95668
vt -0.01250 0.95668
vt -0.01250 0.95668
vt 0.19045 0.95668
vt 0.00000 0.95400
vt 0.19045 0.95668
vt 0.19000 0.95400
vt 0.00000 0.95400
vt 0.19000 1.02000
vt 0.47000 1.02000
vt 0.19045 1.01732
vt 0.47000 1.02000
vt 0.48250 1.01732
vt 0.19045 1.01732
vt 0.19045 1.01732
vt 0.48250 1.01732
vt 0.19079 1.01000
vt 0.48250 1.01732
vt 0.49165 1.01000
vt 0.19079 1.01000
vt 0.19079 1.01000
vt 0.49165 1.01000
vt 0.19091 1.00000
vt 0.49165 1.01000
vt 0.49500 1.00000
vt 0.19091 1.00000
vt 0.19091 1.00000
vt 0.49500 1.00000
vt 0.19091 0.97400
vt 0.49500 1.00000
vt 0.49500 0.97400
vt 0.19091 0.97400
vt 0.19091 0.97400
vt 0.49500 0.97400
vt 0.19079 0.96400
vt 0.49500 0.97400
vt 0.49165 0.96400
vt 0.19079 0.96400
vt 0.19079 0.96400
vt 0.49165 0.96400
vt 0.19045 0.95668
vt 0.49165 0.96400
vt 0.48250 0.95668
vt 0.19045 0.95668
vt 0.19045 0.95668
vt 0.48250 0.95668
vt 0.19000 0.95400
vt 0.48250 0.95668
vt 0.47000 0.95400
vt 0.19000 0.95400
vt 0.19000 1.02000
vt -0.19000 1.02000
vt 0.20047 1.01732
vt -0.19000 1.02000
vt -0.20047 1.01732
vt 0.20047 1.01732
vt 0.20047 1.01732
vt -0.20047 1.01732
vt 0.20813 1.01000
vt -0.20047 1.01732
vt -0.20813 1.01000
vt 0.20813 1.01000
vt 0.20813 1.01000
vt -0.20813 1.01000
vt 0.21093 1.00000
vt -0.20813 1.01000
vt -0.21093 1.00000
vt 0.21093 1.00000
vt 0.21093 1.00000
vt -0.21093 1.00000
vt 0.21093 0.97400
vt -0.21093 1.00000
vt -0.21093 0.97400
vt 0.21093 0.97400
vt 0.21093 0.97400
vt -0.21093 0.97400
vt 0.20813 0.96400
vt -0.21093 0.97400
vt -0.20813 0.96400
vt 0.20813 0.96400
vt 0.20813 0.96400
vt -0.20813 0.96400
vt 0.20047 0.95668
vt -0.20813 0.96400
vt -0.20047 0.95668
vt 0.20047 0.95668
vt 0.20047 0.95668
vt -0.20047 0.95668
vt 0.19000 0.95400
vt -0.20047 0.95668
vt -0.19000 0.95400
vt 0.19000 0.95400
vt 0.47000 1.02000
vt 0.19000 1.02000
vt 0.48250 1.01732
vt 0.19000 1.02000
vt 0.19045 1.01732
vt 0.48250 1.01732
vt 0.48250 1.01732
vt 0.19045 1.01732
vt 0.49165 1.01000
vt 0.19045 1.01732
vt 0.19079 1.01000
vt 0.49165 1.01000
vt 0.49165 1.01000
vt 0.19079 1.01000
vt 0.49500 1.00000
vt 0.19079 1.01000
vt 0.19091 1.00000
vt 0.49500 1.00000
vt 0.49500 1.00000
vt 0.19091 1.00000
vt 0.49500 0.97400
vt 0.19091 1.00000
vt 0.19091 0.97400
vt 0.49500 0.97400
vt 0.49500 0.97400
vt 0.19091 0.97400
vt 0.49165 0.96400
vt 0.19091 0.97400
vt 0.19079 0.96400
vt 0.49165 0.96400
vt 0.49165 0.96400
vt 0.19079 0.96400
vt 0.48250 0.95668
vt 0.19079 0.96400
vt 0.19045 0.95668
vt 0.48250 0.95668
vt 0.48250 0.95668
vt 0.19045 0.95668
vt 0.47000 0.95400
vt 0.19045 0.95668
vt 0.19000 0.95400
vt 0.47000 0.95400
vt 0.19000 1.02000
vt 0.00000 1.02000
vt 0.19045 1.01732
vt 0.00000 1.02000
vt -0.01250 1.01732
vt 0.19045 1.01732
vt 0.19045 1.01732
vt -0.01250 1.01732
vt 0.19079 1.01000
vt -0.01250 1.01732
vt -0.02165 1.01000
vt 0.19079 1.01000
vt 0.19079 1.01000
vt -0.02165 1.01000
vt 0.19091 1.00000
vt -0.02165 1.01000
vt -0.02500 1.00000
vt 0.19091 1.00000
vt 0.19091 1.00000
vt -0.02500 1.00000
vt 0.19091 0.97400
vt -0.02500 1.00000
vt -0.02500 0.97400
vt 0.19091 0.97400
vt 0.19091 0.97400
vt -0.02500 0.97400
vt 0.19079 0.96400
vt -0.02500 0.97400
vt -0.02165 0.96400
vt 0.19079 0.96400
vt 0.19079 0.96400
vt -0.02165 0.96400
vt 0.19045 0.95668
vt -0.02165 0.96400
vt -0.01250 0.95668
vt 0.19045 0.95668
vt 0.19045 0.95668
vt -0.01250 0.95668
vt 0.19000 0.95400
vt -0.01250 0.95668
vt 0.00000 0.95400
vt 0.19000 0.95400
f 1/1 2/2 3/3
f 4/4 5/5 6/6
f 7/7 8/8 9/9
f 10/10 11/11 12/12
f 13/13 14/14 15/15
f 16/16 17/17 18/18
f 19/19 20/20 21/21
f 22/22 23/23 24/24
f 25/25 26/26 27/27
f 28/28 29/29 30/30
f 31/31 32/32 33/33
f 34/34 35/35 36/36
f 37/37 38/38 39/39
f 40/40 41/41 42/42
f 43/43 44/44 45/45
f 46/46 47/47 48/48
f 49/49 50/50 51/51
f 52/52 53/53 54/54
f 55/55 56/56 57/57
f 58/58 59/59 60/60
f 61/61 62/62 63/63
f 64/64 65/65 66/66
f 67/67 68/68 69/69
f 70/70 71/71 72/72
f 73/73 74/74 75/75
f 76/76 77/77 78/78
f 79/79 80/80 81/81
f 82/82 83/83 84/84
f 85/85 86/86 87/87
f 88/88 89/89 90/90
f 91/91 92/92 93/93
f 94/94 95/95 96/96
f 97/97 98/98 99/99
f 100/100 101/101 102/102
f 103/103 104/104 105/105
f 106/106 107/107 108/108
f 109/109 110/110 111/111
f 112/112 113/113 114/114
f 115/115 116/116 117/117
f 118/118 119/119 120/120
f 121/121 122/122 123/123
f 124/124 125/125 126/126
f 127/127 128/128 129/129
f 130/130 131/131 132/132
f 133/133 134/134 135/135
f 136/136 137/137 138/138
f 139/139 140/140 141/141
f 142/142 143/143 144/144
f 145/145 146/146 147/147
f 148/148 149/149 150/150
f 151/151 152/152 153/153
f 154/154 155/155 156/156
f 157/157 158/158 159/159
f 160/160 161/161 162/162
f 163/163 164/164 165/165
f 166/166 167/167 168/168
f 169/169 170/170 171/171
f 172/172 173/173 174/174
f 175/175 176/176 177/177
f 178/178 179/179 180/180
f 181/181 182/182 183/183
f 184/184 185/185 186/186
f 187/187 188/188 189/189
f 190/190 191/191 192/192
f 193/193 194/194 195/195
f 196/196 197/197 198/198
f 199/199 200/200 201/201
f 202/202 203/203 204/204
f 205/205 206/206 207/207
f 208/208 209/209 210/210
f 211/211 212/212 213/213
f 214/214 215/215 216/216
f 217/217 218/218 219/219
f 220/220 221/221 222/222
f 223/223 224/224 225/225
f 226/226 227/227 228/228
f 229/229 230/230 231/231
f 232/232 233/233 234/234
f 235/235 236/236 237/237
f 238/238 239/239 240/240
f 241/241 242/242 243/243
f 244/244 245/245 246/246
f 247/247 248/248 249/249
f 250/250 251/251 252/252
f 253/253 254/254 255/255
f 256/256 257/257 258/258
f 259/259 260/260 261/261
f 262/262 263/263 264/264
f 265/265 266/266 267/267
f 268/268 269/269 270/270
f 271/271 272/272 273/273
f 274/274 275/275 276/276
v -22.000 -43.000 16.500
v -20.000 -1.000 16.500
v 20.000 -1.000 16.500
v 20.000 -1.000 16.500
v 22.000 -43.000 16.500
v -22.000 -43.000 16.500
v 20.000 -1.000 26.500
v -20.000 -1.000 26.500
v -22.000 -43.000 26.500
v -22.000 -43.000 26.500
v 22.000 -43.000 26.500
v 20.000 -1.000 26.500
v -22.000 -43.000 16.500
v 22.000 -43.000 16.500
v -23.791 -44.708 16.969
v 22.000 -43.000 16.500
v 23.791 -44.708 16.969
v -23.791 -44.708 16.969
v -23.791 -44.708 16.969
v 23.791 -44.708 16.969
v -25.102 -45.958 18.250
v 23.791 -44.708 16.969
v 25.102 -45.958 18.250
v -25.102 -45.958 18.250
v -25.102 -45.958 18.250
v 25.102 -45.958 18.250
v -25.582 -46.416 20.000
v 25.102 -45.958 18.250
v 25.582 -46.416 20.000
v -25.582 -46.416 20.000
v -25.582 -46.416 20.000
v 25.582 -46.416 20.000
v -25.582 -46.416 23.000
v 25.582 -46.416 20.000
v 25.582 -46.416 23.000
v -25.582 -46.416 23.000
v -25.582 -46.416 23.000
v 25.582 -46.416 23.000
v -25.102 -45.958 24.750
v 25.582 -46.416 23.000
v 25.102 -45.958 24.750
v -25.102 -45.958 24.750
v -25.102 -45.958 24.750
v 25.102 -45.958 24.750
v -23.791 -44.708 26.031
v 25.102 -45.958 24.750
v 23.791 -44.708 26.031
v -23.791 -44.708 26.031
v -23.791 -44.708 26.031
v 23.791 -44.708 26.031
v -22.000 -43.000 26.500
v 23.791 -44.708 26.031
v 22.000 -43.000 26.500
v -22.000 -43.000 26.500
v 22.000 -43.000 16.500
v 20.000 -1.000 16.500
v 23.791 -44.708 16.969
v 20.000 -1.000 16.500
v 21.669 0.750 16.969
v 23.791 -44.708 16.969
v 23.791 -44.708 16.969
v 21.669 0.750 16.969
v 25.102 -45.958 18.250
v 21.669 0.750 16.969
v 22.890 2.031 18.250
v 25.102 -45.958 18.250
v 25.102 -45.958 18.250
v 22.890 2.031 18.250
v 25.582 -46.416 20.000
v 22.890 2.031 18.250
v 23.337 2.500 20.000
v 25.582 -46.416 20.000
v 25.582 -46.416 20.000
v 23.337 2.500 20.000
v 25.582 -46.416 23.000
v 23.337 2.500 20.000
v 23.337 2.500 23.000
v 25.582 -46.416 23.000
v 25.582 -46.416 23.000
v 23.337 2.500 23.000
v 25.102 -45.958 24.750
v 23.337 2.500 23.000
v 22.890 2.031 24.750
v 25.102 -45.958 24.750
v 25.102 -45.958 24.750
v 22.890 2.031 24.750
v 23.791 -44.708 26.031
v 22.890 2.031 24.750
v 21.669 0.750 26.031
v 23.791 -44.708 26.031
v 23.791 -44.708 26.031
v 21.669 0.750 26.031
v 22.000 -43.000 26.500
v 21.669 0.750 26.031
v 20.000 -1.000 26.500
v 22.000 -43.000 26.500
v 20.000 -1.000 16.500
v -20.000 -1.000 16.500
v 21.669 0.750 16.969
v -20.000 -1.000 16.500
v -21.669 0.750 16.969
v 21.669 0.750 16.969
v 21.669 0.750 16.969
v -21.669 0.750 16.969
v 22.890 2.031 18.250
v -21.669 0.750 16.969
v -22.890 2.031 18.250
v 22.890 2.031 18.250
v 22.890 2.031 18.250
v -22.890 2.031 18.250
v 23.337 2.500 20.000
v -22.890 2.031 18.250
v -23.337 2.500 20.000
v 23.337 2.500 20.000
v 23.337 2.500 20.000
v -23.337 2.500 20.000
v 23.337 2.500 23.000
v -23.337 2.500 20.000
v -23.337 2.500 23.000
v 23.337 2.500 23.000
v 23.337 2.500 23.000
v -23.337 2.500 23.000
v 22.890 2.031 24.750
v -23.337 2.500 23.000
v -22.890 2.031 24.750
v 22.890 2.031 24.750
v 22.890 2.031 24.750
v -22.890 2.031 24.750
v 21.669 0.750 26.031
v -22.890 2.031 24.750
v -21.669 0.750 26.031
v 21.669 0.750 26.031
v 21.669 0.750 26.031
v -21.669 0.750 26.031
v 20.000 -1.000 26.500
v -21.669 0.750 26.031
v -20.000 -1.000 26.500
v 20.000 -1.000 26.500
v -20.000 -1.000 16.500
v -22.000 -43.000 16.500
v -21.669 0.750 16.969
v -22.000 -43.000 16.500
v -23.791 -44.708 16.969
v -21.669 0.750 16.969
v -21.669 0.750 16.969
v -23.791 -44.708 16.969
v -22.890 2.031 18.250
v -23.791 -44.708 16.969
v -25.102 -45.958 18.250
v -22.890 2.031 18.250
v -22.890 2.031 18.250
v -25.102 -45.958 18.250
v -23.337 2.500 20.000
v -25.102 -45.958 18.250
v -25.582 -46.416 20.000
v -23.337 2.500 20.000
v -23.337 2.500 20.000
v -25.582 -46.416 20.000
v -23.337 2.500 23.000
v -25.582 -46.416 20.000
v -25.582 -46.416 23.000
v -23.337 2.500 23.000
v -23.337 2.500 23.000
v -25.582 -46.416 23.000
v -22.890 2.031 24.750
v -25.582 -46.416 23.000
v -25.102 -45.958 24.750
v -22.890 2.031 24.750
v -22.890 2.031 24.750
v -25.102 -45.958 24.750
v -21.669 0.750 26.031
v -25.102 -45.958 24.750
v -23.791 -44.708 26.031
v -21.669 0.750 26.031
v -21.669 0.750 26.031
v -23.791 -44.708 26.031
v -20.000 -1.000 26.500
v -23.791 -44.708 26.031
v -22.000 -43.000 26.500
v -20.000 -1.000 26.500
vt -0.22000 -0.23000
vt -0.20000 0.19000
vt 0.20000 0.19000
vt 0.20000 0.19000
vt 0.22000 -0.23000
vt -0.22000 -0.23000
vt 0.20000 0.19000
vt -0.20000 0.19000
vt -0.22000 -0.23000
vt -0.22000 -0.23000
vt 0.22000 -0.23000
vt 0.20000 0.19000
vt -0.22000 1.03500
vt 0.22000 1.03500
vt -0.23791 1.03031
vt 0.22000 1.03500
vt 0.23791 1.03031
vt -0.23791 1.03031
vt -0.23791 1.03031
vt 0.23791 1.03031
vt -0.25102 1.01750
vt 0.23791 1.03031
vt 0.25102 1.01750
vt -0.25102 1.01750
vt -0.25102 1.01750
vt 0.25102 1.01750
vt -0.25582 1.00000
vt 0.25102 1.01750
vt 0.25582 1.00000
vt -0.25582 1.00000
vt -0.25582 1.00000
vt 0.25582 1.00000
vt -0.25582 0.97000
vt 0.25582 1.00000
vt 0.25582 0.97000
vt -0.25582 0.97000
vt -0.25582 0.97000
vt 0.25582 0.97000
vt -0.25102 0.95250
vt 0.25582 0.97000
vt 0.25102 0.95250
vt -0.25102 0.95250
vt -0.25102 0.95250
vt 0.25102 0.95250
vt -0.23791 0.93969
vt 0.25102 0.95250
vt 0.23791 0.93969
vt -0.23791 0.93969
vt -0.23791 0.93969
vt 0.23791 0.93969
vt -0.22000 0.93500
vt 0.23791 0.93969
vt 0.22000 0.93500
vt -0.22000 0.93500
vt -0.23000 1.03500
vt 0.19000 1.03500
vt -0.24708 1.03031
vt 0.19000 1.03500
vt 0.20750 1.03031
vt -0.24708 1.03031
vt -0.24708 1.03031
vt 0.20750 1.03031
vt -0.25958 1.01750
vt 0.20750 1.03031
vt 0.22031 1.01750
vt -0.25958 1.01750
vt -0.25958 1.01750
vt 0.22031 1.01750
vt -0.26416 1.00000
vt 0.22031 1.01750
vt 0.22500 1.00000
vt -0.26416 1.00000
vt -0.26416 1.00000
vt 0.22500 1.00000
vt -0.26416 0.97000
vt 0.22500 1.00000
vt 0.22500 0.97000
vt -0.26416 0.97000
vt -0.26416 0.97000
vt 0.22500 0.97000
vt -0.25958 0.95250
vt 0.22500 0.97000
vt 0.22031 0.95250
vt -0.25958 0.95250
vt -0.25958 0.95250
vt 0.22031 0.95250
vt -0.24708 0.93969
vt 0.22031 0.95250
vt 0.20750 0.93969
vt -0.24708 0.93969
vt -0.24708 0.93969
vt 0.20750 0.93969
vt -0.23000 0.93500
vt 0.20750 0.93969
vt 0.19000 0.93500
vt -0.23000 0.93500
vt 0.20000 1.03500
vt -0.20000 1.03500
vt 0.21669 1.03031
vt -0.20000 1.03500
vt -0.21669 1.03031
vt 0.21669 1.03031
vt 0.21669 1.03031
vt -0.21669 1.03031
vt 0.22890 1.01750
vt -0.21669 1.03031
vt -0.22890 1.01750
vt 0.22890 1.01750
vt 0.22890 1.01750
vt -0.22890 1.01750
vt 0.23337 1.00000
vt -0.22890 1.01750
vt -0.23337 1.00000
vt 0.23337 1.00000
vt 0.23337 1.00000
vt -0.23337 1.00000
vt 0.23337 0.97000
vt -0.23337 1.00000
vt -0.23337 0.97000
vt 0.23337 0.97000
vt 0.23337 0.97000
vt -0.23337 0.97000
vt 0.22890 0.95250
vt -0.23337 0.97000
vt -0.22890 0.95250
vt 0.22890 0.95250
vt 0.22890 0.95250
vt -0.22890 0.95250
vt 0.21669 0.93969
vt -0.22890 0.95250
vt -0.21669 0.93969
vt 0.21669 0.93969
vt 0.21669 0.93969
vt -0.21669 0.93969
vt 0.20000 0.93500
vt -0.21669 0.93969
vt -0.20000 0.93500
vt 0.20000 0.93500
vt 0.19000 1.03500
vt -0.23000 1.03500
vt 0.20750 1.03031
vt -0.23000 1.03500
vt -0.24708 1.03031
vt 0.20750 1.03031
vt 0.20750 1.03031
vt -0.24708 1.03031
vt 0.22031 1.01750
vt -0.24708 1.03031
vt -0.25958 1.01750
vt 0.22031 1.01750
vt 0.22031 1.01750
vt -0.25958 1.01750
vt 0.22500 1.00000
vt -0.25958 1.01750
vt -0.26416 1.00000
vt 0.22500 1.00000
vt 0.22500 1.00000
vt -0.26416 1.00000
vt 0.22500 0.97000
vt -0.26416 1.00000
vt -0.26416 0.97000
vt 0.22500 0.97000
vt 0.22500 0.97000
vt -0.26416 0.97000
vt 0.22031 0.95250
vt -0.26416 0.97000
vt -0.25958 0.95250
vt 0.22031 0.95250
vt 0.22031 0.95250
vt -0.25958 0.95250
vt 0.20750 0.93969
vt -0.25958 0.95250
vt -0.24708 0.93969
vt 0.20750 0.93969
vt 0.20750 0.93969
vt -0.24708 0.93969
vt 0.19000 0.93500
vt -0.24708 0.93969
vt -0.23000 0.93500
vt 0.19000 0.93500
f 277/277 278/278 279/279
f 280/280 281/281 282/282
f 283/283 284/284 285/285
f 286/286 287/287 288/288
f 289/289 290/290 291/291
f 292/292 293/293 294/294
f 295/295 296/296 297/297
f 298/298 299/299 300/300
f 301/301 302/302 303/303
f 304/304 305/305 306/306
f 307/307 308/308 309/309
f 310/310 311/311 312/312
f 313/313 314/314 315/315
f 316/316 317/317 318/318
f 319/319 320/320 321/321
f 322/322 323/323 324/324
f 325/325 326/326 327/327
f 328/328 329/329 330/330
f 331/331 332/332 333/333
f 334/334 335/335 336/336
f 337/337 338/338 339/339
f 340/340 341/341 342/342
f 343/343 344/344 345/345
f 346/346 347/347 348/348
f 349/349 350/350 351/351
f 352/352 353/353 354/354
f 355/355 356/356 357/357
f 358/358 359/359 360/360
f 361/361 362/362 363/363
f 364/364 365/365 366/366
f 367/367 368/368 369/369
f 370/370 371/371 372/372
f 373/373 374/374 375/375
f 376/376 377/377 378/378
f 379/379 380/380 381/381
f 382/382 383/383 384/384
f 385/385 386/386 387/387
f 388/388 389/389 390/390
f 391/391 392/392 393/393
f 394/394 395/395 396/396
f 397/397 398/398 399/399
f 400/400 401/401 402/402
f 403/403 404/404 405/405
f 406/406 407/407 408/408
f 409/409 410/410 411/411
f 412/412 413/413 414/414
f 415/415 416/416 417/417
f 418/418 419/419 420/420
f 421/421 422/422 423/423
f 424/424 425/425 426/426
f 427/427 428/428 429/429
f 430/430 431/431 432/432
f 433/433 434/434 435/435
f 436/436 437/437 438/438
f 439/439 440/440 441/441
f 442/442 443/443 444/444
f 445/445 446/446 447/447
f 448/448 449/449 450/450
f 451/451 452/452 453/453
f 454/454 455/455 456/456
v -18.706 0.813 23.052
v -19.671 0.243 20.788
v -22.000 0.117 19.820
v -24.329 0.508 20.715
v -25.294 1.187 22.948
v -24.329 1.757 25.212
v -22.000 1.883 26.180
v -19.671 1.492 25.285
v -18.706 0.813 23.052
v -18.834 -1.148 23.544
v -19.792 -1.603 21.252
v -22.117 -1.665 20.267
v -24.448 -1.298 21.168
v -25.419 -0.717 23.426
v -24.462 -0.262 25.718
v -22.137 -0.200 26.703
v -19.806 -0.567 25.802
v -18.834 -1.148 23.544
v -18.977 -3.115 23.958
v -19.929 -3.497 21.650
v -22.251 -3.519 20.657
v -24.583 -3.167 21.561
v -25.559 -2.647 23.832
v -24.607 -2.265 26.140
v -22.285 -2.244 27.133
v -19.953 -2.596 26.229
v -18.977 -3.115 23.958
v -19.126 -5.078 24.329
v -20.076 -5.433 22.016
v -22.397 -5.439 21.020
v -24.730 -5.093 21.925
v -25.707 -4.597 24.200
v -24.757 -4.242 26.514
v -22.436 -4.236 27.509
v -20.104 -4.582 26.605
v -19.126 -5.078 24.329
v -19.275 -7.030 24.694
v -20.227 -7.403 22.385
v -22.549 -7.420 21.391
v -24.881 -7.069 22.295
v -25.857 -6.558 24.568
v -24.906 -6.185 26.877
v -22.584 -6.169 27.871
v -20.252 -6.519 26.967
v -19.275 -7.030 24.694
v -19.417 -8.965 25.090
v -20.373 -9.402 22.793
v -22.698 -9.454 21.807
v -25.029 -9.090 22.708
v -26.002 -8.525 24.970
v -25.045 -8.088 27.266
v -22.721 -8.037 28.253
v -20.390 -8.400 27.351
v -19.417 -8.965 25.090
v -19.546 -10.875 25.550
v -20.509 -11.418 23.280
v -22.838 -11.530 22.308
v -25.167 -11.145 23.204
v -26.134 -10.488 25.443
v -25.170 -9.945 27.714
v -22.842 -9.834 28.686
v -20.512 -10.219 27.790
v -19.546 -10.875 25.550
v -19.654 -12.750 26.107
v -20.626 -13.438 23.880
v -22.959 -13.631 22.932
v -25.287 -13.215 23.819
v -26.246 -12.435 26.021
v -25.275 -11.747 28.249
v -22.942 -11.554 29.197
v -20.613 -11.969 28.309
v -19.654 -12.750 26.107
v -19.737 -14.575 26.787
v -20.716 -15.438 24.625
v -23.054 -15.729 23.714
v -25.380 -15.278 24.587
v -26.333 -14.348 26.734
v -25.353 -13.484 28.896
v -23.016 -13.193 29.807
v -20.689 -13.645 28.933
v -19.737 -14.575 26.787
v -19.789 -16.335 27.607
v -20.774 -17.391 25.535
v -23.115 -17.790 24.675
v -25.440 -17.299 25.530
v -26.387 -16.204 27.599
v -25.402 -15.148 29.671
v -23.061 -14.749 30.532
v -20.736 -15.240 29.677
v -19.789 -16.335 27.607
v -19.807 -18.017 28.577
v -20.794 -19.260 26.613
v -23.136 -19.765 25.813
v -25.461 -19.234 26.645
v -26.407 -17.980 28.623
v -25.419 -16.736 30.587
v -23.077 -16.232 31.387
v -20.753 -16.762 30.555
v -19.807 -18.017 28.577
v -19.795 -19.627 29.681
v -20.781 -21.015 27.815
v -23.122 -21.600 27.070
v -25.447 -21.039 27.882
v -26.394 -19.662 29.776
v -25.408 -18.275 31.642
v -23.067 -17.690 32.387
v -20.742 -18.250 31.575
v -19.795 -19.627 29.681
v -19.759 -21.175 30.887
v -20.743 -22.670 29.104
v -23.083 -23.315 28.406
v -25.408 -22.732 29.201
v -26.357 -21.263 31.023
v -25.373 -19.768 32.806
v -23.033 -19.123 33.504
v -20.708 -19.706 32.709
v -19.759 -21.175 30.887
v -19.704 -22.668 32.170
v -20.685 -24.244 30.457
v -23.023 -24.934 29.797
v -25.349 -24.335 30.578
v -26.301 -22.797 32.341
v -25.320 -21.222 34.055
v -22.981 -20.531 34.714
v -20.655 -21.131 33.934
v -19.704 -22.668 32.170
v -19.635 -24.117 33.512
v -20.612 -25.753 31.854
v -22.949 -26.477 31.226
v -25.276 -25.865 31.995
v -26.230 -24.276 33.711
v -25.252 -22.640 35.369
v -22.915 -21.916 35.997
v -20.588 -22.528 35.228
v -19.635 -24.117 33.512
v -19.554 -25.530 34.898
v -20.529 -27.210 33.283
v -22.864 -27.959 32.679
v -25.192 -27.338 33.439
v -26.148 -25.711 35.118
v -25.172 -24.031 36.732
v -22.837 -23.282 37.336
v -20.510 -23.903 36.576
v -19.554 -25.530 34.898
v -19.465 -26.916 36.316
v -20.438 -28.628 34.734
v -22.772 -29.395 34.148
v -25.100 -28.767 34.902
v -26.057 -27.113 36.553
v -25.084 -25.401 38.134
v -22.750 -24.635 38.720
v -20.422 -25.262 37.967
v -19.465 -26.916 36.316
v -19.370 -28.283 37.757
v -20.341 -30.016 36.198
v -22.675 -30.795 35.625
v -25.003 -30.163 36.374
v -25.962 -28.491 38.005
v -24.990 -26.758 39.565
v -22.656 -25.979 40.138
v -20.328 -26.611 39.389
v -19.370 -28.283 37.757
v -19.271 -29.638 39.214
v -20.242 -31.383 37.668
v -22.574 -32.169 37.102
v -24.902 -31.534 37.848
v -25.862 -29.852 39.469
v -24.891 -28.106 41.015
v -22.558 -27.321 41.581
v -20.230 -27.955 40.835
v -19.271 -29.638 39.214
v -19.170 -30.988 40.680
v -20.140 -32.737 39.138
v -22.473 -33.525 38.574
v -24.801 -32.889 39.320
v -25.761 -31.203 40.937
v -24.790 -29.454 42.479
v -22.458 -28.667 43.042
v -20.130 -29.302 42.297
v -19.170 -30.988 40.680
v -19.069 -32.340 42.147
v -20.040 -34.085 40.601
v -22.372 -34.870 40.035
v -24.700 -34.236 40.781
v -25.660 -32.553 42.402
v -24.689 -30.809 43.948
v -22.356 -30.023 44.514
v -20.028 -30.658 43.768
v -19.069 -32.340 42.147
v -18.969 -33.702 43.610
v -19.941 -35.434 42.050
v -22.274 -36.212 41.477
v -24.602 -35.580 42.225
v -25.561 -33.909 43.858
v -24.589 -32.177 45.418
v -22.256 -31.398 45.992
v -19.928 -32.030 45.243
v -18.969 -33.702 43.610
v -18.874 -35.080 45.062
v -19.847 -36.790 43.479
v -22.181 -37.556 42.893
v -24.509 -36.929 43.646
v -25.466 -35.276 45.299
v -24.493 -33.566 46.882
v -22.159 -32.800 47.468
v -19.831 -33.427 46.715
v -18.874 -35.080 45.062
v -18.784 -36.484 46.496
v -19.759 -38.162 44.879
v -22.095 -38.909 44.274
v -24.422 -38.289 45.035
v -25.378 -36.664 46.715
v -24.402 -34.986 48.332
v -22.067 -34.238 48.937
v -19.740 -34.859 48.176
v -18.784 -36.484 46.496
v -18.702 -37.921 47.901
v -19.680 -39.554 46.241
v -22.017 -40.276 45.611
v -24.344 -39.665 46.381
v -25.298 -38.079 48.099
v -24.320 -36.446 49.759
v -21.983 -35.724 50.389
v -19.656 -36.335 49.619
v -18.702 -37.921 47.901
vt 0.00000 0.00000
vt 0.00000 0.12500
vt 0.00000 0.25000
vt 0.00000 0.37500
vt 0.00000 0.50000
vt 0.00000 0.62500
vt 0.00000 0.75000
vt 0.00000 0.87500
vt 0.00000 1.00000
vt 0.04167 0.00000
vt 0.04167 0.12500
vt 0.04167 0.25000
vt 0.04167 0.37500
vt 0.04167 0.50000
vt 0.04167 0.62500
vt 0.04167 0.75000
vt 0.04167 0.87500
vt 0.04167 1.00000
vt 0.08333 0.00000
vt 0.08333 0.12500
vt 0.08333 0.25000
vt 0.08333 0.37500
vt 0.08333 0.50000
vt 0.08333 0.62500
vt 0.08333 0.75000
vt 0.08333 0.87500
vt 0.08333 1.00000
vt 0.12500 0.00000
vt 0.12500 0.12500
vt 0.12500 0.25000
vt 0.12500 0.37500
vt 0.12500 0.50000
vt 0.12500 0.62500
vt 0.12500 0.75000
vt 0.12500 0.87500
vt 0.12500 1.00000
vt 0.16667 0.00000
vt 0.16667 0.12500
vt 0.16667 0.25000
vt 0.16667 0.37500
vt 0.16667 0.50000
vt 0.16667 0.62500
vt 0.16667 0.75000
vt 0.16667 0.87500
vt 0.16667 1.00000
vt 0.20833 0.00000
vt 0.20833 0.12500
vt 0.20833 0.25000
vt 0.20833 0.37500
vt 0.20833 0.50000
vt 0.20833 0.62500
vt 0.20833 0.75000
vt 0.20833 0.87500
vt 0.20833 1.00000
vt 0.25000 0.00000
vt 0.25000 0.12500
vt 0.25000 0.25000
vt 0.25000 0.37500
vt 0.25000 0.50000
vt 0.25000 0.62500
vt 0.25000 0.75000
vt 0.25000 0.87500
vt 0.25000 1.00000
vt 0.29167 0.00000
vt 0.29167 0.12500
vt 0.29167 0.25000
vt 0.29167 0.37500
vt 0.29167 0.50000
vt 0.29167 0.62500
vt 0.29167 0.75000
vt 0.29167 0.87500
vt 0.29167 1.00000
vt 0.33333 0.00000
vt 0.33333 0.12500
vt 0.33333 0.25000
vt 0.33333 0.37500
vt 0.33333 0.50000
vt 0.33333 0.62500
vt 0.33333 0.75000
vt 0.33333 0.87500
vt 0.33333 1.00000
vt 0.37500 0.00000
vt 0.37500 0.12500
vt 0.37500 0.25000
vt 0.37500 0.37500
vt 0.37500 0.50000
vt 0.37500 0.62500
vt 0.37500 0.75000
vt 0.37500 0.87500
vt 0.37500 1.00000
vt 0.41667 0.00000
vt 0.41667 0.12500
vt 0.41667 0.25000
vt 0.41667 0.37500
vt 0.41667 0.50000
vt 0.41667 0.62500
vt 0.41667 0.75000
vt 0.41667 0.87500
vt 0.41667 1.00000
vt 0.45833 0.00000
vt 0.45833 0.12500
vt 0.45833 0.25000
vt 0.45833 0.37500
vt 0.45833 0.50000
vt 0.45833 0.62500
vt 0.45833 0.75000
vt 0.45833 0.87500
vt 0.45833 1.00000
vt 0.50000 0.00000
vt 0.50000 0.12500
vt 0.50000 0.25000
vt 0.50000 0.37500
vt 0.50000 0.50000
vt 0.50000 0.62500
vt 0.50000 0.75000
vt 0.50000 0.87500
vt 0.50000 1.00000
vt 0.54167 0.00000
vt 0.54167 0.12500
vt 0.54167 0.25000
vt 0.54167 0.37500
vt 0.54167 0.50000
vt 0.54167 0.62500
vt 0.54167 0.75000
vt 0.54167 0.87500
vt 0.54167 1.00000
vt 0.58333 0.00000
vt 0.58333 0.12500
vt 0.58333 0.25000
vt 0.58333 0.37500
vt 0.58333 0.50000
vt 0.58333 0.62500
vt 0.58333 0.75000
vt 0.58333 0.87500
vt 0.58333 1.00000
vt 0.62500 0.00000
vt 0.62500 0.12500
vt 0.62500 0.25000
vt 0.62500 0.37500
vt 0.62500 0.50000
vt 0.62500 0.62500
vt 0.62500 0.75000
vt 0.62500 0.87500
vt 0.62500 1.00000
vt 0.66667 0.00000
vt 0.66667 0.12500
vt 0.66667 0.25000
vt 0.66667 0.37500
vt 0.66667 0.50000
vt 0.66667 0.62500
vt 0.66667 0.75000
vt 0.66667 0.87500
vt 0.66667 1.00000
vt 0.70833 0.00000
vt 0.70833 0.12500
vt 0.70833 0.25000
vt 0.70833 0.37500
vt 0.70833 0.50000
vt 0.70833 0.62500
vt 0.70833 0.75000
vt 0.70833 0.87500
vt 0.70833 1.00000
vt 0.75000 0.00000
vt 0.75000 0.12500
vt 0.75000 0.25000
vt 0.75000 0.37500
vt 0.75000 0.50000
vt 0.75000 0.62500
vt 0.75000 0.75000
vt 0.75000 0.87500
vt 0.75000 1.00000
vt 0.79167 0.00000
vt 0.79167 0.12500
vt 0.79167 0.25000
vt 0.79167 0.37500
vt 0.79167 0.50000
vt 0.79167 0.62500
vt 0.79167 0.75000
vt 0.79167 0.87500
vt 0.79167 1.00000
vt 0.83333 0.00000
vt 0.83333 0.12500
vt 0.83333 0.25000
vt 0.83333 0.37500
vt 0.83333 0.50000
vt 0.83333 0.62500
vt 0.83333 0.75000
vt 0.83333 0.87500
vt 0.83333 1.00000
vt 0.87500 0.00000
vt 0.87500 0.12500
vt 0.87500 0.25000
vt 0.87500 0.37500
vt 0.87500 0.50000
vt 0.87500 0.62500
vt 0.87500 0.75000
vt 0.87500 0.87500
vt 0.87500 1.00000
vt 0.91667 0.00000
vt 0.91667 0.12500
vt 0.91667 0.25000
vt 0.91667 0.37500
vt 0.91667 0.50000
vt 0.91667 0.62500
vt 0.91667 0.75000
vt 0.91667 0.87500
vt 0.91667 1.00000
vt 0.95833 0.00000
vt 0.95833 0.12500
vt 0.95833 0.25000
vt 0.95833 0.37500
vt 0.95833 0.50000
vt 0.95833 0.62500
vt 0.95833 0.75000
vt 0.95833 0.87500
vt 0.95833 1.00000
vt 1.00000 0.00000
vt 1.00000 0.12500
vt 1.00000 0.25000
vt 1.00000 0.37500
vt 1.00000 0.50000
vt 1.00000 0.62500
vt 1.00000 0.75000
vt 1.00000 0.87500
vt 1.00000 1.00000
f 457/457 466/466 458/458
f 466/466 467/467 458/458
f 458/458 467/467 459/459
f 467/467 468/468 459/459
f 459/459 468/468 460/460
f 468/468 469/469 460/460
f 460/460 469/469 461/461
f 469/469 470/470 461/461
f 461/461 470/470 462/462
f 470/470 471/471 462/462
f 462/462 471/471 463/463
f 471/471 472/472 463/463
f 463/463 472/472 464/464
f 472/472 473/473 464/464
f 464/464 473/473 465/465
f 473/473 474/474 465/465
f 466/466 475/475 467/467
f 475/475 476/476 467/467
f 467/467 476/476 468/468
f 476/476 477/477 468/468
f 468/468 477/477 469/469
f 477/477 478/478 469/469
f 469/469 478/478 470/470
f 478/478 479/479 470/470
f 470/470 479/479 471/471
f 479/479 480/480 471/471
f 471/471 480/480 472/472
f 480/480 481/481 472/472
f 472/472 481/481 473/473
f 481/481 482/482 473/473
f 473/473 482/482 474/474
f 482/482 483/483 474/474
f 475/475 484/484 476/476
f 484/484 485/485 476/476
f 476/476 485/485 477/477
f 485/485 486/486 477/477
f 477/477 486/486 478/478
f 486/486 487/487 478/478
f 478/478 487/487 479/479
f 487/487 488/488 479/479
f 479/479 488/488 480/480
f 488/488 489/489 480/480
f 480/480 489/489 481/481
f 489/489 490/490 481/481
f 481/481 490/490 482/482
f 490/490 491/491 482/482
f 482/482 491/491 483/483
f 491/491 492/492 483/483
f 484/484 493/493 485/485
f 493/493 494/494 485/485
f 485/485 494/494 486/486
f 494/494 495/495 486/486
f 486/486 495/495 487/487
f 495/495 496/496 487/487
f 487/487 496/496 488/488
f 496/496 497/497 488/488
f 488/488 497/497 489/489
f 497/497 498/498 489/489
f 489/489 498/498 490/490
f 498/498 499/499 490/490
f 490/490 499/499 491/491
f 499/499 500/500 491/491
f 491/491 500/500 492/492
f 500/500 501/501 492/492
f 493/493 502/502 494/494
f 502/502 503/503 494/494
f 494/494 503/503 495/495
f 503/503 504/504 495/495
f 495/495 504/504 496/496
f 504/504 505/505 496/496
f 496/496 505/505 497/497
f 505/505 506/506 497/497
f 497/497 506/506 498/498
f 506/506 507/507 498/498
f 498/498 507/507 499/499
f 507/507 508/508 499/499
f 499/499 508/508 500/500
f 508/508 509/509 500/500
f 500/500 509/509 501/501
f 509/509 510/510 501/501
f 502/502 511/511 503/503
f 511/511 512/512 503/503
f 503/503 512/512 504/504
f 512/512 513/513 504/504
f 504/504 513/513 505/505
f 513/513 514/514 505/505
f 505/505 514/514 506/506
f 514/514 515/515 506/506
f 506/506 515/515 507/507
f 515/515 516/516 507/507
f 507/507 516/516 508/508
f 516/516 517/517 508/508
f 508/508 517/517 509/509
f 517/517 518/518 509/509
f 509/509 518/518 510/510
f 518/518 519/519 510/510
f 511/511 520/520 512/512
f 520/520 521/521 512/512
f 512/512 521/521 513/513
f 521/521 522/522 513/513
f 513/513 522/522 514/514
f 522/522 523/523 514/514
f 514/514 523/523 515/515
f 523/523 524/524 515/515
f 515/515 524/524 516/516
f 524/524 525/525 516/516
f 516/516 525/525 517/517
f 525/525 526/526 517/517
f 517/517 526/526 518/518
f 526/526 527/527 518/518
f 518/518 527/527 519/519
f 527/527 528/528 519/519
f 520/520 529/529 521/521
f 529/529 530/530 521/521
f 521/521 530/530 522/522
f 530/530 531/531 522/522
f 522/522 531/531 523/523
f 531/531 532/532 523/523
f 523/523 532/532 524/524
f 532/532 533/533 524/524
f 524/524 533/533 525/525
f 533/533 534/534 525/525
f 525/525 534/534 526/526
f 534/534 535/535 526/526
f 526/526 535/535 527/527
f 535/535 536/536 527/527
f 527/527 536/536 528/528
f 536/536 537/537 528/528
f 529/529 538/538 530/530
f 538/538 539/539 530/530
f 530/530 539/539 531/531
f 539/539 540/540 531/531
f 531/531 540/540 532/532
f 540/540 541/541 532/532
f 532/532 541/541 533/533
f 541/541 542/542 533/533
f 533/533 542/542 534/534
f 542/542 543/543 534/534
f 534/534 543/543 535/535
f 543/543 544/544 535/535
f 535/535 544/544 536/536
f 544/544 545/545 536/536
f 536/536 545/545 537/537
f 545/545 546/546 537/537
f 538/538 547/547 539/539
f 547/547 548/548 539/539
f 539/539 548/548 540/540
f 548/548 549/549 540/540
f 540/540 549/549 541/541
f 549/549 550/550 541/541
f 541/541 550/550 542/542
f 550/550 551/551 542/542
f 542/542 551/551 543/543
f 551/551 552/552 543/543
f 543/543 552/552 544/544
f 552/552 553/553 544/544
f 544/544 553/553 545/545
f 553/553 554/554 545/545
f 545/545 554/554 546/546
f 554/554 555/555 546/546
f 547/547 556/556 548/548
f 556/556 557/557 548/548
f 548/548 557/557 549/549
f 557/557 558/558 549/549
f 549/549 558/558 550/550
f 558/558 559/559 550/550
f 550/550 559/559 551/551
f 559/559 560/560 551/551
f 551/551 560/560 552/552
f 560/560 561/561 552/552
f 552/552 561/561 553/553
f 561/561 562/562 553/553
f 553/553 562/562 554/554
f 562/562 563/563 554/554
f 554/554 563/563 555/555
f 563/563 564/564 555/555
f 556/556 565/565 557/557
f 565/565 566/566 557/557
f 557/557 566/566 558/558
f 566/566 567/567 558/558
f 558/558 567/567 559/559
f 567/567 568/568 559/559
f 559/559 568/568 560/560
f 568/568 569/569 560/560
f 560/560 569/569 561/561
f 569/569 570/570 561/561
f 561/561 570/570 562/562
f 570/570 571/571 562/562
f 562/562 571/571 563/563
f 571/571 572/572 563/563
f 563/563 572/572 564/564
f 572/572 573/573 564/564
f 565/565 574/574 566/566
f 574/574 575/575 566/566
f 566/566 575/575 567/567
f 575/575 576/576 567/567
f 567/567 576/576 568/568
f 576/576 577/577 568/568
f 568/568 577/577 569/569
f 577/577 578/578 569/569
f 569/569 578/578 570/570
f 578/578 579/579 570/570
f 570/570 579/579 571/571
f 579/579 580/580 571/571
f 571/571 580/580 572/572
f 580/580 581/581 572/572
f 572/572 581/581 573/573
f 581/581 582/582 573/573
f 574/574 583/583 575/575
f 583/583 584/584 575/575
f 575/575 584/584 576/576
f 584/584 585/585 576/576
f 576/576 585/585 577/577
f 585/585 586/586 577/577
f 577/577 586/586 578/578
f 586/586 587/587 578/578
f 578/578 587/587 579/579
f 587/587 588/588 579/579
f 579/579 588/588 580/580
f 588/588 589/589 580/580
f 580/580 589/589 581/581
f 589/589 590/590 581/581
f 581/581 590/590 582/582
f 590/590 591/591 582/582
f 583/583 592/592 584/584
f 592/592 593/593 584/584
f 584/584 593/593 585/585
f 593/593 594/594 585/585
f 585/585 594/594 586/586
f 594/594 595/595 586/586
f 586/586 595/595 587/587
f 595/595 596/596 587/587
f 587/587 596/596 588/588
f 596/596 597/597 588/588
f 588/588 597/597 589/589
f 597/597 598/598 589/589
f 589/589 598/598 590/590
f 598/598 599/599 590/590
f 590/590 599/599 591/591
f 599/599 600/600 591/591
f 592/592 601/601 593/593
f 601/601 602/602 593/593
f 593/593 602/602 594/594
f 602/602 603/603 594/594
f 594/594 603/603 595/595
f 603/603 604/604 595/595
f 595/595 604/604 596/596
f 604/604 605/605 596/596
f 596/596 605/605 597/597
f 605/605 606/606 597/597
f 597/597 606/606 598/598
f 606/606 607/607 598/598
f 598/598 607/607 599/599
f 607/607 608/608 599/599
f 599/599 608/608 600/600
f 608/608 609/609 600/600
f 601/601 610/610 602/602
f 610/610 611/611 602/602
f 602/602 611/611 603/603
f 611/611 612/612 603/603
f 603/603 612/612 604/604
f 612/612 613/613 604/604
f 604/604 613/613 605/605
f 613/613 614/614 605/605
f 605/605 614/614 606/606
f 614/614 615/615 606/606
f 606/606 615/615 607/607
f 615/615 616/616 607/607
f 607/607 616/616 608/608
f 616/616 617/617 608/608
f 608/608 617/617 609/609
f 617/617 618/618 609/609
f 610/610 619/619 611/611
f 619/619 620/620 611/611
f 611/611 620/620 612/612
f 620/620 621/621 612/612
f 612/612 621/621 613/613
f 621/621 622/622 613/613
f 613/613 622/622 614/614
f 622/622 623/623 614/614
f 614/614 623/623 615/615
f 623/623 624/624 615/615
f 615/615 624/624 616/616
f 624/624 625/625 616/616
f 616/616 625/625 617/617
f 625/625 626/626 617/617
f 617/617 626/626 618/618
f 626/626 627/627 618/618
f 619/619 628/628 620/620
f 628/628 629/629 620/620
f 620/620 629/629 621/621
f 629/629 630/630 621/621
f 621/621 630/630 622/622
f 630/630 631/631 622/622
f 622/622 631/631 623/623
f 631/631 632/632 623/623
f 623/623 632/632 624/624
f 632/632 633/633 624/624
f 624/624 633/633 625/625
f 633/633 634/634 625/625
f 625/625 634/634 626/626
f 634/634 635/635 626/626
f 626/626 635/635 627/627
f 635/635 636/636 627/627
f 628/628 637/637 629/629
f 637/637 638/638 629/629
f 629/629 638/638 630/630
f 638/638 639/639 630/630
f 630/630 639/639 631/631
f 639/639 640/640 631/631
f 631/631 640/640 632/632
f 640/640 641/641 632/632
f 632/632 641/641 633/633
f 641/641 642/642 633/633
f 633/633 642/642 634/634
f 642/642 643/643 634/634
f 634/634 643/643 635/635
f 643/643 644/644 635/635
f 635/635 644/644 636/636
f 644/644 645/645 636/636
f 637/637 646/646 638/638
f 646/646 647/647 638/638
f 638/638 647/647 639/639
f 647/647 648/648 639/639
f 639/639 648/648 640/640
f 648/648 649/649 640/640
f 640/640 649/649 641/641
f 649/649 650/650 641/641
f 641/641 650/650 642/642
f 650/650 651/651 642/642
f 642/642 651/651 643/643
f 651/651 652/652 643/643
f 643/643 652/652 644/644
f 652/652 653/653 644/644
f 644/644 653/653 645/645
f 653/653 654/654 645/645
f 646/646 655/655 647/647
f 655/655 656/656 647/647
f 647/647 656/656 648/648
f 656/656 657/657 648/648
f 648/648 657/657 649/649
f 657/657 658/658 649/649
f 649/649 658/658 650/650
f 658/658 659/659 650/650
f 650/650 659/659 651/651
f 659/659 660/660 651/651
f 651/651 660/660 652/652
f 660/660 661/661 652/652
f 652/652 661/661 653/653
f 661/661 662/662 653/653
f 653/653 662/662 654/654
f 662/662 663/663 654/654
f 655/655 664/664 656/656
f 664/664 665/665 656/656
f 656/656 665/665 657/657
f 665/665 666/666 657/657
f 657/657 666/666 658/658
f 666/666 667/667 658/658
f 658/658 667/667 659/659
f 667/667 668/668 659/659
f 659/659 668/668 660/660
f 668/668 669/669 660/660
f 660/660 669/669 661/661
f 669/669 670/670 661/661
f 661/661 670/670 662/662
f 670/670 671/671 662/662
f 662/662 671/671 663/663
f 671/671 672/672 663/663
f 664/664 673/673 665/665
f 673/673 674/674 665/665
f 665/665 674/674 666/666
f 674/674 675/675 666/666
f 666/666 675/675 667/667
f 675/675 676/676 667/667
f 667/667 676/676 668/668
f 676/676 677/677 668/668
f 668/668 677/677 669/669
f 677/677 678/678 669/669
f 669/669 678/678 670/670
f 678/678 679/679 670/670
f 670/670 679/679 671/671
f 679/679 680/680 671/671
f 671/671 680/680 672/672
f 680/680 681/681 672/672
v 25.294 1.187 22.948
v 24.329 0.508 20.715
v 22.000 0.117 19.820
v 19.671 0.243 20.788
v 18.706 0.813 23.052
v 19.671 1.492 25.285
v 22.000 1.883 26.180
v 24.329 1.757 25.212
v 25.294 1.187 22.948
v 25.419 -0.717 23.426
v 24.448 -1.298 21.168
v 22.117 -1.665 20.267
v 19.792 -1.603 21.252
v 18.834 -1.148 23.544
v 19.806 -0.567 25.802
v 22.137 -0.200 26.703
v 24.462 -0.262 25.718
v 25.419 -0.717 23.426
v 25.559 -2.647 23.832
v 24.583 -3.167 21.561
v 22.251 -3.519 20.657
v 19.929 -3.497 21.650
v 18.977 -3.115 23.958
v 19.953 -2.596 26.229
v 22.285 -2.244 27.133
v 24.607 -2.265 26.140
v 25.559 -2.647 23.832
v 25.707 -4.597 24.200
v 24.730 -5.093 21.925
v 22.397 -5.439 21.020
v 20.076 -5.433 22.016
v 19.126 -5.078 24.329
v 20.104 -4.582 26.605
v 22.436 -4.236 27.509
v 24.757 -4.242 26.514
v 25.707 -4.597 24.200
v 25.857 -6.558 24.568
v 24.881 -7.069 22.295
v 22.549 -7.420 21.391
v 20.227 -7.403 22.385
v 19.275 -7.030 24.694
v 20.252 -6.519 26.967
v 22.584 -6.169 27.871
v 24.906 -6.185 26.877
v 25.857 -6.558 24.568
v 26.002 -8.525 24.970
v 25.029 -9.090 22.708
v 22.698 -9.454 21.807
v 20.373 -9.402 22.793
v 19.417 -8.965 25.090
v 20.390 -8.400 27.351
v 22.721 -8.037 28.253
v 25.045 -8.088 27.266
v 26.002 -8.525 24.970
v 26.134 -10.488 25.443
v 25.167 -11.145 23.204
v 22.838 -11.530 22.308
v 20.509 -11.418 23.280
v 19.546 -10.875 25.550
v 20.512 -10.219 27.790
v 22.842 -9.834 28.686
v 25.170 -9.945 27.714
v 26.134 -10.488 25.443
v 26.246 -12.435 26.021
v 25.287 -13.215 23.819
v 22.959 -13.631 22.932
v 20.626 -13.438 23.880
v 19.654 -12.750 26.107
v 20.613 -11.969 28.309
v 22.942 -11.554 29.197
v 25.275 -11.747 28.249
v 26.246 -12.435 26.021
v 26.333 -14.348 26.734
v 25.380 -15.278 24.587
v 23.054 -15.729 23.714
v 20.716 -15.438 24.625
v 19.737 -14.575 26.787
v 20.689 -13.645 28.933
v 23.016 -13.193 29.807
v 25.353 -13.484 28.896
v 26.333 -14.348 26.734
v 26.387 -16.204 27.599
v 25.440 -17.299 25.530
v 23.115 -17.790 24.675
v 20.774 -17.391 25.535
v 19.789 -16.335 27.607
v 20.736 -15.240 29.677
v 23.061 -14.749 30.532
v 25.402 -15.148 29.671
v 26.387 -16.204 27.599
v 26.407 -17.980 28.623
v 25.461 -19.234 26.645
v 23.136 -19.765 25.813
v 20.794 -19.260 26.613
v 19.807 -18.017 28.577
v 20.753 -16.762 30.555
v 23.077 -16.232 31.387
v 25.419 -16.736 30.587
v 26.407 -17.980 28.623
v 26.394 -19.662 29.776
v 25.447 -21.039 27.882
v 23.122 -21.600 27.070
v 20.781 -21.015 27.815
v 19.795 -19.627 29.681
v 20.742 -18.250 31.575
v 23.067 -17.690 32.387
v 25.408 -18.275 31.642
v 26.394 -19.662 29.776
v 26.357 -21.263 31.023
v 25.408 -22.732 29.201
v 23.083 -23.315 28.406
v 20.743 -22.670 29.104
v 19.759 -21.175 30.887
v 20.708 -19.706 32.709
v 23.033 -19.123 33.504
v 25.373 -19.768 32.806
v 26.357 -21.263 31.023
v 26.301 -22.797 32.341
v 25.349 -24.335 30.578
v 23.023 -24.934 29.797
v 20.685 -24.244 30.457
v 19.704 -22.668 32.170
v 20.655 -21.131 33.934
v 22.981 -20.531 34.714
v 25.320 -21.222 34.055
v 26.301 -22.797 32.341
v 26.230 -24.276 33.711
v 25.276 -25.865 31.995
v 22.949 -26.477 31.226
v 20.612 -25.753 31.854
v 19.635 -24.117 33.512
v 20.588 -22.528 35.228
v 22.915 -21.916 35.997
v 25.252 -22.640 35.369
v 26.230 -24.276 33.711
v 26.148 -25.711 35.118
v 25.192 -27.338 33.439
v 22.864 -27.959 32.679
v 20.529 -27.210 33.283
v 19.554 -25.530 34.898
v 20.510 -23.903 36.576
v 22.837 -23.282 37.336
v 25.172 -24.031 36.732
v 26.148 -25.711 35.118
v 26.057 -27.113 36.553
v 25.100 -28.767 34.902
v 22.772 -29.395 34.148
v 20.438 -28.628 34.734
v 19.465 -26.916 36.316
v 20.422 -25.262 37.967
v 22.750 -24.635 38.720
v 25.084 -25.401 38.134
v 26.057 -27.113 36.553
v 25.962 -28.491 38.005
v 25.003 -30.163 36.374
v 22.675 -30.795 35.625
v 20.341 -30.016 36.198
v 19.370 -28.283 37.757
v 20.328 -26.611 39.389
v 22.656 -25.979 40.138
v 24.990 -26.758 39.565
v 25.962 -28.491 38.005
v 25.862 -29.852 39.469
v 24.902 -31.534 37.848
v 22.574 -32.169 37.102
v 20.242 -31.383 37.668
v 19.271 -29.638 39.214
v 20.230 -27.955 40.835
v 22.558 -27.321 41.581
v 24.891 -28.106 41.015
v 25.862 -29.852 39.469
v 25.761 -31.203 40.937
v 24.801 -32.889 39.320
v 22.473 -33.525 38.574
v 20.140 -32.737 39.138
v 19.170 -30.988 40.680
v 20.130 -29.302 42.297
v 22.458 -28.667 43.042
v 24.790 -29.454 42.479
v 25.761 -31.203 40.937
v 25.660 -32.553 42.402
v 24.700 -34.236 40.781
v 22.372 -34.870 40.035
v 20.040 -34.085 40.601
v 19.069 -32.340 42.147
v 20.028 -30.658 43.768
v 22.356 -30.023 44.514
v 24.689 -30.809 43.948
v 25.660 -32.553 42.402
v 25.561 -33.909 43.858
v 24.602 -35.580 42.225
v 22.274 -36.212 41.477
v 19.941 -35.434 42.050
v 18.969 -33.702 43.610
v 19.928 -32.030 45.243
v 22.256 -31.398 45.992
v 24.589 -32.177 45.418
v 25.561 -33.909 43.858
v 25.466 -35.276 45.299
v 24.509 -36.929 43.646
v 22.181 -37.556 42.893
v 19.847 -36.790 43.479
v 18.874 -35.080 45.062
v 19.831 -33.427 46.715
v 22.159 -32.800 47.468
v 24.493 -33.566 46.882
v 25.466 -35.276 45.299
v 25.378 -36.664 46.715
v 24.422 -38.289 45.035
v 22.095 -38.909 44.274
v 19.759 -38.162 44.879
v 18.784 -36.484 46.496
v 19.740 -34.859 48.176
v 22.067 -34.238 48.937
v 24.402 -34.986 48.332
v 25.378 -36.664 46.715
v 25.298 -38.079 48.099
v 24.344 -39.665 46.381
v 22.017 -40.276 45.611
v 19.680 -39.554 46.241
v 18.702 -37.921 47.901
v 19.656 -36.335 49.619
v 21.983 -35.724 50.389
v 24.320 -36.446 49.759
v 25.298 -38.079 48.099
vt 0.00000 0.00000
vt 0.00000 0.12500
vt 0.00000 0.25000
vt 0.00000 0.37500
vt 0.00000 0.50000
vt 0.00000 0.62500
vt 0.00000 0.75000
vt 0.00000 0.87500
vt 0.00000 1.00000
vt 0.04167 0.00000
vt 0.04167 0.12500
vt 0.04167 0.25000
vt 0.04167 0.37500
vt 0.04167 0.50000
vt 0.04167 0.62500
vt 0.04167 0.75000
vt 0.04167 0.87500
vt 0.04167 1.00000
vt 0.08333 0.00000
vt 0.08333 0.12500
vt 0.08333 0.25000
vt 0.08333 0.37500
vt 0.08333 0.50000
vt 0.08333 0.62500
vt 0.08333 0.75000
vt 0.08333 0.87500
vt 0.08333 1.00000
vt 0.12500 0.00000
vt 0.12500 0.12500
vt 0.12500 0.25000
vt 0.12500 0.37500
vt 0.12500 0.50000
vt 0.12500 0.62500
vt 0.12500 0.75000
vt 0.12500 0.87500
vt 0.12500 1.00000
vt 0.16667 0.00000
vt 0.16667 0.12500
vt 0.16667 0.25000
vt 0.16667 0.37500
vt 0.16667 0.50000
vt 0.16667 0.62500
vt 0.16667 0.75000
vt 0.16667 0.87500
vt 0.16667 1.00000
vt 0.20833 0.00000
vt 0.20833 0.12500
vt 0.20833 0.25000
vt 0.20833 0.37500
vt 0.20833 0.50000
vt 0.20833 0.62500
vt 0.20833 0.75000
vt 0.20833 0.87500
vt 0.20833 1.00000
vt 0.25000 0.00000
vt 0.25000 0.12500
vt 0.25000 0.25000
vt 0.25000 0.37500
vt 0.25000 0.50000
vt 0.25000 0.62500
vt 0.25000 0.75000
vt 0.25000 0.87500
vt 0.25000 1.00000
vt 0.29167 0.00000
vt 0.29167 0.12500
vt 0.29167 0.25000
vt 0.29167 0.37500
vt 0.29167 0.50000
vt 0.29167 0.62500
vt 0.29167 0.75000
vt 0.29167 0.87500
vt 0.29167 1.00000
vt 0.33333 0.00000
vt 0.33333 0.12500
vt 0.33333 0.25000
vt 0.33333 0.37500
vt 0.33333 0.50000
vt 0.33333 0.62500
vt 0.33333 0.75000
vt 0.33333 0.87500
vt 0.33333 1.00000
vt 0.37500 0.00000
vt 0.37500 0.12500
vt 0.37500 0.25000
vt 0.37500 0.37500
vt 0.37500 0.50000
vt 0.37500 0.62500
vt 0.37500 0.75000
vt 0.37500 0.87500
vt 0.37500 1.00000
vt 0.41667 0.00000
vt 0.41667 0.12500
vt 0.41667 0.25000
vt 0.41667 0.37500
vt 0.41667 0.50000
vt 0.41667 0.62500
vt 0.41667 0.75000
vt 0.41667 0.87500
vt 0.41667 1.00000
vt 0.45833 0.00000
vt 0.45833 0.12500
vt 0.45833 0.25000
vt 0.45833 0.37500
vt 0.45833 0.50000
vt 0.45833 0.62500
vt 0.45833 0.75000
vt 0.45833 0.87500
vt 0.45833 1.00000
vt 0.50000 0.00000
vt 0.50000 0.12500
vt 0.50000 0.25000
vt 0.50000 0.37500
vt 0.50000 0.50000
vt 0.50000 0.62500
vt 0.50000 0.75000
vt 0.50000 0.87500
vt 0.50000 1.00000
vt 0.54167 0.00000
vt 0.54167 0.12500
vt 0.54167 0.25000
vt 0.54167 0.37500
vt 0.54167 0.50000
vt 0.54167 0.62500
vt 0.54167 0.75000
vt 0.54167 0.87500
vt 0.54167 1.00000
vt 0.58333 0.00000
vt 0.58333 0.12500
vt 0.58333 0.25000
vt 0.58333 0.37500
vt 0.58333 0.50000
vt 0.58333 0.62500
vt 0.58333 0.75000
vt 0.58333 0.87500
vt 0.58333 1.00000
vt 0.62500 0.00000
vt 0.62500 0.12500
vt 0.62500 0.25000
vt 0.62500 0.37500
vt 0.62500 0.50000
vt 0.62500 0.62500
vt 0.62500 0.75000
vt 0.62500 0.87500
vt 0.62500 1.00000
vt 0.66667 0.00000
vt 0.66667 0.12500
vt 0.66667 0.25000
vt 0.66667 0.37500
vt 0.66667 0.50000
vt 0.66667 0.62500
vt 0.66667 0.75000
vt 0.66667 0.87500
vt 0.66667 1.00000
vt 0.70833 0.00000
vt 0.70833 0.12500
vt 0.70833 0.25000
vt 0.70833 0.37500
vt 0.70833 0.50000
vt 0.70833 0.62500
vt 0.70833 0.75000
vt 0.70833 0.87500
vt 0.70833 1.00000
vt 0.75000 0.00000
vt 0.75000 0.12500
vt 0.75000 0.25000
vt 0.75000 0.37500
vt 0.75000 0.50000
vt 0.75000 0.62500
vt 0.75000 0.75000
vt 0.75000 0.87500
vt 0.75000 1.00000
vt 0.79167 0.00000
vt 0.79167 0.12500
vt 0.79167 0.25000
vt 0.79167 0.37500
vt 0.79167 0.50000
vt 0.79167 0.62500
vt 0.79167 0.75000
vt 0.79167 0.87500
vt 0.79167 1.00000
vt 0.83333 0.00000
vt 0.83333 0.12500
vt 0.83333 0.25000
vt 0.83333 0.37500
vt 0.83333 0.50000
vt 0.83333 0.62500
vt 0.83333 0.75000
vt 0.83333 0.87500
vt 0.83333 1.00000
vt 0.87500 0.00000
vt 0.87500 0.12500
vt 0.87500 0.25000
vt 0.87500 0.37500
vt 0.87500 0.50000
vt 0.87500 0.62500
vt 0.87500 0.75000
vt 0.87500 0.87500
vt 0.87500 1.00000
vt 0.91667 0.00000
vt 0.91667 0.12500
vt 0.91667 0.25000
vt 0.91667 0.37500
vt 0.91667 0.50000
vt 0.91667 0.62500
vt 0.91667 0.75000
vt 0.91667 0.87500
vt 0.91667 1.00000
vt 0.95833 0.00000
vt 0.95833 0.12500
vt 0.95833 0.25000
vt 0.95833 0.37500
vt 0.95833 0.50000
vt 0.95833 0.62500
vt 0.95833 0.75000
vt 0.95833 0.87500
vt 0.95833 1.00000
vt 1.00000 0.00000
vt 1.00000 0.12500
vt 1.00000 0.25000
vt 1.00000 0.37500
vt 1.00000 0.50000
vt 1.00000 0.62500
vt 1.00000 0.75000
vt 1.00000 0.87500
vt 1.00000 1.00000
f 682/682 691/691 683/683
f 691/691 692/692 683/683
f 683/683 692/692 684/684
f 692/692 693/693 684/684
f 684/684 693/693 685/685
f 693/693 694/694 685/685
f 685/685 694/694 686/686
f 694/694 695/695 686/686
f 686/686 695/695 687/687
f 695/695 696/696 687/687
f 687/687 696/696 688/688
f 696/696 697/697 688/688
f 688/688 697/697 689/689
f 697/697 698/698 689/689
f 689/689 698/698 690/690
f 698/698 699/699 690/690
f 691/691 700/700 692/692
f 700/700 701/701 692/692
f 692/692 701/701 693/693
f 701/701 702/702 693/693
f 693/693 702/702 694/694
f 702/702 703/703 694/694
f 694/694 703/703 695/695
f 703/703 704/704 695/695
f 695/695 704/704 696/696
f 704/704 705/705 696/696
f 696/696 705/705 697/697
f 705/705 706/706 697/697
f 697/697 706/706 698/698
f 706/706 707/707 698/698
f 698/698 707/707 699/699
f 707/707 708/708 699/699
f 700/700 709/709 701/701
f 709/709 710/710 701/701
f 701/701 710/710 702/702
f 710/710 711/711 702/702
f 702/702 711/711 703/703
f 711/711 712/712 703/703
f 703/703 712/712 704/704
f 712/712 713/713 704/704
f 704/704 713/713 705/705
f 713/713 714/714 705/705
f 705/705 714/714 706/706
f 714/714 715/715 706/706
f 706/706 715/715 707/707
f 715/715 716/716 707/707
f 707/707 716/716 708/708
f 716/716 717/717 708/708
f 709/709 718/718 710/710
f 718/718 719/719 710/710
f 710/710 719/719 711/711
f 719/719 720/720 711/711
f 711/711 720/720 712/712
f 720/720 721/721 712/712
f 712/712 721/721 713/713
f 721/721 722/722 713/713
f 713/713 722/722 714/714
f 722/722 723/723 714/714
f 714/714 723/723 715/715
f 723/723 724/724 715/715
f 715/715 724/724 716/716
f 724/724 725/725 716/716
f 716/716 725/725 717/717
f 725/725 726/726 717/717
f 718/718 727/727 719/719
f 727/727 728/728 719/719
f 719/719 728/728 720/720
f 728/728 729/729 720/720
f 720/720 729/729 721/721
f 729/729 730/730 721/721
f 721/721 730/730 722/722
f 730/730 731/731 722/722
f 722/722 731/731 723/723
f 731/731 732/732 723/723
f 723/723 732/732 724/724
f 732/732 733/733 724/724
f 724/724 733/733 725/725
f 733/733 734/734 725/725
f 725/725 734/734 726/726
f 734/734 735/735 726/726
f 727/727 736/736 728/728
f 736/736 737/737 728/728
f 728/728 737/737 729/729
f 737/737 738/738 729/729
f 729/729 738/738 730/730
f 738/738 739/739 730/730
f 730/730 739/739 731/731
f 739/739 740/740 731/731
f 731/731 740/740 732/732
f 740/740 741/741 732/732
f 732/732 741/741 733/733
f 741/741 742/742 733/733
f 733/733 742/742 734/734
f 742/742 743/743 734/734
f 734/734 743/743 735/735
f 743/743 744/744 735/735
f 736/736 745/745 737/737
f 745/745 746/746 737/737
f 737/737 746/746 738/738
f 746/746 747/747 738/738
f 738/738 747/747 739/739
f 747/747 748/748 739/739
f 739/739 748/748 740/740
f 748/748 749/749 740/740
f 740/740 749/749 741/741
f 749/749 750/750 741/741
f 741/741 750/750 742/742
f 750/750 751/751 742/742
f 742/742 751/751 743/743
f 751/751 752/752 743/743
f 743/743 752/752 744/744
f 752/752 753/753 744/744
f 745/745 754/754 746/746
f 754/754 755/755 746/746
f 746/746 755/755 747/747
f 755/755 756/756 747/747
f 747/747 756/756 748/748
f 756/756 757/757 748/748
f 748/748 757/757 749/749
f 757/757 758/758 749/749
f 749/749 758/758 750/750
f 758/758 759/759 750/750
f 750/750 759/759 751/751
f 759/759 760/760 751/751
f 751/751 760/760 752/752
f 760/760 761/761 752/752
f 752/752 761/761 753/753
f 761/761 762/762 753/753
f 754/754 763/763 755/755
f 763/763 764/764 755/755
f 755/755 764/764 756/756
f 764/764 765/765 756/756
f 756/756 765/765 757/757
f 765/765 766/766 757/757
f 757/757 766/766 758/758
f 766/766 767/767 758/758
f 758/758 767/767 759/759
f 767/767 768/768 759/759
f 759/759 768/768 760/760
f 768/768 769/769 760/760
f 760/760 769/769 761/761
f 769/769 770/770 761/761
f 761/761 770/770 762/762
f 770/770 771/771 762/762
f 763/763 772/772 764/764
f 772/772 773/773 764/764
f 764/764 773/773 765/765
f 773/773 774/774 765/765
f 765/765 774/774 766/766
f 774/774 775/775 766/766
f 766/766 775/775 767/767
f 775/775 776/776 767/767
f 767/767 776/776 768/768
f 776/776 777/777 768/768
f 768/768 777/777 769/769
f 777/777 778/778 769/769
f 769/769 778/778 770/770
f 778/778 779/779 770/770
f 770/770 779/779 771/771
f 779/779 780/780 771/771
f 772/772 781/781 773/773
f 781/781 782/782 773/773
f 773/773 782/782 774/774
f 782/782 783/783 774/774
f 774/774 783/783 775/775
f 783/783 784/784 775/775
f 775/775 784/784 776/776
f 784/784 785/785 776/776
f 776/776 785/785 777/777
f 785/785 786/786 777/777
f 777/777 786/786 778/778
f 786/786 787/787 778/778
f 778/778 787/787 779/779
f 787/787 788/788 779/779
f 779/779 788/788 780/780
f 788/788 789/789 780/780
f 781/781 790/790 782/782
f 790/790 791/791 782/782
f 782/782 791/791 783/783
f 791/791 792/792 783/783
f 783/783 792/792 784/784
f 792/792 793/793 784/784
f 784/784 793/793 785/785
f 793/793 794/794 785/785
f 785/785 794/794 786/786
f 794/794 795/795 786/786
f 786/786 795/795 787/787
f 795/795 796/796 787/787
f 787/787 796/796 788/788
f 796/796 797/797 788/788
f 788/788 797/797 789/789
f 797/797 798/798 789/789
f 790/790 799/799 791/791
f 799/799 800/800 791/791
f 791/791 800/800 792/792
f 800/800 801/801 792/792
f 792/792 801/801 793/793
f 801/801 802/802 793/793
f 793/793 802/802 794/794
f 802/802 803/803 794/794
f 794/794 803/803 795/795
f 803/803 804/804 795/795
f 795/795 804/804 796/796
f 804/804 805/805 796/796
f 796/796 805/805 797/797
f 805/805 806/806 797/797
f 797/797 806/806 798/798
f 806/806 807/807 798/798
f 799/799 808/808 800/800
f 808/808 809/809 800/800
f 800/800 809/809 801/801
f 809/809 810/810 801/801
f 801/801 810/810 802/802
f 810/810 811/811 802/802
f 802/802 811/811 803/803
f 811/811 812/812 803/803
f 803/803 812/812 804/804
f 812/812 813/813 804/804
f 804/804 813/813 805/805
f 813/813 814/814 805/805
f 805/805 814/814 806/806
f 814/814 815/815 806/806
f 806/806 815/815 807/807
f 815/815 816/816 807/807
f 808/808 817/817 809/809
f 817/817 818/818 809/809
f 809/809 818/818 810/810
f 818/818 819/819 810/810
f 810/810 819/819 811/811
f 819/819 820/820 811/811
f 811/811 820/820 812/812
f 820/820 821/821 812/812
f 812/812 821/821 813/813
f 821/821 822/822 813/813
f 813/813 822/822 814/814
f 822/822 823/823 814/814
f 814/814 823/823 815/815
f 823/823 824/824 815/815
f 815/815 824/824 816/816
f 824/824 825/825 816/816
f 817/817 826/826 818/818
f 826/826 827/827 818/818
f 818/818 827/827 819/819
f 827/827 828/828 819/819
f 819/819 828/828 820/820
f 828/828 829/829 820/820
f 820/820 829/829 821/821
f 829/829 830/830 821/821
f 821/821 830/830 822/822
f 830/830 831/831 822/822
f 822/822 831/831 823/823
f 831/831 832/832 823/823
f 823/823 832/832 824/824
f 832/832 833/833 824/824
f 824/824 833/833 825/825
f 833/833 834/834 825/825
f 826/826 835/835 827/827
f 835/835 836/836 827/827
f 827/827 836/836 828/828
f 836/836 837/837 828/828
f 828/828 837/837 829/829
f 837/837 838/838 829/829
f 829/829 838/838 830/830
f 838/838 839/839 830/830
f 830/830 839/839 831/831
f 839/839 840/840 831/831
f 831/831 840/840 832/832
f 840/840 841/841 832/832
f 832/832 841/841 833/833
f 841/841 842/842 833/833
f 833/833 842/842 834/834
f 842/842 843/843 834/834
f 835/835 844/844 836/836
f 844/844 845/845 836/836
f 836/836 845/845 837/837
f 845/845 846/846 837/837
f 837/837 846/846 838/838
f 846/846 847/847 838/838
f 838/838 847/847 839/839
f 847/847 848/848 839/839
f 839/839 848/848 840/840
f 848/848 849/849 840/840
f 840/840 849/849 841/841
f 849/849 850/850 841/841
f 841/841 850/850 842/842
f 850/850 851/851 842/842
f 842/842 851/851 843/843
f 851/851 852/852 843/843
f 844/844 853/853 845/845
f 853/853 854/854 845/845
f 845/845 854/854 846/846
f 854/854 855/855 846/846
f 846/846 855/855 847/847
f 855/855 856/856 847/847
f 847/847 856/856 848/848
f 856/856 857/857 848/848
f 848/848 857/857 849/849
f 857/857 858/858 849/849
f 849/849 858/858 850/850
f 858/858 859/859 850/850
f 850/850 859/859 851/851
f 859/859 860/860 851/851
f 851/851 860/860 852/852
f 860/860 861/861 852/852
f 853/853 862/862 854/854
f 862/862 863/863 854/854
f 854/854 863/863 855/855
f 863/863 864/864 855/855
f 855/855 864/864 856/856
f 864/864 865/865 856/856
f 856/856 865/865 857/857
f 865/865 866/866 857/857
f 857/857 866/866 858/858
f 866/866 867/867 858/858
f 858/858 867/867 859/859
f 867/867 868/868 859/859
f 859/859 868/868 860/860
f 868/868 869/869 860/860
f 860/860 869/869 861/861
f 869/869 870/870 861/861
f 862/862 871/871 863/863
f 871/871 872/872 863/863
f 863/863 872/872 864/864
f 872/872 873/873 864/864
f 864/864 873/873 865/865
f 873/873 874/874 865/865
f 865/865 874/874 866/866
f 874/874 875/875 866/866
f 866/866 875/875 867/867
f 875/875 876/876 867/867
f 867/867 876/876 868/868
f 876/876 877/877 868/868
f 868/868 877/877 869/869
f 877/877 878/878 869/869
f 869/869 878/878 870/870
f 878/878 879/879 870/870
f 871/871 880/880 872/872
f 880/880 881/881 872/872
f 872/872 881/881 873/873
f 881/881 882/882 873/873
f 873/873 882/882 874/874
f 882/882 883/883 874/874
f 874/874 883/883 875/875
f 883/883 884/884 875/875
f 875/875 884/884 876/876
f 884/884 885/885 876/876
f 876/876 885/885 877/877
f 885/885 886/886 877/877
f 877/877 886/886 878/878
f 886/886 887/887 878/878
f 878/878 887/887 879/879
f 887/887 888/888 879/879
f 880/880 889/889 881/881
f 889/889 890/890 881/881
f 881/881 890/890 882/882
f 890/890 891/891 882/882
f 882/882 891/891 883/883
f 891/891 892/892 883/883
f 883/883 892/892 884/884
f 892/892 893/893 884/884
f 884/884 893/893 885/885
f 893/893 894/894 885/885
f 885/885 894/894 886/886
f 894/894 895/895 886/886
f 886/886 895/895 887/887
f 895/895 896/896 887/887
f 887/887 896/896 888/888
f 896/896 897/897 888/888
f 889/889 898/898 890/890
f 898/898 899/899 890/890
f 890/890 899/899 891/891
f 899/899 900/900 891/891
f 891/891 900/900 892/892
f 900/900 901/901 892/892
f 892/892 901/901 893/893
f 901/901 902/902 893/893
f 893/893 902/902 894/894
f 902/902 903/903 894/894
f 894/894 903/903 895/895
f 903/903 904/904 895/895
f 895/895 904/904 896/896
f 904/904 905/905 896/896
f 896/896 905/905 897/897
f 905/905 906/906 897/897